# MagicaVoxel @ Ephtracy

# material
mtllib GuardFaceless_Chest.mtl
usemtl palette

# normals
vn -1 0 0
vn 1 0 0
vn 0 0 1
vn 0 0 -1
vn 0 -1 0
vn 0 1 0

# texcoords
vt 0.0449219 0.5
vt 0.0683594 0.5
vt 0.228516 0.5
vt 0.927734 0.5
vt 0.931641 0.5
vt 0.935547 0.5
vt 0.994141 0.5

# verts
v -15 41 7
v -15 41 -20
v -15 45 8
v -15 45 7
v -15 57 8
v -15 57 -20
v -14 31 7
v -14 31 -19
v -14 41 7
v -14 41 -19
v -14 44 8
v -14 44 7
v -14 45 8
v -14 45 7
v -13 28 6
v -13 28 -18
v -13 29 7
v -13 29 6
v -13 31 7
v -13 31 -18
v -12 26 6
v -12 26 -17
v -12 28 6
v -12 28 -17
v -11 22 5
v -11 22 -16
v -11 24 6
v -11 24 5
v -11 24 -16
v -11 26 6
v -11 26 -16
v -10 20 5
v -10 20 -15
v -10 22 5
v -10 22 -15
v 2 44 8
v 2 44 7
v 2 45 8
v 2 45 7
v 5 49 9
v 5 49 8
v 5 54 9
v 5 54 8
v 6 48 9
v 6 48 8
v 6 49 9
v 6 49 8
v 6 54 9
v 6 54 8
v 6 55 9
v 6 55 8
v 7 47 9
v 7 47 8
v 7 48 9
v 7 48 8
v 7 55 9
v 7 55 8
v 7 56 9
v 7 56 8
v -2 44 8
v -2 44 7
v -2 45 8
v -2 45 7
v 10 20 5
v 10 20 -15
v 10 22 5
v 10 22 -15
v 11 22 5
v 11 22 -16
v 11 24 6
v 11 24 5
v 11 24 -16
v 11 26 6
v 11 26 -16
v 12 26 6
v 12 26 -17
v 12 28 6
v 12 28 -17
v 12 47 9
v 12 47 8
v 12 48 9
v 12 48 8
v 12 55 9
v 12 55 8
v 12 56 9
v 12 56 8
v 13 28 6
v 13 28 -18
v 13 29 7
v 13 29 6
v 13 31 7
v 13 31 -18
v 13 48 9
v 13 48 8
v 13 49 9
v 13 49 8
v 13 54 9
v 13 54 8
v 13 55 9
v 13 55 8
v 14 31 7
v 14 31 -19
v 14 41 7
v 14 41 -19
v 14 44 8
v 14 44 7
v 14 45 8
v 14 45 7
v 14 49 9
v 14 49 8
v 14 54 9
v 14 54 8
v 15 41 7
v 15 41 -20
v 15 45 8
v 15 45 7
v 15 57 8
v 15 57 -20
v 5 49 9
v 5 54 9
v 6 48 9
v 6 49 9
v 6 54 9
v 6 55 9
v 7 47 9
v 7 48 9
v 7 49 9
v 7 50 9
v 7 51 9
v 7 52 9
v 7 53 9
v 7 54 9
v 7 55 9
v 7 56 9
v 8 49 9
v 8 50 9
v 8 51 9
v 8 52 9
v 8 53 9
v 8 54 9
v 9 49 9
v 9 50 9
v 9 53 9
v 9 54 9
v 10 49 9
v 10 50 9
v 10 53 9
v 10 54 9
v 11 49 9
v 11 50 9
v 11 51 9
v 11 52 9
v 11 53 9
v 11 54 9
v 12 47 9
v 12 48 9
v 12 49 9
v 12 50 9
v 12 51 9
v 12 52 9
v 12 53 9
v 12 54 9
v 12 55 9
v 12 56 9
v 13 48 9
v 13 49 9
v 13 54 9
v 13 55 9
v 14 49 9
v 14 54 9
v -15 45 8
v -15 57 8
v -14 44 8
v -14 45 8
v -7 56 8
v -7 57 8
v -5 55 8
v -5 56 8
v -4 56 8
v -4 57 8
v -3 54 8
v -3 55 8
v -2 44 8
v -2 45 8
v -2 53 8
v -2 54 8
v -2 55 8
v -2 56 8
v -1 45 8
v -1 53 8
v -1 54 8
v -1 55 8
v 1 45 8
v 1 53 8
v 1 54 8
v 1 55 8
v 2 44 8
v 2 45 8
v 2 53 8
v 2 54 8
v 2 55 8
v 2 56 8
v 3 54 8
v 3 55 8
v 4 56 8
v 4 57 8
v 5 49 8
v 5 54 8
v 5 55 8
v 5 56 8
v 6 48 8
v 6 49 8
v 6 54 8
v 6 55 8
v 7 47 8
v 7 48 8
v 7 55 8
v 7 56 8
v 7 57 8
v 12 47 8
v 12 48 8
v 12 55 8
v 12 56 8
v 13 48 8
v 13 49 8
v 13 54 8
v 13 55 8
v 14 44 8
v 14 45 8
v 14 49 8
v 14 54 8
v 15 45 8
v 15 57 8
v -15 41 7
v -15 45 7
v -14 31 7
v -14 41 7
v -14 44 7
v -14 45 7
v -13 29 7
v -13 31 7
v -2 44 7
v -2 45 7
v -1 29 7
v -1 44 7
v -1 45 7
v 1 29 7
v 1 44 7
v 1 45 7
v 2 44 7
v 2 45 7
v 13 29 7
v 13 31 7
v 14 31 7
v 14 41 7
v 14 44 7
v 14 45 7
v 15 41 7
v 15 45 7
v -13 28 6
v -13 29 6
v -12 26 6
v -12 28 6
v -11 24 6
v -11 26 6
v -1 24 6
v -1 29 6
v 1 24 6
v 1 29 6
v 11 24 6
v 11 26 6
v 12 26 6
v 12 28 6
v 13 28 6
v 13 29 6
v -11 22 5
v -11 24 5
v -10 20 5
v -10 22 5
v -1 24 5
v 1 24 5
v 10 20 5
v 10 22 5
v 11 22 5
v 11 24 5
v -10 20 -15
v -10 22 -15
v 10 20 -15
v 10 22 -15
v -11 22 -16
v -11 24 -16
v -11 26 -16
v 11 22 -16
v 11 24 -16
v 11 26 -16
v -12 26 -17
v -12 28 -17
v 12 26 -17
v 12 28 -17
v -13 28 -18
v -13 31 -18
v 13 28 -18
v 13 31 -18
v -14 31 -19
v -14 41 -19
v 14 31 -19
v 14 41 -19
v -15 41 -20
v -15 57 -20
v 15 41 -20
v 15 57 -20
v -10 20 5
v 10 20 5
v -10 20 -15
v 10 20 -15
v -11 22 5
v -10 22 5
v 10 22 5
v 11 22 5
v -10 22 -15
v 10 22 -15
v -11 22 -16
v 11 22 -16
v -11 24 6
v -1 24 6
v 1 24 6
v 11 24 6
v -11 24 5
v -1 24 5
v 1 24 5
v 11 24 5
v -12 26 6
v -11 26 6
v 11 26 6
v 12 26 6
v -11 26 -16
v 11 26 -16
v -12 26 -17
v 12 26 -17
v -13 28 6
v -12 28 6
v 12 28 6
v 13 28 6
v -12 28 -17
v 12 28 -17
v -13 28 -18
v 13 28 -18
v -13 29 7
v -1 29 7
v 1 29 7
v 13 29 7
v -13 29 6
v -1 29 6
v 1 29 6
v 13 29 6
v -14 31 7
v -13 31 7
v 13 31 7
v 14 31 7
v -13 31 -18
v 13 31 -18
v -14 31 -19
v 14 31 -19
v -15 41 7
v -14 41 7
v 14 41 7
v 15 41 7
v -14 41 -19
v 14 41 -19
v -15 41 -20
v 15 41 -20
v -14 44 8
v -2 44 8
v 2 44 8
v 14 44 8
v -14 44 7
v -2 44 7
v 2 44 7
v 14 44 7
v -15 45 8
v -14 45 8
v -2 45 8
v -1 45 8
v 1 45 8
v 2 45 8
v 14 45 8
v 15 45 8
v -15 45 7
v -14 45 7
v -2 45 7
v -1 45 7
v 1 45 7
v 2 45 7
v 14 45 7
v 15 45 7
v 7 47 9
v 12 47 9
v 7 47 8
v 12 47 8
v 6 48 9
v 7 48 9
v 12 48 9
v 13 48 9
v 6 48 8
v 7 48 8
v 12 48 8
v 13 48 8
v 5 49 9
v 6 49 9
v 13 49 9
v 14 49 9
v 5 49 8
v 6 49 8
v 13 49 8
v 14 49 8
v 5 54 9
v 6 54 9
v 13 54 9
v 14 54 9
v 5 54 8
v 6 54 8
v 13 54 8
v 14 54 8
v 6 55 9
v 7 55 9
v 12 55 9
v 13 55 9
v 6 55 8
v 7 55 8
v 12 55 8
v 13 55 8
v 7 56 9
v 12 56 9
v 7 56 8
v 12 56 8
v -15 57 8
v -7 57 8
v -4 57 8
v 4 57 8
v 7 57 8
v 15 57 8
v -9 57 7
v -7 57 7
v -6 57 7
v -4 57 7
v 4 57 7
v 6 57 7
v 7 57 7
v 9 57 7
v -13 57 6
v -9 57 6
v -8 57 6
v -6 57 6
v 6 57 6
v 8 57 6
v 9 57 6
v 13 57 6
v -12 57 5
v -8 57 5
v 8 57 5
v 12 57 5
v -12 57 -12
v -11 57 -12
v 11 57 -12
v 12 57 -12
v -13 57 -13
v -12 57 -13
v -11 57 -13
v -10 57 -13
v 10 57 -13
v 11 57 -13
v 12 57 -13
v 13 57 -13
v -12 57 -14
v -11 57 -14
v -10 57 -14
v -9 57 -14
v 9 57 -14
v 10 57 -14
v 11 57 -14
v 12 57 -14
v -11 57 -15
v -10 57 -15
v -9 57 -15
v -8 57 -15
v 8 57 -15
v 9 57 -15
v 10 57 -15
v 11 57 -15
v -10 57 -16
v -9 57 -16
v -8 57 -16
v -7 57 -16
v 7 57 -16
v 8 57 -16
v 9 57 -16
v 10 57 -16
v -9 57 -17
v -8 57 -17
v -7 57 -17
v 7 57 -17
v 8 57 -17
v 9 57 -17
v -8 57 -18
v 8 57 -18
v -15 57 -20
v 15 57 -20

# faces
f 4/5/1 2/5/1 1/5/1
f 5/5/1 4/5/1 3/5/1
f 6/5/1 2/5/1 4/5/1
f 6/5/1 4/5/1 5/5/1
f 9/5/1 8/5/1 7/5/1
f 10/5/1 8/5/1 9/5/1
f 13/5/1 12/5/1 11/5/1
f 14/5/1 12/5/1 13/5/1
f 18/5/1 16/5/1 15/5/1
f 19/5/1 18/5/1 17/5/1
f 20/5/1 16/5/1 18/5/1
f 20/5/1 18/5/1 19/5/1
f 23/5/1 22/5/1 21/5/1
f 24/5/1 22/5/1 23/5/1
f 28/6/1 26/6/1 25/6/1
f 29/6/1 26/6/1 28/6/1
f 30/5/1 28/5/1 27/5/1
f 30/5/1 29/5/1 28/5/1
f 31/5/1 29/5/1 30/5/1
f 34/6/1 33/6/1 32/6/1
f 35/6/1 33/6/1 34/6/1
f 38/5/1 37/5/1 36/5/1
f 39/5/1 37/5/1 38/5/1
f 42/2/1 41/2/1 40/2/1
f 43/2/1 41/2/1 42/2/1
f 46/2/1 45/2/1 44/2/1
f 47/2/1 45/2/1 46/2/1
f 50/2/1 49/2/1 48/2/1
f 51/2/1 49/2/1 50/2/1
f 54/2/1 53/2/1 52/2/1
f 55/2/1 53/2/1 54/2/1
f 58/2/1 57/2/1 56/2/1
f 59/2/1 57/2/1 58/2/1
f 60/5/2 61/5/2 62/5/2
f 62/5/2 61/5/2 63/5/2
f 64/6/2 65/6/2 66/6/2
f 66/6/2 65/6/2 67/6/2
f 68/6/2 69/6/2 71/6/2
f 71/6/2 69/6/2 72/6/2
f 70/5/2 71/5/2 73/5/2
f 71/5/2 72/5/2 73/5/2
f 73/5/2 72/5/2 74/5/2
f 75/5/2 76/5/2 77/5/2
f 77/5/2 76/5/2 78/5/2
f 79/2/2 80/2/2 81/2/2
f 81/2/2 80/2/2 82/2/2
f 83/2/2 84/2/2 85/2/2
f 85/2/2 84/2/2 86/2/2
f 87/5/2 88/5/2 90/5/2
f 89/5/2 90/5/2 91/5/2
f 90/5/2 88/5/2 92/5/2
f 91/5/2 90/5/2 92/5/2
f 93/2/2 94/2/2 95/2/2
f 95/2/2 94/2/2 96/2/2
f 97/2/2 98/2/2 99/2/2
f 99/2/2 98/2/2 100/2/2
f 101/5/2 102/5/2 103/5/2
f 103/5/2 102/5/2 104/5/2
f 105/5/2 106/5/2 107/5/2
f 107/5/2 106/5/2 108/5/2
f 109/2/2 110/2/2 111/2/2
f 111/2/2 110/2/2 112/2/2
f 113/5/2 114/5/2 116/5/2
f 115/5/2 116/5/2 117/5/2
f 116/5/2 114/5/2 118/5/2
f 117/5/2 116/5/2 118/5/2
f 122/2/3 120/2/3 119/2/3
f 123/2/3 120/2/3 122/2/3
f 126/2/3 122/2/3 121/2/3
f 127/1/3 123/1/3 122/1/3
f 127/2/3 122/2/3 126/2/3
f 128/1/3 123/1/3 127/1/3
f 129/1/3 123/1/3 128/1/3
f 130/1/3 123/1/3 129/1/3
f 131/1/3 123/1/3 130/1/3
f 132/2/3 124/2/3 123/2/3
f 132/1/3 123/1/3 131/1/3
f 133/2/3 124/2/3 132/2/3
f 135/1/3 127/1/3 126/1/3
f 135/2/3 128/2/3 127/2/3
f 136/1/3 129/1/3 128/1/3
f 136/2/3 128/2/3 135/2/3
f 137/2/3 130/2/3 129/2/3
f 137/1/3 129/1/3 136/1/3
f 138/1/3 131/1/3 130/1/3
f 138/2/3 130/2/3 137/2/3
f 139/2/3 132/2/3 131/2/3
f 139/1/3 131/1/3 138/1/3
f 140/1/3 133/1/3 132/1/3
f 140/2/3 132/2/3 139/2/3
f 141/1/3 135/1/3 126/1/3
f 141/1/3 136/1/3 135/1/3
f 142/2/3 137/2/3 136/2/3
f 142/1/3 136/1/3 141/1/3
f 142/2/3 139/2/3 138/2/3
f 142/2/3 138/2/3 137/2/3
f 143/1/3 140/1/3 139/1/3
f 143/2/3 139/2/3 142/2/3
f 144/1/3 133/1/3 140/1/3
f 144/1/3 140/1/3 143/1/3
f 145/1/3 141/1/3 126/1/3
f 145/2/3 142/2/3 141/2/3
f 145/2/3 144/2/3 143/2/3
f 145/2/3 143/2/3 142/2/3
f 146/2/3 144/2/3 145/2/3
f 147/2/3 144/2/3 146/2/3
f 148/1/3 133/1/3 144/1/3
f 148/2/3 144/2/3 147/2/3
f 149/1/3 145/1/3 126/1/3
f 149/1/3 146/1/3 145/1/3
f 150/2/3 147/2/3 146/2/3
f 150/1/3 146/1/3 149/1/3
f 151/2/3 147/2/3 150/2/3
f 152/2/3 147/2/3 151/2/3
f 153/1/3 148/1/3 147/1/3
f 153/2/3 147/2/3 152/2/3
f 154/1/3 133/1/3 148/1/3
f 154/1/3 148/1/3 153/1/3
f 155/2/3 126/2/3 125/2/3
f 156/1/3 149/1/3 126/1/3
f 156/2/3 126/2/3 155/2/3
f 157/2/3 150/2/3 149/2/3
f 157/1/3 149/1/3 156/1/3
f 158/1/3 151/1/3 150/1/3
f 158/2/3 150/2/3 157/2/3
f 159/2/3 152/2/3 151/2/3
f 159/1/3 151/1/3 158/1/3
f 160/1/3 153/1/3 152/1/3
f 160/2/3 152/2/3 159/2/3
f 161/2/3 154/2/3 153/2/3
f 161/1/3 153/1/3 160/1/3
f 162/1/3 133/1/3 154/1/3
f 162/2/3 154/2/3 161/2/3
f 163/2/3 134/2/3 133/2/3
f 163/1/3 133/1/3 162/1/3
f 164/2/3 134/2/3 163/2/3
f 165/2/3 157/2/3 156/2/3
f 166/1/3 161/1/3 160/1/3
f 166/2/3 157/2/3 165/2/3
f 166/1/3 162/1/3 161/1/3
f 166/1/3 160/1/3 159/1/3
f 166/1/3 159/1/3 158/1/3
f 166/1/3 158/1/3 157/1/3
f 167/2/3 163/2/3 162/2/3
f 167/1/3 162/1/3 166/1/3
f 168/2/3 163/2/3 167/2/3
f 169/2/3 167/2/3 166/2/3
f 170/2/3 167/2/3 169/2/3
f 174/5/3 172/5/3 171/5/3
f 175/5/3 172/5/3 174/5/3
f 175/5/3 174/5/3 173/5/3
f 176/5/3 172/5/3 175/5/3
f 177/5/3 175/5/3 173/5/3
f 178/7/3 176/7/3 175/7/3
f 178/5/3 175/5/3 177/5/3
f 179/7/3 178/7/3 177/7/3
f 179/7/3 176/7/3 178/7/3
f 180/7/3 176/7/3 179/7/3
f 181/5/3 177/5/3 173/5/3
f 182/7/3 179/7/3 177/7/3
f 182/5/3 177/5/3 181/5/3
f 183/5/3 181/5/3 173/5/3
f 184/5/3 181/5/3 183/5/3
f 185/5/3 181/5/3 184/5/3
f 186/7/3 182/7/3 181/7/3
f 186/5/3 181/5/3 185/5/3
f 187/7/3 179/7/3 182/7/3
f 187/7/3 182/7/3 186/7/3
f 188/3/3 180/3/3 179/3/3
f 188/7/3 179/7/3 187/7/3
f 189/5/3 185/5/3 184/5/3
f 190/7/3 186/7/3 185/7/3
f 190/5/3 185/5/3 189/5/3
f 190/7/3 187/7/3 186/7/3
f 191/7/3 187/7/3 190/7/3
f 192/3/3 188/3/3 187/3/3
f 192/7/3 187/7/3 191/7/3
f 193/7/3 191/7/3 190/7/3
f 193/7/3 190/7/3 189/7/3
f 194/7/3 191/7/3 193/7/3
f 195/3/3 192/3/3 191/3/3
f 195/7/3 191/7/3 194/7/3
f 196/3/3 188/3/3 192/3/3
f 196/3/3 192/3/3 195/3/3
f 198/5/3 194/5/3 193/5/3
f 199/7/3 195/7/3 194/7/3
f 199/7/3 196/7/3 195/7/3
f 199/5/3 194/5/3 198/5/3
f 200/7/3 196/7/3 199/7/3
f 201/3/3 188/3/3 196/3/3
f 201/7/3 196/7/3 200/7/3
f 202/3/3 180/3/3 188/3/3
f 202/3/3 188/3/3 201/3/3
f 203/5/3 198/5/3 197/5/3
f 203/7/3 201/7/3 200/7/3
f 203/7/3 202/7/3 201/7/3
f 203/5/3 199/5/3 198/5/3
f 203/5/3 200/5/3 199/5/3
f 204/7/3 202/7/3 203/7/3
f 205/3/3 180/3/3 202/3/3
f 205/7/3 202/7/3 204/7/3
f 206/3/3 180/3/3 205/3/3
f 207/5/3 204/5/3 203/5/3
f 207/5/3 203/5/3 197/5/3
f 208/5/3 204/5/3 207/5/3
f 209/7/3 206/7/3 205/7/3
f 209/5/3 204/5/3 208/5/3
f 209/7/3 205/7/3 204/7/3
f 210/7/3 206/7/3 209/7/3
f 211/5/3 207/5/3 197/5/3
f 212/5/3 207/5/3 211/5/3
f 213/5/3 210/5/3 209/5/3
f 213/5/3 209/5/3 208/5/3
f 214/5/3 210/5/3 213/5/3
f 215/5/3 211/5/3 197/5/3
f 216/5/3 211/5/3 215/5/3
f 217/5/3 210/5/3 214/5/3
f 218/7/3 206/7/3 210/7/3
f 218/5/3 210/5/3 217/5/3
f 219/7/3 206/7/3 218/7/3
f 220/5/3 215/5/3 197/5/3
f 223/5/3 219/5/3 218/5/3
f 224/5/3 221/5/3 220/5/3
f 227/5/3 223/5/3 222/5/3
f 228/5/3 225/5/3 224/5/3
f 228/5/3 220/5/3 197/5/3
f 228/5/3 224/5/3 220/5/3
f 229/5/3 225/5/3 228/5/3
f 230/5/3 225/5/3 229/5/3
f 231/5/3 227/5/3 226/5/3
f 232/5/3 230/5/3 229/5/3
f 232/5/3 231/5/3 230/5/3
f 233/5/3 227/5/3 231/5/3
f 233/5/3 231/5/3 232/5/3
f 233/5/3 223/5/3 227/5/3
f 233/5/3 219/5/3 223/5/3
f 237/5/3 235/5/3 234/5/3
f 238/5/3 235/5/3 237/5/3
f 239/5/3 235/5/3 238/5/3
f 241/5/3 237/5/3 236/5/3
f 241/5/3 238/5/3 237/5/3
f 242/5/3 238/5/3 241/5/3
f 242/5/3 241/5/3 240/5/3
f 244/5/3 242/5/3 240/5/3
f 245/4/3 243/4/3 242/4/3
f 245/5/3 242/5/3 244/5/3
f 246/4/3 243/4/3 245/4/3
f 247/7/3 245/7/3 244/7/3
f 247/7/3 246/7/3 245/7/3
f 248/7/3 246/7/3 247/7/3
f 249/7/3 246/7/3 248/7/3
f 250/5/3 248/5/3 247/5/3
f 250/4/3 249/4/3 248/4/3
f 251/4/3 249/4/3 250/4/3
f 252/5/3 250/5/3 247/5/3
f 253/5/3 250/5/3 252/5/3
f 254/5/3 250/5/3 253/5/3
f 255/5/3 250/5/3 254/5/3
f 256/5/3 250/5/3 255/5/3
f 258/5/3 257/5/3 256/5/3
f 258/5/3 256/5/3 255/5/3
f 259/5/3 257/5/3 258/5/3
f 263/5/3 261/5/3 260/5/3
f 265/5/3 263/5/3 262/5/3
f 266/5/3 265/5/3 264/5/3
f 267/5/3 261/5/3 263/5/3
f 267/5/3 265/5/3 266/5/3
f 267/5/3 263/5/3 265/5/3
f 268/7/3 267/7/3 266/7/3
f 269/7/3 267/7/3 268/7/3
f 270/5/3 269/5/3 268/5/3
f 271/5/3 269/5/3 270/5/3
f 272/5/3 269/5/3 271/5/3
f 273/5/3 269/5/3 272/5/3
f 274/5/3 269/5/3 273/5/3
f 275/5/3 269/5/3 274/5/3
f 279/6/3 277/6/3 276/6/3
f 280/6/3 277/6/3 279/6/3
f 280/6/3 279/6/3 278/6/3
f 281/6/3 280/6/3 278/6/3
f 282/6/3 281/6/3 278/6/3
f 283/6/3 281/6/3 282/6/3
f 284/6/3 281/6/3 283/6/3
f 285/6/3 281/6/3 284/6/3
f 286/6/4 287/6/4 288/6/4
f 288/6/4 287/6/4 289/6/4
f 290/6/4 291/6/4 293/6/4
f 291/5/4 292/5/4 294/5/4
f 293/6/4 291/6/4 294/6/4
f 294/5/4 292/5/4 295/5/4
f 296/5/4 297/5/4 298/5/4
f 298/5/4 297/5/4 299/5/4
f 300/5/4 301/5/4 302/5/4
f 302/5/4 301/5/4 303/5/4
f 304/5/4 305/5/4 306/5/4
f 306/5/4 305/5/4 307/5/4
f 308/5/4 309/5/4 310/5/4
f 310/5/4 309/5/4 311/5/4
f 314/6/5 313/6/5 312/6/5
f 315/6/5 313/6/5 314/6/5
f 320/6/5 317/6/5 316/6/5
f 321/6/5 319/6/5 318/6/5
f 322/6/5 320/6/5 316/6/5
f 322/6/5 321/6/5 320/6/5
f 323/6/5 319/6/5 321/6/5
f 323/6/5 321/6/5 322/6/5
f 328/5/5 325/5/5 324/5/5
f 329/7/5 326/7/5 325/7/5
f 329/5/5 325/5/5 328/5/5
f 330/5/5 327/5/5 326/5/5
f 330/7/5 326/7/5 329/7/5
f 331/5/5 327/5/5 330/5/5
f 336/5/5 333/5/5 332/5/5
f 337/5/5 335/5/5 334/5/5
f 338/5/5 336/5/5 332/5/5
f 338/5/5 337/5/5 336/5/5
f 339/5/5 335/5/5 337/5/5
f 339/5/5 337/5/5 338/5/5
f 344/5/5 341/5/5 340/5/5
f 345/5/5 343/5/5 342/5/5
f 346/5/5 344/5/5 340/5/5
f 346/5/5 345/5/5 344/5/5
f 347/5/5 343/5/5 345/5/5
f 347/5/5 345/5/5 346/5/5
f 352/5/5 349/5/5 348/5/5
f 353/7/5 350/7/5 349/7/5
f 353/5/5 349/5/5 352/5/5
f 354/5/5 351/5/5 350/5/5
f 354/7/5 350/7/5 353/7/5
f 355/5/5 351/5/5 354/5/5
f 360/5/5 357/5/5 356/5/5
f 361/5/5 359/5/5 358/5/5
f 362/5/5 360/5/5 356/5/5
f 362/5/5 361/5/5 360/5/5
f 363/5/5 359/5/5 361/5/5
f 363/5/5 361/5/5 362/5/5
f 368/5/5 365/5/5 364/5/5
f 369/5/5 367/5/5 366/5/5
f 370/5/5 368/5/5 364/5/5
f 370/5/5 369/5/5 368/5/5
f 371/5/5 367/5/5 369/5/5
f 371/5/5 369/5/5 370/5/5
f 376/5/5 373/5/5 372/5/5
f 377/5/5 373/5/5 376/5/5
f 378/5/5 375/5/5 374/5/5
f 379/5/5 375/5/5 378/5/5
f 388/5/5 381/5/5 380/5/5
f 389/5/5 381/5/5 388/5/5
f 390/5/5 383/5/5 382/5/5
f 391/7/5 384/7/5 383/7/5
f 391/5/5 383/5/5 390/5/5
f 392/5/5 385/5/5 384/5/5
f 392/7/5 384/7/5 391/7/5
f 393/5/5 385/5/5 392/5/5
f 394/5/5 387/5/5 386/5/5
f 395/5/5 387/5/5 394/5/5
f 398/2/5 397/2/5 396/2/5
f 399/2/5 397/2/5 398/2/5
f 404/2/5 401/2/5 400/2/5
f 405/2/5 401/2/5 404/2/5
f 406/2/5 403/2/5 402/2/5
f 407/2/5 403/2/5 406/2/5
f 412/2/5 409/2/5 408/2/5
f 413/2/5 409/2/5 412/2/5
f 414/2/5 411/2/5 410/2/5
f 415/2/5 411/2/5 414/2/5
f 416/2/6 417/2/6 420/2/6
f 420/2/6 417/2/6 421/2/6
f 418/2/6 419/2/6 422/2/6
f 422/2/6 419/2/6 423/2/6
f 424/2/6 425/2/6 428/2/6
f 428/2/6 425/2/6 429/2/6
f 426/2/6 427/2/6 430/2/6
f 430/2/6 427/2/6 431/2/6
f 432/2/6 433/2/6 434/2/6
f 434/2/6 433/2/6 435/2/6
f 436/5/6 437/5/6 442/5/6
f 437/7/6 438/7/6 443/7/6
f 442/5/6 437/5/6 443/5/6
f 443/7/6 438/7/6 444/7/6
f 438/3/6 439/3/6 445/3/6
f 444/7/6 438/7/6 445/7/6
f 439/7/6 440/7/6 446/7/6
f 445/3/6 439/3/6 446/3/6
f 446/7/6 440/7/6 447/7/6
f 440/5/6 441/5/6 448/5/6
f 447/7/6 440/7/6 448/7/6
f 448/5/6 441/5/6 449/5/6
f 436/5/6 442/5/6 450/5/6
f 443/7/6 444/7/6 451/7/6
f 450/5/6 442/5/6 451/5/6
f 442/7/6 443/7/6 451/7/6
f 451/7/6 444/7/6 452/7/6
f 446/3/6 447/3/6 453/3/6
f 452/7/6 444/7/6 453/7/6
f 444/3/6 445/3/6 453/3/6
f 445/3/6 446/3/6 453/3/6
f 448/7/6 449/7/6 454/7/6
f 453/3/6 447/3/6 454/3/6
f 447/7/6 448/7/6 454/7/6
f 454/7/6 449/7/6 455/7/6
f 449/5/6 441/5/6 456/5/6
f 455/7/6 449/7/6 456/7/6
f 456/5/6 441/5/6 457/5/6
f 451/7/6 452/7/6 458/7/6
f 450/7/6 451/7/6 458/7/6
f 454/3/6 455/3/6 459/3/6
f 458/7/6 452/7/6 459/7/6
f 452/3/6 453/3/6 459/3/6
f 453/3/6 454/3/6 459/3/6
f 456/7/6 457/7/6 460/7/6
f 459/3/6 455/3/6 460/3/6
f 455/7/6 456/7/6 460/7/6
f 460/7/6 457/7/6 461/7/6
f 450/7/6 458/7/6 462/7/6
f 458/3/6 459/3/6 462/3/6
f 460/3/6 461/3/6 462/3/6
f 459/3/6 460/3/6 462/3/6
f 462/3/6 461/3/6 463/3/6
f 463/3/6 461/3/6 464/3/6
f 461/7/6 457/7/6 465/7/6
f 464/3/6 461/3/6 465/3/6
f 436/5/6 450/5/6 466/5/6
f 450/7/6 462/7/6 466/7/6
f 462/7/6 463/7/6 466/7/6
f 466/7/6 463/7/6 467/7/6
f 463/3/6 464/3/6 468/3/6
f 467/7/6 463/7/6 468/7/6
f 468/3/6 464/3/6 469/3/6
f 469/3/6 464/3/6 470/3/6
f 464/7/6 465/7/6 471/7/6
f 470/3/6 464/3/6 471/3/6
f 465/7/6 457/7/6 472/7/6
f 471/7/6 465/7/6 472/7/6
f 457/5/6 441/5/6 473/5/6
f 472/7/6 457/7/6 473/7/6
f 466/5/6 467/5/6 474/5/6
f 467/7/6 468/7/6 474/7/6
f 468/7/6 469/7/6 474/7/6
f 474/7/6 469/7/6 475/7/6
f 469/3/6 470/3/6 476/3/6
f 475/7/6 469/7/6 476/7/6
f 476/3/6 470/3/6 477/3/6
f 477/3/6 470/3/6 478/3/6
f 471/7/6 472/7/6 479/7/6
f 478/3/6 470/3/6 479/3/6
f 470/7/6 471/7/6 479/7/6
f 479/7/6 472/7/6 480/7/6
f 472/5/6 473/5/6 481/5/6
f 480/7/6 472/7/6 481/7/6
f 476/7/6 477/7/6 482/7/6
f 474/5/6 475/5/6 482/5/6
f 475/7/6 476/7/6 482/7/6
f 482/7/6 477/7/6 483/7/6
f 477/3/6 478/3/6 484/3/6
f 483/7/6 477/7/6 484/7/6
f 484/3/6 478/3/6 485/3/6
f 485/3/6 478/3/6 486/3/6
f 479/7/6 480/7/6 487/7/6
f 486/3/6 478/3/6 487/3/6
f 478/7/6 479/7/6 487/7/6
f 487/7/6 480/7/6 488/7/6
f 480/5/6 481/5/6 489/5/6
f 488/7/6 480/7/6 489/7/6
f 482/5/6 483/5/6 490/5/6
f 484/7/6 485/7/6 490/7/6
f 483/7/6 484/7/6 490/7/6
f 490/7/6 485/7/6 491/7/6
f 485/3/6 486/3/6 492/3/6
f 491/7/6 485/7/6 492/7/6
f 492/3/6 486/3/6 493/3/6
f 493/3/6 486/3/6 494/3/6
f 487/7/6 488/7/6 495/7/6
f 494/3/6 486/3/6 495/3/6
f 486/7/6 487/7/6 495/7/6
f 495/7/6 488/7/6 496/7/6
f 488/5/6 489/5/6 497/5/6
f 496/7/6 488/7/6 497/7/6
f 490/5/6 491/5/6 498/5/6
f 492/7/6 493/7/6 498/7/6
f 491/7/6 492/7/6 498/7/6
f 498/7/6 493/7/6 499/7/6
f 493/3/6 494/3/6 500/3/6
f 499/7/6 493/7/6 500/7/6
f 495/7/6 496/7/6 501/7/6
f 500/3/6 494/3/6 501/3/6
f 494/7/6 495/7/6 501/7/6
f 501/7/6 496/7/6 502/7/6
f 496/5/6 497/5/6 503/5/6
f 502/7/6 496/7/6 503/7/6
f 498/5/6 499/5/6 504/5/6
f 499/7/6 500/7/6 504/7/6
f 501/7/6 502/7/6 504/7/6
f 500/7/6 501/7/6 504/7/6
f 502/5/6 503/5/6 505/5/6
f 504/7/6 502/7/6 505/7/6
f 436/5/6 466/5/6 506/5/6
f 466/5/6 474/5/6 506/5/6
f 504/5/6 505/5/6 506/5/6
f 482/5/6 490/5/6 506/5/6
f 490/5/6 498/5/6 506/5/6
f 474/5/6 482/5/6 506/5/6
f 498/5/6 504/5/6 506/5/6
f 489/5/6 481/5/6 507/5/6
f 506/5/6 505/5/6 507/5/6
f 473/5/6 441/5/6 507/5/6
f 497/5/6 489/5/6 507/5/6
f 505/5/6 503/5/6 507/5/6
f 503/5/6 497/5/6 507/5/6
f 481/5/6 473/5/6 507/5/6
