# MagicaVoxel @ Ephtracy

# material
mtllib Cell_Block_Menu_bed.mtl
usemtl palette

# normals
vn -1 0 0
vn 1 0 0
vn 0 0 1
vn 0 0 -1
vn 0 -1 0
vn 0 1 0

# texcoords
vt 0.337891 0.5
vt 0.912109 0.5
vt 0.966797 0.5
vt 0.970703 0.5
vt 0.982422 0.5

# verts
v 12 1 -0
v 12 1 -1
v 12 1 -22
v 12 1 -23
v 12 2 -0
v 12 2 -1
v 12 2 -22
v 12 2 -23
v 12 4 -0
v 12 4 -1
v 12 5 -0
v 12 5 -1
v 12 5 -2
v 12 5 -22
v 12 6 -0
v 12 6 -1
v 12 6 -2
v 12 6 -16
v 12 6 -17
v 12 6 -20
v 12 6 -21
v 12 6 -22
v 12 7 -22
v 12 7 -23
v 12 8 -21
v 12 8 -22
v 12 9 -0
v 12 9 -1
v 12 9 -17
v 12 9 -19
v 12 9 -20
v 12 9 -21
v 12 9 -22
v 12 10 -17
v 12 10 -19
v 12 10 -20
v 12 12 -17
v 12 12 -19
v 12 12 -20
v 12 13 -17
v 12 13 -19
v 12 13 -20
v 12 13 -21
v 12 15 -1
v 12 15 -2
v 12 15 -16
v 12 15 -17
v 12 15 -20
v 12 15 -21
v 12 15 -22
v 12 16 -0
v 12 16 -1
v 12 16 -2
v 12 16 -16
v 12 16 -17
v 12 16 -20
v 12 16 -21
v 12 16 -22
v 12 18 -0
v 12 18 -1
v 12 18 -16
v 12 18 -17
v 12 18 -20
v 12 18 -21
v 12 18 -22
v 12 18 -23
v 13 6 -1
v 13 6 -2
v 13 6 -4
v 13 6 -16
v 13 6 -17
v 13 6 -20
v 13 6 -21
v 13 6 -22
v 13 7 -4
v 13 7 -10
v 13 7 -22
v 13 8 -1
v 13 8 -4
v 13 8 -10
v 13 8 -16
v 13 8 -17
v 13 8 -20
v 13 8 -21
v 13 8 -22
v 13 16 -1
v 13 16 -2
v 13 16 -4
v 13 16 -16
v 13 16 -17
v 13 16 -20
v 13 16 -21
v 13 16 -22
v 13 17 -4
v 13 17 -10
v 13 18 -0
v 13 18 -1
v 13 18 -4
v 13 18 -10
v 13 18 -16
v 13 18 -17
v 13 18 -20
v 13 18 -21
v 13 18 -22
v 13 18 -23
v 13 19 -0
v 13 19 -1
v 13 19 -22
v 13 19 -23
v 18 7 -4
v 18 7 -10
v 18 8 -4
v 18 8 -10
v 18 17 -4
v 18 17 -10
v 18 18 -4
v 18 18 -10
v 21 17 -0
v 21 17 -1
v 21 17 -22
v 21 17 -23
v 21 18 -0
v 21 18 -1
v 21 18 -22
v 21 18 -23
v 22 1 -0
v 22 1 -1
v 22 1 -22
v 22 1 -23
v 22 2 -0
v 22 2 -1
v 22 5 -0
v 22 5 -1
v 22 5 -22
v 22 5 -23
v 22 6 -0
v 22 6 -1
v 22 6 -22
v 22 6 -23
v 22 8 -0
v 22 8 -1
v 22 8 -22
v 22 8 -23
v 22 9 -0
v 22 9 -1
v 22 9 -22
v 22 9 -23
v 22 13 -22
v 22 13 -23
v 22 15 -0
v 22 15 -1
v 22 15 -22
v 22 15 -23
v 22 16 -0
v 22 16 -1
v 22 16 -22
v 22 16 -23
v 22 17 -0
v 22 17 -1
v 22 17 -22
v 22 17 -23
v 13 1 -0
v 13 1 -1
v 13 1 -22
v 13 1 -23
v 13 2 -0
v 13 2 -1
v 13 2 -22
v 13 2 -23
v 13 4 -0
v 13 4 -1
v 13 5 -0
v 13 5 -1
v 13 5 -22
v 13 5 -23
v 13 6 -0
v 13 6 -1
v 13 6 -22
v 13 6 -23
v 13 7 -22
v 13 7 -23
v 13 8 -0
v 13 8 -1
v 13 8 -16
v 13 8 -17
v 13 8 -20
v 13 8 -22
v 13 8 -23
v 13 9 -0
v 13 9 -1
v 13 9 -17
v 13 9 -19
v 13 9 -20
v 13 9 -21
v 13 9 -22
v 13 9 -23
v 13 10 -17
v 13 10 -19
v 13 10 -20
v 13 12 -17
v 13 12 -19
v 13 12 -20
v 13 13 -17
v 13 13 -19
v 13 13 -20
v 13 13 -21
v 13 15 -0
v 13 15 -1
v 13 15 -16
v 13 15 -17
v 13 15 -20
v 13 15 -21
v 13 15 -22
v 13 15 -23
v 13 16 -0
v 13 16 -1
v 13 16 -22
v 13 16 -23
v 13 17 -0
v 13 17 -1
v 13 17 -22
v 13 17 -23
v 14 17 -0
v 14 17 -1
v 14 17 -22
v 14 17 -23
v 14 18 -0
v 14 18 -1
v 14 18 -22
v 14 18 -23
v 22 6 -1
v 22 6 -4
v 22 6 -22
v 22 8 -1
v 22 8 -4
v 22 8 -22
v 22 16 -1
v 22 16 -2
v 22 16 -4
v 22 16 -22
v 22 18 -0
v 22 18 -1
v 22 18 -4
v 22 18 -22
v 22 18 -23
v 22 19 -0
v 22 19 -1
v 22 19 -22
v 22 19 -23
v 23 1 -0
v 23 1 -1
v 23 1 -22
v 23 1 -23
v 23 2 -0
v 23 2 -1
v 23 5 -1
v 23 5 -22
v 23 6 -1
v 23 6 -22
v 23 8 -22
v 23 8 -23
v 23 9 -0
v 23 9 -1
v 23 13 -22
v 23 13 -23
v 23 15 -1
v 23 15 -2
v 23 15 -22
v 23 16 -0
v 23 16 -1
v 23 16 -2
v 23 16 -22
v 23 18 -0
v 23 18 -1
v 23 18 -22
v 23 18 -23
v 12 1 -0
v 12 2 -0
v 12 4 -0
v 12 5 -0
v 12 6 -0
v 12 9 -0
v 12 16 -0
v 12 18 -0
v 13 1 -0
v 13 2 -0
v 13 4 -0
v 13 5 -0
v 13 6 -0
v 13 8 -0
v 13 9 -0
v 13 15 -0
v 13 16 -0
v 13 17 -0
v 13 18 -0
v 13 19 -0
v 14 17 -0
v 14 18 -0
v 21 17 -0
v 21 18 -0
v 22 1 -0
v 22 2 -0
v 22 5 -0
v 22 6 -0
v 22 8 -0
v 22 9 -0
v 22 15 -0
v 22 16 -0
v 22 17 -0
v 22 18 -0
v 22 19 -0
v 23 1 -0
v 23 2 -0
v 23 9 -0
v 23 16 -0
v 23 18 -0
v 13 6 -1
v 13 8 -1
v 13 16 -1
v 13 17 -1
v 14 17 -1
v 14 18 -1
v 21 17 -1
v 21 18 -1
v 22 6 -1
v 22 8 -1
v 22 16 -1
v 22 17 -1
v 13 7 -10
v 13 8 -10
v 13 17 -10
v 13 18 -10
v 18 7 -10
v 18 8 -10
v 18 17 -10
v 18 18 -10
v 12 6 -16
v 12 15 -16
v 12 16 -16
v 12 18 -16
v 13 6 -16
v 13 8 -16
v 13 15 -16
v 13 16 -16
v 13 18 -16
v 12 6 -20
v 12 9 -20
v 12 10 -20
v 12 12 -20
v 12 13 -20
v 12 15 -20
v 12 16 -20
v 12 18 -20
v 13 6 -20
v 13 8 -20
v 13 9 -20
v 13 10 -20
v 13 12 -20
v 13 13 -20
v 13 15 -20
v 13 16 -20
v 13 18 -20
v 12 1 -22
v 12 2 -22
v 12 5 -22
v 12 6 -22
v 12 7 -22
v 12 8 -22
v 12 9 -22
v 12 15 -22
v 12 16 -22
v 12 18 -22
v 13 1 -22
v 13 2 -22
v 13 5 -22
v 13 6 -22
v 13 7 -22
v 13 8 -22
v 13 9 -22
v 13 15 -22
v 13 16 -22
v 13 18 -22
v 13 19 -22
v 19 8 -22
v 19 9 -22
v 22 1 -22
v 22 5 -22
v 22 6 -22
v 22 8 -22
v 22 9 -22
v 22 13 -22
v 22 15 -22
v 22 16 -22
v 22 18 -22
v 22 19 -22
v 23 1 -22
v 23 5 -22
v 23 6 -22
v 23 8 -22
v 23 13 -22
v 23 15 -22
v 23 16 -22
v 23 18 -22
v 12 1 -1
v 12 2 -1
v 12 4 -1
v 12 5 -1
v 12 6 -1
v 12 9 -1
v 12 15 -1
v 12 16 -1
v 12 18 -1
v 13 1 -1
v 13 2 -1
v 13 4 -1
v 13 5 -1
v 13 6 -1
v 13 8 -1
v 13 9 -1
v 13 15 -1
v 13 16 -1
v 13 18 -1
v 13 19 -1
v 22 1 -1
v 22 2 -1
v 22 5 -1
v 22 6 -1
v 22 8 -1
v 22 9 -1
v 22 15 -1
v 22 16 -1
v 22 18 -1
v 22 19 -1
v 23 1 -1
v 23 2 -1
v 23 5 -1
v 23 6 -1
v 23 9 -1
v 23 15 -1
v 23 16 -1
v 23 18 -1
v 13 7 -4
v 13 8 -4
v 13 17 -4
v 13 18 -4
v 18 7 -4
v 18 8 -4
v 18 17 -4
v 18 18 -4
v 12 6 -17
v 12 9 -17
v 12 10 -17
v 12 12 -17
v 12 13 -17
v 12 15 -17
v 12 16 -17
v 12 18 -17
v 13 6 -17
v 13 8 -17
v 13 9 -17
v 13 10 -17
v 13 12 -17
v 13 13 -17
v 13 15 -17
v 13 16 -17
v 13 18 -17
v 12 6 -21
v 12 8 -21
v 12 9 -21
v 12 13 -21
v 12 15 -21
v 12 16 -21
v 12 18 -21
v 13 6 -21
v 13 8 -21
v 13 9 -21
v 13 13 -21
v 13 15 -21
v 13 16 -21
v 13 18 -21
v 13 6 -22
v 13 7 -22
v 13 8 -22
v 13 16 -22
v 13 17 -22
v 14 17 -22
v 14 18 -22
v 19 8 -22
v 21 17 -22
v 21 18 -22
v 22 6 -22
v 22 8 -22
v 22 16 -22
v 22 17 -22
v 12 1 -23
v 12 2 -23
v 12 7 -23
v 12 18 -23
v 13 1 -23
v 13 2 -23
v 13 5 -23
v 13 6 -23
v 13 7 -23
v 13 8 -23
v 13 9 -23
v 13 15 -23
v 13 16 -23
v 13 17 -23
v 13 18 -23
v 13 19 -23
v 14 17 -23
v 14 18 -23
v 19 8 -23
v 19 9 -23
v 21 17 -23
v 21 18 -23
v 22 1 -23
v 22 5 -23
v 22 6 -23
v 22 8 -23
v 22 9 -23
v 22 13 -23
v 22 15 -23
v 22 16 -23
v 22 17 -23
v 22 18 -23
v 22 19 -23
v 23 1 -23
v 23 8 -23
v 23 13 -23
v 23 18 -23
v 12 1 -0
v 13 1 -0
v 22 1 -0
v 23 1 -0
v 12 1 -1
v 13 1 -1
v 22 1 -1
v 23 1 -1
v 12 1 -22
v 13 1 -22
v 22 1 -22
v 23 1 -22
v 12 1 -23
v 13 1 -23
v 22 1 -23
v 23 1 -23
v 13 5 -0
v 22 5 -0
v 12 5 -1
v 13 5 -1
v 22 5 -1
v 23 5 -1
v 12 5 -2
v 13 5 -2
v 12 5 -22
v 13 5 -22
v 22 5 -22
v 23 5 -22
v 13 5 -23
v 22 5 -23
v 13 8 -0
v 22 8 -0
v 13 8 -1
v 22 8 -1
v 12 8 -21
v 13 8 -21
v 12 8 -22
v 13 8 -22
v 19 8 -22
v 22 8 -22
v 13 8 -23
v 19 8 -23
v 22 8 -23
v 12 9 -17
v 13 9 -17
v 12 9 -19
v 13 9 -19
v 12 9 -20
v 13 9 -20
v 12 12 -17
v 13 12 -17
v 12 12 -19
v 13 12 -19
v 12 12 -20
v 13 12 -20
v 13 15 -0
v 22 15 -0
v 12 15 -1
v 13 15 -1
v 22 15 -1
v 23 15 -1
v 12 15 -2
v 23 15 -2
v 12 15 -16
v 13 15 -16
v 12 15 -17
v 13 15 -17
v 12 15 -20
v 13 15 -20
v 12 15 -21
v 13 15 -21
v 12 15 -22
v 13 15 -22
v 22 15 -22
v 23 15 -22
v 13 15 -23
v 22 15 -23
v 13 17 -0
v 14 17 -0
v 21 17 -0
v 22 17 -0
v 13 17 -1
v 14 17 -1
v 21 17 -1
v 22 17 -1
v 13 17 -22
v 14 17 -22
v 21 17 -22
v 22 17 -22
v 13 17 -23
v 14 17 -23
v 21 17 -23
v 22 17 -23
v 14 18 -0
v 21 18 -0
v 14 18 -1
v 21 18 -1
v 14 18 -22
v 21 18 -22
v 14 18 -23
v 21 18 -23
v 13 6 -0
v 22 6 -0
v 12 6 -1
v 13 6 -1
v 22 6 -1
v 23 6 -1
v 12 6 -2
v 13 6 -2
v 13 6 -4
v 22 6 -4
v 12 6 -16
v 13 6 -16
v 12 6 -17
v 13 6 -17
v 12 6 -20
v 13 6 -20
v 12 6 -21
v 13 6 -21
v 12 6 -22
v 13 6 -22
v 22 6 -22
v 23 6 -22
v 13 6 -23
v 22 6 -23
v 13 7 -4
v 18 7 -4
v 13 7 -10
v 18 7 -10
v 13 8 -1
v 22 8 -1
v 13 8 -4
v 18 8 -4
v 22 8 -4
v 13 8 -10
v 18 8 -10
v 13 8 -16
v 13 8 -17
v 13 8 -20
v 13 8 -22
v 19 8 -22
v 22 8 -22
v 13 9 -0
v 22 9 -0
v 13 9 -1
v 22 9 -1
v 12 9 -21
v 13 9 -21
v 12 9 -22
v 13 9 -22
v 19 9 -22
v 22 9 -22
v 13 9 -23
v 19 9 -23
v 22 9 -23
v 12 10 -17
v 13 10 -17
v 12 10 -19
v 13 10 -19
v 12 10 -20
v 13 10 -20
v 12 13 -17
v 13 13 -17
v 12 13 -19
v 13 13 -19
v 12 13 -20
v 13 13 -20
v 13 16 -0
v 22 16 -0
v 12 16 -1
v 13 16 -1
v 22 16 -1
v 23 16 -1
v 12 16 -2
v 13 16 -2
v 22 16 -2
v 23 16 -2
v 13 16 -4
v 22 16 -4
v 12 16 -16
v 13 16 -16
v 12 16 -17
v 13 16 -17
v 12 16 -20
v 13 16 -20
v 12 16 -21
v 13 16 -21
v 12 16 -22
v 13 16 -22
v 22 16 -22
v 23 16 -22
v 13 16 -23
v 22 16 -23
v 13 17 -4
v 18 17 -4
v 13 17 -10
v 18 17 -10
v 12 18 -0
v 13 18 -0
v 22 18 -0
v 23 18 -0
v 12 18 -1
v 13 18 -1
v 22 18 -1
v 23 18 -1
v 13 18 -4
v 18 18 -4
v 22 18 -4
v 13 18 -10
v 18 18 -10
v 12 18 -16
v 13 18 -16
v 12 18 -17
v 13 18 -17
v 12 18 -20
v 13 18 -20
v 12 18 -21
v 13 18 -21
v 12 18 -22
v 13 18 -22
v 22 18 -22
v 23 18 -22
v 12 18 -23
v 13 18 -23
v 22 18 -23
v 23 18 -23
v 13 19 -0
v 22 19 -0
v 13 19 -1
v 22 19 -1
v 13 19 -22
v 22 19 -22
v 13 19 -23
v 22 19 -23

# faces
f 5/4/1 2/4/1 1/4/1
f 6/4/1 2/4/1 5/4/1
f 7/4/1 4/4/1 3/4/1
f 8/4/1 4/4/1 7/4/1
f 9/1/1 6/1/1 5/1/1
f 10/1/1 6/1/1 9/1/1
f 11/4/1 10/4/1 9/4/1
f 12/4/1 10/4/1 11/4/1
f 14/1/1 8/1/1 7/1/1
f 15/1/1 13/1/1 12/1/1
f 15/1/1 12/1/1 11/1/1
f 16/1/1 13/1/1 15/1/1
f 17/4/1 14/4/1 13/4/1
f 17/1/1 13/1/1 16/1/1
f 18/4/1 14/4/1 17/4/1
f 19/4/1 14/4/1 18/4/1
f 20/4/1 14/4/1 19/4/1
f 21/4/1 14/4/1 20/4/1
f 22/1/1 8/1/1 14/1/1
f 22/4/1 14/4/1 21/4/1
f 23/1/1 8/1/1 22/1/1
f 24/1/1 8/1/1 23/1/1
f 25/4/1 21/4/1 20/4/1
f 26/4/1 24/4/1 23/4/1
f 27/4/1 16/4/1 15/4/1
f 28/4/1 16/4/1 27/4/1
f 29/4/1 19/4/1 18/4/1
f 31/4/1 26/4/1 25/4/1
f 31/4/1 25/4/1 20/4/1
f 32/4/1 26/4/1 31/4/1
f 33/4/1 24/4/1 26/4/1
f 33/4/1 26/4/1 32/4/1
f 34/4/1 30/4/1 29/4/1
f 34/4/1 29/4/1 18/4/1
f 35/1/1 31/1/1 30/1/1
f 35/4/1 30/4/1 34/4/1
f 35/1/1 32/1/1 31/1/1
f 36/1/1 32/1/1 35/1/1
f 37/4/1 34/4/1 18/4/1
f 39/1/1 32/1/1 36/1/1
f 40/4/1 38/4/1 37/4/1
f 40/4/1 37/4/1 18/4/1
f 41/1/1 39/1/1 38/1/1
f 41/4/1 38/4/1 40/4/1
f 42/1/1 32/1/1 39/1/1
f 42/1/1 39/1/1 41/1/1
f 43/1/1 32/1/1 42/1/1
f 44/1/1 28/1/1 27/1/1
f 46/4/1 40/4/1 18/4/1
f 47/4/1 40/4/1 46/4/1
f 48/4/1 43/4/1 42/4/1
f 49/4/1 43/4/1 48/4/1
f 50/4/1 24/4/1 33/4/1
f 51/1/1 45/1/1 44/1/1
f 51/1/1 44/1/1 27/1/1
f 52/1/1 45/1/1 51/1/1
f 53/4/1 49/4/1 48/4/1
f 53/1/1 45/1/1 52/1/1
f 53/4/1 48/4/1 47/4/1
f 53/4/1 50/4/1 49/4/1
f 53/4/1 47/4/1 46/4/1
f 53/4/1 46/4/1 45/4/1
f 54/4/1 50/4/1 53/4/1
f 55/4/1 50/4/1 54/4/1
f 56/4/1 50/4/1 55/4/1
f 57/4/1 50/4/1 56/4/1
f 58/4/1 24/4/1 50/4/1
f 58/4/1 50/4/1 57/4/1
f 59/4/1 52/4/1 51/4/1
f 60/4/1 52/4/1 59/4/1
f 61/4/1 55/4/1 54/4/1
f 62/4/1 55/4/1 61/4/1
f 63/4/1 57/4/1 56/4/1
f 64/4/1 57/4/1 63/4/1
f 65/4/1 24/4/1 58/4/1
f 66/4/1 24/4/1 65/4/1
f 75/3/1 68/3/1 67/3/1
f 75/3/1 69/3/1 68/3/1
f 75/2/1 70/2/1 69/2/1
f 76/2/1 70/2/1 75/2/1
f 77/2/1 74/2/1 73/2/1
f 78/3/1 75/3/1 67/3/1
f 79/3/1 75/3/1 78/3/1
f 80/2/1 70/2/1 76/2/1
f 81/2/1 70/2/1 80/2/1
f 82/2/1 72/2/1 71/2/1
f 83/2/1 72/2/1 82/2/1
f 84/2/1 77/2/1 73/2/1
f 85/2/1 77/2/1 84/2/1
f 94/3/1 87/3/1 86/3/1
f 94/3/1 88/3/1 87/3/1
f 94/2/1 89/2/1 88/2/1
f 95/2/1 89/2/1 94/2/1
f 97/3/1 94/3/1 86/3/1
f 98/3/1 94/3/1 97/3/1
f 99/2/1 89/2/1 95/2/1
f 100/2/1 89/2/1 99/2/1
f 101/2/1 91/2/1 90/2/1
f 102/2/1 91/2/1 101/2/1
f 103/2/1 93/2/1 92/2/1
f 104/2/1 93/2/1 103/2/1
f 106/4/1 97/4/1 96/4/1
f 107/4/1 97/4/1 106/4/1
f 108/4/1 105/4/1 104/4/1
f 109/4/1 105/4/1 108/4/1
f 112/2/1 111/2/1 110/2/1
f 113/2/1 111/2/1 112/2/1
f 116/2/1 115/2/1 114/2/1
f 117/2/1 115/2/1 116/2/1
f 122/4/1 119/4/1 118/4/1
f 123/4/1 119/4/1 122/4/1
f 124/4/1 121/4/1 120/4/1
f 125/4/1 121/4/1 124/4/1
f 130/5/1 127/5/1 126/5/1
f 131/5/1 127/5/1 130/5/1
f 132/4/1 131/4/1 130/4/1
f 133/4/1 131/4/1 132/4/1
f 134/4/1 129/4/1 128/4/1
f 135/4/1 129/4/1 134/4/1
f 140/4/1 137/4/1 136/4/1
f 141/4/1 137/4/1 140/4/1
f 142/4/1 139/4/1 138/4/1
f 143/4/1 139/4/1 142/4/1
f 148/1/1 147/1/1 146/1/1
f 149/1/1 147/1/1 148/1/1
f 150/1/1 145/1/1 144/1/1
f 151/1/1 145/1/1 150/1/1
f 152/4/1 149/4/1 148/4/1
f 153/4/1 149/4/1 152/4/1
f 158/4/1 155/4/1 154/4/1
f 159/4/1 155/4/1 158/4/1
f 160/4/1 157/4/1 156/4/1
f 161/4/1 157/4/1 160/4/1
f 162/4/2 163/4/2 166/4/2
f 166/4/2 163/4/2 167/4/2
f 164/4/2 165/4/2 168/4/2
f 168/4/2 165/4/2 169/4/2
f 166/1/2 167/1/2 170/1/2
f 170/1/2 167/1/2 171/1/2
f 170/4/2 171/4/2 172/4/2
f 172/4/2 171/4/2 173/4/2
f 168/1/2 169/1/2 174/1/2
f 174/1/2 169/1/2 175/1/2
f 178/1/2 179/1/2 180/1/2
f 180/1/2 179/1/2 181/1/2
f 176/4/2 177/4/2 182/4/2
f 182/4/2 177/4/2 183/4/2
f 180/4/2 181/4/2 187/4/2
f 187/4/2 181/4/2 188/4/2
f 184/4/2 185/4/2 191/4/2
f 186/4/2 187/4/2 193/4/2
f 193/4/2 187/4/2 194/4/2
f 194/4/2 187/4/2 195/4/2
f 191/4/2 192/4/2 197/4/2
f 184/4/2 191/4/2 197/4/2
f 193/1/2 194/1/2 198/1/2
f 197/4/2 192/4/2 198/4/2
f 192/1/2 193/1/2 198/1/2
f 198/1/2 194/1/2 199/1/2
f 184/4/2 197/4/2 200/4/2
f 199/1/2 194/1/2 202/1/2
f 200/4/2 201/4/2 203/4/2
f 184/4/2 200/4/2 203/4/2
f 201/1/2 202/1/2 204/1/2
f 203/4/2 201/4/2 204/4/2
f 202/1/2 194/1/2 205/1/2
f 204/1/2 202/1/2 205/1/2
f 205/1/2 194/1/2 206/1/2
f 189/1/2 190/1/2 207/1/2
f 207/1/2 190/1/2 208/1/2
f 184/4/2 203/4/2 209/4/2
f 209/4/2 203/4/2 210/4/2
f 205/4/2 206/4/2 211/4/2
f 211/4/2 206/4/2 212/4/2
f 195/4/2 196/4/2 213/4/2
f 213/4/2 196/4/2 214/4/2
f 215/4/2 216/4/2 219/4/2
f 219/4/2 216/4/2 220/4/2
f 217/4/2 218/4/2 221/4/2
f 221/4/2 218/4/2 222/4/2
f 223/4/2 224/4/2 227/4/2
f 227/4/2 224/4/2 228/4/2
f 225/4/2 226/4/2 229/4/2
f 229/4/2 226/4/2 230/4/2
f 231/3/2 232/3/2 234/3/2
f 232/2/2 233/2/2 235/2/2
f 234/3/2 232/3/2 235/3/2
f 235/2/2 233/2/2 236/2/2
f 237/3/2 238/3/2 242/3/2
f 238/3/2 239/3/2 242/3/2
f 239/2/2 240/2/2 243/2/2
f 242/3/2 239/3/2 243/3/2
f 243/2/2 240/2/2 244/2/2
f 241/4/2 242/4/2 246/4/2
f 246/4/2 242/4/2 247/4/2
f 244/4/2 245/4/2 248/4/2
f 248/4/2 245/4/2 249/4/2
f 250/5/2 251/5/2 254/5/2
f 254/5/2 251/5/2 255/5/2
f 254/4/2 255/4/2 256/4/2
f 252/4/2 253/4/2 257/4/2
f 254/4/2 256/4/2 258/4/2
f 256/4/2 257/4/2 258/4/2
f 257/4/2 253/4/2 259/4/2
f 258/4/2 257/4/2 259/4/2
f 259/4/2 253/4/2 260/4/2
f 260/4/2 253/4/2 261/4/2
f 254/4/2 258/4/2 262/4/2
f 262/4/2 258/4/2 263/4/2
f 260/1/2 261/1/2 264/1/2
f 264/1/2 261/1/2 265/1/2
f 262/1/2 263/1/2 266/1/2
f 264/4/2 265/4/2 268/4/2
f 266/1/2 267/1/2 269/1/2
f 262/1/2 266/1/2 269/1/2
f 269/1/2 267/1/2 270/1/2
f 267/4/2 268/4/2 271/4/2
f 270/1/2 267/1/2 271/1/2
f 268/4/2 265/4/2 272/4/2
f 271/4/2 268/4/2 272/4/2
f 269/4/2 270/4/2 273/4/2
f 273/4/2 270/4/2 274/4/2
f 272/4/2 265/4/2 275/4/2
f 275/4/2 265/4/2 276/4/2
f 285/4/3 278/4/3 277/4/3
f 286/1/3 279/1/3 278/1/3
f 286/4/3 278/4/3 285/4/3
f 287/4/3 280/4/3 279/4/3
f 287/1/3 279/1/3 286/1/3
f 288/1/3 281/1/3 280/1/3
f 288/4/3 280/4/3 287/4/3
f 289/4/3 282/4/3 281/4/3
f 289/1/3 281/1/3 288/1/3
f 290/4/3 282/4/3 289/4/3
f 291/1/3 283/1/3 282/1/3
f 291/4/3 282/4/3 290/4/3
f 292/1/3 283/1/3 291/1/3
f 293/4/3 284/4/3 283/4/3
f 293/1/3 283/1/3 292/1/3
f 294/4/3 284/4/3 293/4/3
f 295/4/3 284/4/3 294/4/3
f 297/4/3 296/4/3 295/4/3
f 297/4/3 295/4/3 294/4/3
f 298/4/3 296/4/3 297/4/3
f 300/4/3 296/4/3 298/4/3
f 303/4/3 289/4/3 288/4/3
f 304/4/3 289/4/3 303/4/3
f 305/4/3 291/4/3 290/4/3
f 306/4/3 291/4/3 305/4/3
f 307/1/3 293/1/3 292/1/3
f 308/1/3 293/1/3 307/1/3
f 309/4/3 300/4/3 299/4/3
f 310/4/3 296/4/3 300/4/3
f 310/4/3 300/4/3 309/4/3
f 311/4/3 296/4/3 310/4/3
f 312/5/3 302/5/3 301/5/3
f 313/4/3 306/4/3 305/4/3
f 313/5/3 302/5/3 312/5/3
f 313/4/3 304/4/3 303/4/3
f 313/4/3 303/4/3 302/4/3
f 313/4/3 305/4/3 304/4/3
f 314/1/3 308/1/3 307/1/3
f 314/4/3 306/4/3 313/4/3
f 314/1/3 307/1/3 306/1/3
f 315/4/3 310/4/3 309/4/3
f 315/1/3 308/1/3 314/1/3
f 315/4/3 309/4/3 308/4/3
f 316/4/3 310/4/3 315/4/3
f 321/3/3 320/3/3 319/3/3
f 323/3/3 321/3/3 319/3/3
f 323/3/3 322/3/3 321/3/3
f 324/3/3 322/3/3 323/3/3
f 325/3/3 318/3/3 317/3/3
f 326/3/3 318/3/3 325/3/3
f 327/3/3 323/3/3 319/3/3
f 328/3/3 323/3/3 327/3/3
f 333/2/3 330/2/3 329/2/3
f 334/2/3 330/2/3 333/2/3
f 335/2/3 332/2/3 331/2/3
f 336/2/3 332/2/3 335/2/3
f 341/4/3 338/4/3 337/4/3
f 342/4/3 338/4/3 341/4/3
f 343/4/3 338/4/3 342/4/3
f 344/4/3 340/4/3 339/4/3
f 345/4/3 340/4/3 344/4/3
f 354/4/3 347/4/3 346/4/3
f 355/4/3 347/4/3 354/4/3
f 356/4/3 347/4/3 355/4/3
f 357/1/3 349/1/3 348/1/3
f 358/1/3 349/1/3 357/1/3
f 359/4/3 351/4/3 350/4/3
f 360/4/3 351/4/3 359/4/3
f 361/4/3 353/4/3 352/4/3
f 362/4/3 353/4/3 361/4/3
f 373/4/3 364/4/3 363/4/3
f 374/1/3 365/1/3 364/1/3
f 374/4/3 364/4/3 373/4/3
f 375/1/3 365/1/3 374/1/3
f 376/1/3 367/1/3 366/1/3
f 377/4/3 368/4/3 367/4/3
f 377/1/3 367/1/3 376/1/3
f 378/4/3 368/4/3 377/4/3
f 379/4/3 370/4/3 369/4/3
f 380/4/3 370/4/3 379/4/3
f 381/4/3 372/4/3 371/4/3
f 382/4/3 372/4/3 381/4/3
f 384/4/3 379/4/3 378/4/3
f 385/4/3 379/4/3 384/4/3
f 389/1/3 385/1/3 384/1/3
f 390/1/3 385/1/3 389/1/3
f 394/4/3 383/4/3 382/4/3
f 395/4/3 383/4/3 394/4/3
f 396/4/3 387/4/3 386/4/3
f 397/4/3 387/4/3 396/4/3
f 398/4/3 389/4/3 388/4/3
f 399/1/3 390/1/3 389/1/3
f 399/4/3 389/4/3 398/4/3
f 399/1/3 391/1/3 390/1/3
f 400/4/3 392/4/3 391/4/3
f 400/1/3 391/1/3 399/1/3
f 401/4/3 392/4/3 400/4/3
f 402/4/3 394/4/3 393/4/3
f 403/4/3 394/4/3 402/4/3
f 404/4/4 405/4/4 413/4/4
f 405/1/4 406/1/4 414/1/4
f 413/4/4 405/4/4 414/4/4
f 406/4/4 407/4/4 415/4/4
f 414/1/4 406/1/4 415/1/4
f 415/4/4 407/4/4 416/4/4
f 408/4/4 409/4/4 417/4/4
f 417/4/4 409/4/4 418/4/4
f 409/1/4 410/1/4 419/1/4
f 418/4/4 409/4/4 419/4/4
f 419/1/4 410/1/4 420/1/4
f 411/4/4 412/4/4 421/4/4
f 421/4/4 412/4/4 422/4/4
f 418/4/4 419/4/4 428/4/4
f 428/4/4 419/4/4 429/4/4
f 422/4/4 423/4/4 432/4/4
f 432/4/4 423/4/4 433/4/4
f 424/5/4 425/5/4 434/5/4
f 425/4/4 426/4/4 435/4/4
f 434/5/4 425/5/4 435/5/4
f 435/4/4 426/4/4 436/4/4
f 427/4/4 428/4/4 437/4/4
f 428/4/4 429/4/4 437/4/4
f 429/1/4 430/1/4 438/1/4
f 437/4/4 429/4/4 438/4/4
f 438/1/4 430/1/4 439/1/4
f 431/4/4 432/4/4 440/4/4
f 440/4/4 432/4/4 441/4/4
f 442/3/4 443/3/4 446/3/4
f 446/3/4 443/3/4 447/3/4
f 444/3/4 445/3/4 448/3/4
f 448/3/4 445/3/4 449/3/4
f 450/4/4 451/4/4 458/4/4
f 458/4/4 451/4/4 459/4/4
f 459/4/4 451/4/4 460/4/4
f 452/4/4 453/4/4 461/4/4
f 461/4/4 453/4/4 462/4/4
f 454/4/4 455/4/4 463/4/4
f 463/4/4 455/4/4 464/4/4
f 456/4/4 457/4/4 465/4/4
f 465/4/4 457/4/4 466/4/4
f 467/4/4 468/4/4 474/4/4
f 474/4/4 468/4/4 475/4/4
f 469/1/4 470/1/4 476/1/4
f 470/4/4 471/4/4 477/4/4
f 476/1/4 470/1/4 477/1/4
f 477/4/4 471/4/4 478/4/4
f 472/4/4 473/4/4 479/4/4
f 479/4/4 473/4/4 480/4/4
f 484/2/4 485/2/4 486/2/4
f 481/2/4 482/2/4 488/2/4
f 482/2/4 483/2/4 488/2/4
f 486/2/4 487/2/4 489/2/4
f 484/2/4 486/2/4 489/2/4
f 489/2/4 487/2/4 490/2/4
f 481/2/4 488/2/4 491/2/4
f 491/2/4 488/2/4 492/2/4
f 484/2/4 489/2/4 493/2/4
f 493/2/4 489/2/4 494/2/4
f 495/4/4 496/4/4 499/4/4
f 496/1/4 497/1/4 500/1/4
f 499/4/4 496/4/4 500/4/4
f 500/1/4 497/1/4 501/1/4
f 501/1/4 497/1/4 502/1/4
f 497/4/4 498/4/4 503/4/4
f 502/1/4 497/1/4 503/1/4
f 503/4/4 498/4/4 504/4/4
f 504/4/4 498/4/4 505/4/4
f 505/4/4 498/4/4 506/4/4
f 506/4/4 498/4/4 507/4/4
f 507/4/4 498/4/4 508/4/4
f 508/4/4 498/4/4 509/4/4
f 509/4/4 510/4/4 511/4/4
f 508/4/4 509/4/4 511/4/4
f 511/4/4 510/4/4 512/4/4
f 504/4/4 505/4/4 513/4/4
f 513/4/4 505/4/4 514/4/4
f 512/4/4 510/4/4 516/4/4
f 501/4/4 502/4/4 518/4/4
f 518/4/4 502/4/4 519/4/4
f 513/1/4 514/1/4 520/1/4
f 520/1/4 514/1/4 521/1/4
f 506/4/4 507/4/4 523/4/4
f 523/4/4 507/4/4 524/4/4
f 515/4/4 516/4/4 525/4/4
f 516/4/4 510/4/4 526/4/4
f 525/4/4 516/4/4 526/4/4
f 526/4/4 510/4/4 527/4/4
f 518/4/4 519/4/4 528/4/4
f 517/4/4 518/4/4 528/4/4
f 519/4/4 520/4/4 528/4/4
f 521/1/4 522/1/4 529/1/4
f 528/4/4 520/4/4 529/4/4
f 520/1/4 521/1/4 529/1/4
f 523/4/4 524/4/4 530/4/4
f 529/1/4 522/1/4 530/1/4
f 524/4/4 525/4/4 530/4/4
f 525/4/4 526/4/4 530/4/4
f 522/4/4 523/4/4 530/4/4
f 530/4/4 526/4/4 531/4/4
f 536/4/5 533/4/5 532/4/5
f 537/4/5 533/4/5 536/4/5
f 538/5/5 535/5/5 534/5/5
f 539/5/5 535/5/5 538/5/5
f 544/4/5 541/4/5 540/4/5
f 545/4/5 541/4/5 544/4/5
f 546/4/5 543/4/5 542/4/5
f 547/4/5 543/4/5 546/4/5
f 551/4/5 549/4/5 548/4/5
f 552/4/5 549/4/5 551/4/5
f 554/1/5 551/1/5 550/1/5
f 555/4/5 553/4/5 552/4/5
f 555/1/5 551/1/5 554/1/5
f 555/4/5 552/4/5 551/4/5
f 556/4/5 555/4/5 554/4/5
f 557/4/5 553/4/5 555/4/5
f 557/4/5 555/4/5 556/4/5
f 558/4/5 553/4/5 557/4/5
f 559/4/5 553/4/5 558/4/5
f 560/4/5 558/4/5 557/4/5
f 561/4/5 558/4/5 560/4/5
f 564/4/5 563/4/5 562/4/5
f 565/4/5 563/4/5 564/4/5
f 568/4/5 567/4/5 566/4/5
f 569/4/5 567/4/5 568/4/5
f 572/4/5 570/4/5 569/4/5
f 573/1/5 571/1/5 570/1/5
f 573/4/5 570/4/5 572/4/5
f 574/1/5 571/1/5 573/1/5
f 577/4/5 576/4/5 575/4/5
f 578/4/5 576/4/5 577/4/5
f 579/1/5 578/1/5 577/1/5
f 580/1/5 578/1/5 579/1/5
f 583/4/5 582/4/5 581/4/5
f 584/4/5 582/4/5 583/4/5
f 585/1/5 584/1/5 583/1/5
f 586/1/5 584/1/5 585/1/5
f 590/1/5 588/1/5 587/1/5
f 591/1/5 588/1/5 590/1/5
f 593/1/5 590/1/5 589/1/5
f 593/1/5 592/1/5 591/1/5
f 593/1/5 591/1/5 590/1/5
f 594/1/5 592/1/5 593/1/5
f 595/4/5 594/4/5 593/4/5
f 596/4/5 594/4/5 595/4/5
f 598/4/5 594/4/5 596/4/5
f 599/4/5 598/4/5 597/4/5
f 600/4/5 594/4/5 598/4/5
f 600/4/5 598/4/5 599/4/5
f 602/4/5 594/4/5 600/4/5
f 603/4/5 602/4/5 601/4/5
f 604/4/5 594/4/5 602/4/5
f 604/4/5 602/4/5 603/4/5
f 605/4/5 594/4/5 604/4/5
f 606/4/5 594/4/5 605/4/5
f 607/4/5 605/4/5 604/4/5
f 608/4/5 605/4/5 607/4/5
f 613/4/5 610/4/5 609/4/5
f 614/4/5 610/4/5 613/4/5
f 615/4/5 612/4/5 611/4/5
f 616/4/5 612/4/5 615/4/5
f 621/4/5 618/4/5 617/4/5
f 622/4/5 618/4/5 621/4/5
f 623/4/5 620/4/5 619/4/5
f 624/4/5 620/4/5 623/4/5
f 627/4/5 626/4/5 625/4/5
f 628/4/5 626/4/5 627/4/5
f 631/4/5 630/4/5 629/4/5
f 632/4/5 630/4/5 631/4/5
f 633/4/6 634/4/6 636/4/6
f 636/4/6 634/4/6 637/4/6
f 635/1/6 636/1/6 639/1/6
f 639/1/6 636/1/6 640/1/6
f 639/4/6 640/4/6 641/4/6
f 637/4/6 638/4/6 642/4/6
f 639/4/6 641/4/6 643/4/6
f 643/4/6 641/4/6 644/4/6
f 645/4/6 646/4/6 647/4/6
f 647/4/6 646/4/6 648/4/6
f 649/4/6 650/4/6 651/4/6
f 651/4/6 650/4/6 652/4/6
f 642/4/6 638/4/6 653/4/6
f 653/4/6 638/4/6 654/4/6
f 652/4/6 653/4/6 655/4/6
f 655/4/6 653/4/6 656/4/6
f 657/2/6 658/2/6 659/2/6
f 659/2/6 658/2/6 660/2/6
f 661/3/6 662/3/6 663/3/6
f 663/3/6 662/3/6 664/3/6
f 664/3/6 662/3/6 665/3/6
f 664/2/6 665/2/6 667/2/6
f 666/2/6 667/2/6 668/2/6
f 668/2/6 667/2/6 669/2/6
f 669/2/6 667/2/6 670/2/6
f 670/2/6 667/2/6 671/2/6
f 667/2/6 665/2/6 672/2/6
f 671/2/6 667/2/6 672/2/6
f 672/2/6 665/2/6 673/2/6
f 674/4/6 675/4/6 676/4/6
f 676/4/6 675/4/6 677/4/6
f 678/4/6 679/4/6 680/4/6
f 680/4/6 679/4/6 681/4/6
f 681/4/6 682/4/6 684/4/6
f 682/1/6 683/1/6 685/1/6
f 684/4/6 682/4/6 685/4/6
f 685/1/6 683/1/6 686/1/6
f 687/4/6 688/4/6 689/4/6
f 689/4/6 688/4/6 690/4/6
f 689/1/6 690/1/6 691/1/6
f 691/1/6 690/1/6 692/1/6
f 693/4/6 694/4/6 695/4/6
f 695/4/6 694/4/6 696/4/6
f 695/1/6 696/1/6 697/1/6
f 697/1/6 696/1/6 698/1/6
f 699/1/6 700/1/6 702/1/6
f 702/1/6 700/1/6 703/1/6
f 701/1/6 702/1/6 705/1/6
f 705/1/6 702/1/6 706/1/6
f 703/1/6 704/1/6 707/1/6
f 707/1/6 704/1/6 708/1/6
f 705/4/6 706/4/6 709/4/6
f 707/4/6 708/4/6 710/4/6
f 705/4/6 709/4/6 711/4/6
f 711/4/6 709/4/6 712/4/6
f 713/4/6 714/4/6 715/4/6
f 715/4/6 714/4/6 716/4/6
f 717/4/6 718/4/6 719/4/6
f 719/4/6 718/4/6 720/4/6
f 710/4/6 708/4/6 721/4/6
f 721/4/6 708/4/6 722/4/6
f 720/4/6 721/4/6 723/4/6
f 723/4/6 721/4/6 724/4/6
f 725/2/6 726/2/6 727/2/6
f 727/2/6 726/2/6 728/2/6
f 729/4/6 730/4/6 733/4/6
f 733/4/6 730/4/6 734/4/6
f 731/4/6 732/4/6 735/4/6
f 735/4/6 732/4/6 736/4/6
f 734/3/6 735/3/6 737/3/6
f 737/3/6 735/3/6 738/3/6
f 738/3/6 735/3/6 739/3/6
f 738/2/6 739/2/6 741/2/6
f 740/2/6 741/2/6 743/2/6
f 742/4/6 743/4/6 744/4/6
f 743/2/6 741/2/6 745/2/6
f 744/4/6 743/4/6 745/4/6
f 745/2/6 741/2/6 747/2/6
f 746/4/6 747/4/6 748/4/6
f 747/2/6 741/2/6 749/2/6
f 748/4/6 747/4/6 749/4/6
f 749/2/6 741/2/6 751/2/6
f 741/2/6 739/2/6 752/2/6
f 751/2/6 741/2/6 752/2/6
f 750/4/6 751/4/6 754/4/6
f 754/4/6 751/4/6 755/4/6
f 752/4/6 753/4/6 756/4/6
f 756/4/6 753/4/6 757/4/6
f 758/4/6 759/4/6 760/4/6
f 760/4/6 759/4/6 761/4/6
f 762/4/6 763/4/6 764/4/6
f 764/4/6 763/4/6 765/4/6
