# MagicaVoxel @ Ephtracy

# material
mtllib Bench.mtl
usemtl palette

# normals
vn -1 0 0
vn 1 0 0
vn 0 0 1
vn 0 0 -1
vn 0 -1 0
vn 0 1 0

# texcoords
vt 0.0332031 0.5
vt 0.994141 0.5

# verts
v -23 0 6
v -23 0 -3
v -23 1 5
v -23 1 -2
v -23 8 6
v -23 8 5
v -23 8 -2
v -23 8 -3
v -23 9 6
v -23 9 -3
v -20 8 6
v -20 8 5
v -20 8 -2
v -20 8 -3
v -20 9 6
v -20 9 -3
v -17 8 6
v -17 8 5
v -17 8 -2
v -17 8 -3
v -17 9 6
v -17 9 -3
v -14 8 6
v -14 8 5
v -14 8 -2
v -14 8 -3
v -14 9 6
v -14 9 -3
v -11 8 6
v -11 8 5
v -11 8 -2
v -11 8 -3
v -11 9 6
v -11 9 -3
v -8 8 6
v -8 8 5
v -8 8 -2
v -8 8 -3
v -8 9 6
v -8 9 -3
v -5 8 6
v -5 8 5
v -5 8 -2
v -5 8 -3
v -5 9 6
v -5 9 -3
v -2 8 6
v -2 8 5
v -2 8 -2
v -2 8 -3
v -2 9 6
v -2 9 -3
v 1 8 6
v 1 8 5
v 1 8 -2
v 1 8 -3
v 1 9 6
v 1 9 -3
v 4 8 6
v 4 8 5
v 4 8 -2
v 4 8 -3
v 4 9 6
v 4 9 -3
v 7 8 6
v 7 8 5
v 7 8 -2
v 7 8 -3
v 7 9 6
v 7 9 -3
v 10 8 6
v 10 8 5
v 10 8 -2
v 10 8 -3
v 10 9 6
v 10 9 -3
v 13 8 6
v 13 8 5
v 13 8 -2
v 13 8 -3
v 13 9 6
v 13 9 -3
v 16 8 6
v 16 8 5
v 16 8 -2
v 16 8 -3
v 16 9 6
v 16 9 -3
v 19 8 6
v 19 8 5
v 19 8 -2
v 19 8 -3
v 19 9 6
v 19 9 -3
v 22 8 6
v 22 8 5
v 22 8 -2
v 22 8 -3
v 22 9 6
v 22 9 -3
v 23 0 6
v 23 0 -3
v 23 1 5
v 23 1 -2
v 23 7 6
v 23 7 5
v 23 7 -2
v 23 7 -3
v -22 0 6
v -22 0 -3
v -22 1 5
v -22 1 -2
v -22 7 6
v -22 7 5
v -22 7 -2
v -22 7 -3
v -21 8 6
v -21 8 5
v -21 8 -2
v -21 8 -3
v -21 9 6
v -21 9 -3
v -18 8 6
v -18 8 5
v -18 8 -2
v -18 8 -3
v -18 9 6
v -18 9 -3
v -15 8 6
v -15 8 5
v -15 8 -2
v -15 8 -3
v -15 9 6
v -15 9 -3
v -12 8 6
v -12 8 5
v -12 8 -2
v -12 8 -3
v -12 9 6
v -12 9 -3
v -9 8 6
v -9 8 5
v -9 8 -2
v -9 8 -3
v -9 9 6
v -9 9 -3
v -6 8 6
v -6 8 5
v -6 8 -2
v -6 8 -3
v -6 9 6
v -6 9 -3
v -3 8 6
v -3 8 5
v -3 8 -2
v -3 8 -3
v -3 9 6
v -3 9 -3
v 0 8 6
v 0 8 5
v 0 8 -2
v 0 8 -3
v 0 9 6
v 0 9 -3
v 3 8 6
v 3 8 5
v 3 8 -2
v 3 8 -3
v 3 9 6
v 3 9 -3
v 6 8 6
v 6 8 5
v 6 8 -2
v 6 8 -3
v 6 9 6
v 6 9 -3
v 9 8 6
v 9 8 5
v 9 8 -2
v 9 8 -3
v 9 9 6
v 9 9 -3
v 12 8 6
v 12 8 5
v 12 8 -2
v 12 8 -3
v 12 9 6
v 12 9 -3
v 15 8 6
v 15 8 5
v 15 8 -2
v 15 8 -3
v 15 9 6
v 15 9 -3
v 18 8 6
v 18 8 5
v 18 8 -2
v 18 8 -3
v 18 9 6
v 18 9 -3
v 21 8 6
v 21 8 5
v 21 8 -2
v 21 8 -3
v 21 9 6
v 21 9 -3
v 24 0 6
v 24 0 -3
v 24 1 5
v 24 1 -2
v 24 8 6
v 24 8 5
v 24 8 -2
v 24 8 -3
v 24 9 6
v 24 9 -3
v -23 0 6
v -23 8 6
v -23 9 6
v -22 0 6
v -22 7 6
v -21 8 6
v -21 9 6
v -20 8 6
v -20 9 6
v -18 8 6
v -18 9 6
v -17 8 6
v -17 9 6
v -15 8 6
v -15 9 6
v -14 8 6
v -14 9 6
v -12 8 6
v -12 9 6
v -11 8 6
v -11 9 6
v -9 8 6
v -9 9 6
v -8 8 6
v -8 9 6
v -6 8 6
v -6 9 6
v -5 8 6
v -5 9 6
v -3 8 6
v -3 9 6
v -2 8 6
v -2 9 6
v 0 8 6
v 0 9 6
v 1 8 6
v 1 9 6
v 3 8 6
v 3 9 6
v 4 8 6
v 4 9 6
v 6 8 6
v 6 9 6
v 7 8 6
v 7 9 6
v 9 8 6
v 9 9 6
v 10 8 6
v 10 9 6
v 12 8 6
v 12 9 6
v 13 8 6
v 13 9 6
v 15 8 6
v 15 9 6
v 16 8 6
v 16 9 6
v 18 8 6
v 18 9 6
v 19 8 6
v 19 9 6
v 21 8 6
v 21 9 6
v 22 8 6
v 22 9 6
v 23 0 6
v 23 7 6
v 24 0 6
v 24 8 6
v 24 9 6
v -23 1 -2
v -23 8 -2
v -22 1 -2
v -22 7 -2
v -21 8 -2
v -20 8 -2
v -18 8 -2
v -17 8 -2
v -15 8 -2
v -14 8 -2
v -12 8 -2
v -11 8 -2
v -9 8 -2
v -8 8 -2
v -6 8 -2
v -5 8 -2
v -3 8 -2
v -2 8 -2
v 0 8 -2
v 1 8 -2
v 3 8 -2
v 4 8 -2
v 6 8 -2
v 7 8 -2
v 9 8 -2
v 10 8 -2
v 12 8 -2
v 13 8 -2
v 15 8 -2
v 16 8 -2
v 18 8 -2
v 19 8 -2
v 21 8 -2
v 22 8 -2
v 23 1 -2
v 23 7 -2
v 24 1 -2
v 24 8 -2
v -23 1 5
v -23 8 5
v -22 1 5
v -22 7 5
v -21 8 5
v -20 8 5
v -18 8 5
v -17 8 5
v -15 8 5
v -14 8 5
v -12 8 5
v -11 8 5
v -9 8 5
v -8 8 5
v -6 8 5
v -5 8 5
v -3 8 5
v -2 8 5
v 0 8 5
v 1 8 5
v 3 8 5
v 4 8 5
v 6 8 5
v 7 8 5
v 9 8 5
v 10 8 5
v 12 8 5
v 13 8 5
v 15 8 5
v 16 8 5
v 18 8 5
v 19 8 5
v 21 8 5
v 22 8 5
v 23 1 5
v 23 7 5
v 24 1 5
v 24 8 5
v -23 0 -3
v -23 8 -3
v -23 9 -3
v -22 0 -3
v -22 7 -3
v -21 8 -3
v -21 9 -3
v -20 8 -3
v -20 9 -3
v -18 8 -3
v -18 9 -3
v -17 8 -3
v -17 9 -3
v -15 8 -3
v -15 9 -3
v -14 8 -3
v -14 9 -3
v -12 8 -3
v -12 9 -3
v -11 8 -3
v -11 9 -3
v -9 8 -3
v -9 9 -3
v -8 8 -3
v -8 9 -3
v -6 8 -3
v -6 9 -3
v -5 8 -3
v -5 9 -3
v -3 8 -3
v -3 9 -3
v -2 8 -3
v -2 9 -3
v 0 8 -3
v 0 9 -3
v 1 8 -3
v 1 9 -3
v 3 8 -3
v 3 9 -3
v 4 8 -3
v 4 9 -3
v 6 8 -3
v 6 9 -3
v 7 8 -3
v 7 9 -3
v 9 8 -3
v 9 9 -3
v 10 8 -3
v 10 9 -3
v 12 8 -3
v 12 9 -3
v 13 8 -3
v 13 9 -3
v 15 8 -3
v 15 9 -3
v 16 8 -3
v 16 9 -3
v 18 8 -3
v 18 9 -3
v 19 8 -3
v 19 9 -3
v 21 8 -3
v 21 9 -3
v 22 8 -3
v 22 9 -3
v 23 0 -3
v 23 7 -3
v 24 0 -3
v 24 8 -3
v 24 9 -3
v -23 0 6
v -22 0 6
v 23 0 6
v 24 0 6
v -23 0 -3
v -22 0 -3
v 23 0 -3
v 24 0 -3
v -22 7 6
v 23 7 6
v -22 7 5
v 23 7 5
v -22 7 -2
v 23 7 -2
v -22 7 -3
v 23 7 -3
v -23 8 5
v -21 8 5
v -20 8 5
v -18 8 5
v -17 8 5
v -15 8 5
v -14 8 5
v -12 8 5
v -11 8 5
v -9 8 5
v -8 8 5
v -6 8 5
v -5 8 5
v -3 8 5
v -2 8 5
v 0 8 5
v 1 8 5
v 3 8 5
v 4 8 5
v 6 8 5
v 7 8 5
v 9 8 5
v 10 8 5
v 12 8 5
v 13 8 5
v 15 8 5
v 16 8 5
v 18 8 5
v 19 8 5
v 21 8 5
v 22 8 5
v 24 8 5
v -23 8 -2
v -21 8 -2
v -20 8 -2
v -18 8 -2
v -17 8 -2
v -15 8 -2
v -14 8 -2
v -12 8 -2
v -11 8 -2
v -9 8 -2
v -8 8 -2
v -6 8 -2
v -5 8 -2
v -3 8 -2
v -2 8 -2
v 0 8 -2
v 1 8 -2
v 3 8 -2
v 4 8 -2
v 6 8 -2
v 7 8 -2
v 9 8 -2
v 10 8 -2
v 12 8 -2
v 13 8 -2
v 15 8 -2
v 16 8 -2
v 18 8 -2
v 19 8 -2
v 21 8 -2
v 22 8 -2
v 24 8 -2
v -23 1 5
v -22 1 5
v 23 1 5
v 24 1 5
v -23 1 -2
v -22 1 -2
v 23 1 -2
v 24 1 -2
v -21 8 6
v -20 8 6
v -18 8 6
v -17 8 6
v -15 8 6
v -14 8 6
v -12 8 6
v -11 8 6
v -9 8 6
v -8 8 6
v -6 8 6
v -5 8 6
v -3 8 6
v -2 8 6
v 0 8 6
v 1 8 6
v 3 8 6
v 4 8 6
v 6 8 6
v 7 8 6
v 9 8 6
v 10 8 6
v 12 8 6
v 13 8 6
v 15 8 6
v 16 8 6
v 18 8 6
v 19 8 6
v 21 8 6
v 22 8 6
v -21 8 5
v -20 8 5
v -18 8 5
v -17 8 5
v -15 8 5
v -14 8 5
v -12 8 5
v -11 8 5
v -9 8 5
v -8 8 5
v -6 8 5
v -5 8 5
v -3 8 5
v -2 8 5
v 0 8 5
v 1 8 5
v 3 8 5
v 4 8 5
v 6 8 5
v 7 8 5
v 9 8 5
v 10 8 5
v 12 8 5
v 13 8 5
v 15 8 5
v 16 8 5
v 18 8 5
v 19 8 5
v 21 8 5
v 22 8 5
v -21 8 -2
v -20 8 -2
v -18 8 -2
v -17 8 -2
v -15 8 -2
v -14 8 -2
v -12 8 -2
v -11 8 -2
v -9 8 -2
v -8 8 -2
v -6 8 -2
v -5 8 -2
v -3 8 -2
v -2 8 -2
v 0 8 -2
v 1 8 -2
v 3 8 -2
v 4 8 -2
v 6 8 -2
v 7 8 -2
v 9 8 -2
v 10 8 -2
v 12 8 -2
v 13 8 -2
v 15 8 -2
v 16 8 -2
v 18 8 -2
v 19 8 -2
v 21 8 -2
v 22 8 -2
v -21 8 -3
v -20 8 -3
v -18 8 -3
v -17 8 -3
v -15 8 -3
v -14 8 -3
v -12 8 -3
v -11 8 -3
v -9 8 -3
v -8 8 -3
v -6 8 -3
v -5 8 -3
v -3 8 -3
v -2 8 -3
v 0 8 -3
v 1 8 -3
v 3 8 -3
v 4 8 -3
v 6 8 -3
v 7 8 -3
v 9 8 -3
v 10 8 -3
v 12 8 -3
v 13 8 -3
v 15 8 -3
v 16 8 -3
v 18 8 -3
v 19 8 -3
v 21 8 -3
v 22 8 -3
v -23 9 6
v -21 9 6
v -20 9 6
v -18 9 6
v -17 9 6
v -15 9 6
v -14 9 6
v -12 9 6
v -11 9 6
v -9 9 6
v -8 9 6
v -6 9 6
v -5 9 6
v -3 9 6
v -2 9 6
v 0 9 6
v 1 9 6
v 3 9 6
v 4 9 6
v 6 9 6
v 7 9 6
v 9 9 6
v 10 9 6
v 12 9 6
v 13 9 6
v 15 9 6
v 16 9 6
v 18 9 6
v 19 9 6
v 21 9 6
v 22 9 6
v 24 9 6
v -23 9 -3
v -21 9 -3
v -20 9 -3
v -18 9 -3
v -17 9 -3
v -15 9 -3
v -14 9 -3
v -12 9 -3
v -11 9 -3
v -9 9 -3
v -8 9 -3
v -6 9 -3
v -5 9 -3
v -3 9 -3
v -2 9 -3
v 0 9 -3
v 1 9 -3
v 3 9 -3
v 4 9 -3
v 6 9 -3
v 7 9 -3
v 9 9 -3
v 10 9 -3
v 12 9 -3
v 13 9 -3
v 15 9 -3
v 16 9 -3
v 18 9 -3
v 19 9 -3
v 21 9 -3
v 22 9 -3
v 24 9 -3

# faces
f 3/2/1 2/2/1 1/2/1
f 4/2/1 2/2/1 3/2/1
f 5/2/1 3/2/1 1/2/1
f 6/2/1 3/2/1 5/2/1
f 7/2/1 2/2/1 4/2/1
f 8/2/1 2/2/1 7/2/1
f 9/1/1 6/1/1 5/1/1
f 9/1/1 7/1/1 6/1/1
f 9/1/1 8/1/1 7/1/1
f 10/1/1 8/1/1 9/1/1
f 15/1/1 12/1/1 11/1/1
f 15/1/1 14/1/1 13/1/1
f 15/1/1 13/1/1 12/1/1
f 16/1/1 14/1/1 15/1/1
f 21/1/1 18/1/1 17/1/1
f 21/1/1 20/1/1 19/1/1
f 21/1/1 19/1/1 18/1/1
f 22/1/1 20/1/1 21/1/1
f 27/1/1 24/1/1 23/1/1
f 27/1/1 26/1/1 25/1/1
f 27/1/1 25/1/1 24/1/1
f 28/1/1 26/1/1 27/1/1
f 33/1/1 30/1/1 29/1/1
f 33/1/1 32/1/1 31/1/1
f 33/1/1 31/1/1 30/1/1
f 34/1/1 32/1/1 33/1/1
f 39/1/1 36/1/1 35/1/1
f 39/1/1 38/1/1 37/1/1
f 39/1/1 37/1/1 36/1/1
f 40/1/1 38/1/1 39/1/1
f 45/1/1 42/1/1 41/1/1
f 45/1/1 44/1/1 43/1/1
f 45/1/1 43/1/1 42/1/1
f 46/1/1 44/1/1 45/1/1
f 51/1/1 48/1/1 47/1/1
f 51/1/1 50/1/1 49/1/1
f 51/1/1 49/1/1 48/1/1
f 52/1/1 50/1/1 51/1/1
f 57/1/1 54/1/1 53/1/1
f 57/1/1 56/1/1 55/1/1
f 57/1/1 55/1/1 54/1/1
f 58/1/1 56/1/1 57/1/1
f 63/1/1 60/1/1 59/1/1
f 63/1/1 62/1/1 61/1/1
f 63/1/1 61/1/1 60/1/1
f 64/1/1 62/1/1 63/1/1
f 69/1/1 66/1/1 65/1/1
f 69/1/1 68/1/1 67/1/1
f 69/1/1 67/1/1 66/1/1
f 70/1/1 68/1/1 69/1/1
f 75/1/1 72/1/1 71/1/1
f 75/1/1 74/1/1 73/1/1
f 75/1/1 73/1/1 72/1/1
f 76/1/1 74/1/1 75/1/1
f 81/1/1 78/1/1 77/1/1
f 81/1/1 80/1/1 79/1/1
f 81/1/1 79/1/1 78/1/1
f 82/1/1 80/1/1 81/1/1
f 87/1/1 84/1/1 83/1/1
f 87/1/1 86/1/1 85/1/1
f 87/1/1 85/1/1 84/1/1
f 88/1/1 86/1/1 87/1/1
f 93/1/1 90/1/1 89/1/1
f 93/1/1 92/1/1 91/1/1
f 93/1/1 91/1/1 90/1/1
f 94/1/1 92/1/1 93/1/1
f 99/1/1 96/1/1 95/1/1
f 99/1/1 98/1/1 97/1/1
f 99/1/1 97/1/1 96/1/1
f 100/1/1 98/1/1 99/1/1
f 103/2/1 102/2/1 101/2/1
f 104/2/1 102/2/1 103/2/1
f 105/2/1 103/2/1 101/2/1
f 106/2/1 103/2/1 105/2/1
f 107/2/1 102/2/1 104/2/1
f 108/2/1 102/2/1 107/2/1
f 109/2/2 110/2/2 111/2/2
f 111/2/2 110/2/2 112/2/2
f 109/2/2 111/2/2 113/2/2
f 113/2/2 111/2/2 114/2/2
f 112/2/2 110/2/2 115/2/2
f 115/2/2 110/2/2 116/2/2
f 117/1/2 118/1/2 121/1/2
f 119/1/2 120/1/2 121/1/2
f 118/1/2 119/1/2 121/1/2
f 121/1/2 120/1/2 122/1/2
f 123/1/2 124/1/2 127/1/2
f 125/1/2 126/1/2 127/1/2
f 124/1/2 125/1/2 127/1/2
f 127/1/2 126/1/2 128/1/2
f 129/1/2 130/1/2 133/1/2
f 131/1/2 132/1/2 133/1/2
f 130/1/2 131/1/2 133/1/2
f 133/1/2 132/1/2 134/1/2
f 135/1/2 136/1/2 139/1/2
f 137/1/2 138/1/2 139/1/2
f 136/1/2 137/1/2 139/1/2
f 139/1/2 138/1/2 140/1/2
f 141/1/2 142/1/2 145/1/2
f 143/1/2 144/1/2 145/1/2
f 142/1/2 143/1/2 145/1/2
f 145/1/2 144/1/2 146/1/2
f 147/1/2 148/1/2 151/1/2
f 149/1/2 150/1/2 151/1/2
f 148/1/2 149/1/2 151/1/2
f 151/1/2 150/1/2 152/1/2
f 153/1/2 154/1/2 157/1/2
f 155/1/2 156/1/2 157/1/2
f 154/1/2 155/1/2 157/1/2
f 157/1/2 156/1/2 158/1/2
f 159/1/2 160/1/2 163/1/2
f 161/1/2 162/1/2 163/1/2
f 160/1/2 161/1/2 163/1/2
f 163/1/2 162/1/2 164/1/2
f 165/1/2 166/1/2 169/1/2
f 167/1/2 168/1/2 169/1/2
f 166/1/2 167/1/2 169/1/2
f 169/1/2 168/1/2 170/1/2
f 171/1/2 172/1/2 175/1/2
f 173/1/2 174/1/2 175/1/2
f 172/1/2 173/1/2 175/1/2
f 175/1/2 174/1/2 176/1/2
f 177/1/2 178/1/2 181/1/2
f 179/1/2 180/1/2 181/1/2
f 178/1/2 179/1/2 181/1/2
f 181/1/2 180/1/2 182/1/2
f 183/1/2 184/1/2 187/1/2
f 185/1/2 186/1/2 187/1/2
f 184/1/2 185/1/2 187/1/2
f 187/1/2 186/1/2 188/1/2
f 189/1/2 190/1/2 193/1/2
f 191/1/2 192/1/2 193/1/2
f 190/1/2 191/1/2 193/1/2
f 193/1/2 192/1/2 194/1/2
f 195/1/2 196/1/2 199/1/2
f 197/1/2 198/1/2 199/1/2
f 196/1/2 197/1/2 199/1/2
f 199/1/2 198/1/2 200/1/2
f 201/1/2 202/1/2 205/1/2
f 203/1/2 204/1/2 205/1/2
f 202/1/2 203/1/2 205/1/2
f 205/1/2 204/1/2 206/1/2
f 207/2/2 208/2/2 209/2/2
f 209/2/2 208/2/2 210/2/2
f 207/2/2 209/2/2 211/2/2
f 211/2/2 209/2/2 212/2/2
f 210/2/2 208/2/2 213/2/2
f 213/2/2 208/2/2 214/2/2
f 211/1/2 212/1/2 215/1/2
f 212/1/2 213/1/2 215/1/2
f 213/1/2 214/1/2 215/1/2
f 215/1/2 214/1/2 216/1/2
f 220/2/3 218/2/3 217/2/3
f 221/2/3 218/2/3 220/2/3
f 222/1/3 219/1/3 218/1/3
f 222/2/3 218/2/3 221/2/3
f 223/1/3 219/1/3 222/1/3
f 224/2/3 222/2/3 221/2/3
f 226/2/3 224/2/3 221/2/3
f 226/1/3 225/1/3 224/1/3
f 227/1/3 225/1/3 226/1/3
f 228/2/3 226/2/3 221/2/3
f 230/2/3 228/2/3 221/2/3
f 230/1/3 229/1/3 228/1/3
f 231/1/3 229/1/3 230/1/3
f 232/2/3 230/2/3 221/2/3
f 234/2/3 232/2/3 221/2/3
f 234/1/3 233/1/3 232/1/3
f 235/1/3 233/1/3 234/1/3
f 236/2/3 234/2/3 221/2/3
f 238/2/3 236/2/3 221/2/3
f 238/1/3 237/1/3 236/1/3
f 239/1/3 237/1/3 238/1/3
f 240/2/3 238/2/3 221/2/3
f 242/2/3 240/2/3 221/2/3
f 242/1/3 241/1/3 240/1/3
f 243/1/3 241/1/3 242/1/3
f 244/2/3 242/2/3 221/2/3
f 246/2/3 244/2/3 221/2/3
f 246/1/3 245/1/3 244/1/3
f 247/1/3 245/1/3 246/1/3
f 248/2/3 246/2/3 221/2/3
f 250/2/3 248/2/3 221/2/3
f 250/1/3 249/1/3 248/1/3
f 251/1/3 249/1/3 250/1/3
f 252/2/3 250/2/3 221/2/3
f 254/2/3 252/2/3 221/2/3
f 254/1/3 253/1/3 252/1/3
f 255/1/3 253/1/3 254/1/3
f 256/2/3 254/2/3 221/2/3
f 258/2/3 256/2/3 221/2/3
f 258/1/3 257/1/3 256/1/3
f 259/1/3 257/1/3 258/1/3
f 260/2/3 258/2/3 221/2/3
f 262/2/3 260/2/3 221/2/3
f 262/1/3 261/1/3 260/1/3
f 263/1/3 261/1/3 262/1/3
f 264/2/3 262/2/3 221/2/3
f 266/2/3 264/2/3 221/2/3
f 266/1/3 265/1/3 264/1/3
f 267/1/3 265/1/3 266/1/3
f 268/2/3 266/2/3 221/2/3
f 270/2/3 268/2/3 221/2/3
f 270/1/3 269/1/3 268/1/3
f 271/1/3 269/1/3 270/1/3
f 272/2/3 270/2/3 221/2/3
f 274/2/3 272/2/3 221/2/3
f 274/1/3 273/1/3 272/1/3
f 275/1/3 273/1/3 274/1/3
f 276/2/3 274/2/3 221/2/3
f 278/2/3 276/2/3 221/2/3
f 278/1/3 277/1/3 276/1/3
f 279/1/3 277/1/3 278/1/3
f 280/2/3 278/2/3 221/2/3
f 283/2/3 280/2/3 221/2/3
f 284/2/3 283/2/3 282/2/3
f 285/1/3 281/1/3 280/1/3
f 285/2/3 283/2/3 284/2/3
f 285/2/3 280/2/3 283/2/3
f 286/1/3 281/1/3 285/1/3
f 289/2/3 288/2/3 287/2/3
f 290/2/3 288/2/3 289/2/3
f 291/2/3 288/2/3 290/2/3
f 292/2/3 291/2/3 290/2/3
f 293/2/3 292/2/3 290/2/3
f 294/2/3 293/2/3 290/2/3
f 295/2/3 294/2/3 290/2/3
f 296/2/3 295/2/3 290/2/3
f 297/2/3 296/2/3 290/2/3
f 298/2/3 297/2/3 290/2/3
f 299/2/3 298/2/3 290/2/3
f 300/2/3 299/2/3 290/2/3
f 301/2/3 300/2/3 290/2/3
f 302/2/3 301/2/3 290/2/3
f 303/2/3 302/2/3 290/2/3
f 304/2/3 303/2/3 290/2/3
f 305/2/3 304/2/3 290/2/3
f 306/2/3 305/2/3 290/2/3
f 307/2/3 306/2/3 290/2/3
f 308/2/3 307/2/3 290/2/3
f 309/2/3 308/2/3 290/2/3
f 310/2/3 309/2/3 290/2/3
f 311/2/3 310/2/3 290/2/3
f 312/2/3 311/2/3 290/2/3
f 313/2/3 312/2/3 290/2/3
f 314/2/3 313/2/3 290/2/3
f 315/2/3 314/2/3 290/2/3
f 316/2/3 315/2/3 290/2/3
f 317/2/3 316/2/3 290/2/3
f 318/2/3 317/2/3 290/2/3
f 319/2/3 318/2/3 290/2/3
f 320/2/3 319/2/3 290/2/3
f 322/2/3 320/2/3 290/2/3
f 323/2/3 322/2/3 321/2/3
f 324/2/3 320/2/3 322/2/3
f 324/2/3 322/2/3 323/2/3
f 325/2/4 326/2/4 327/2/4
f 327/2/4 326/2/4 328/2/4
f 328/2/4 326/2/4 329/2/4
f 328/2/4 329/2/4 330/2/4
f 328/2/4 330/2/4 331/2/4
f 328/2/4 331/2/4 332/2/4
f 328/2/4 332/2/4 333/2/4
f 328/2/4 333/2/4 334/2/4
f 328/2/4 334/2/4 335/2/4
f 328/2/4 335/2/4 336/2/4
f 328/2/4 336/2/4 337/2/4
f 328/2/4 337/2/4 338/2/4
f 328/2/4 338/2/4 339/2/4
f 328/2/4 339/2/4 340/2/4
f 328/2/4 340/2/4 341/2/4
f 328/2/4 341/2/4 342/2/4
f 328/2/4 342/2/4 343/2/4
f 328/2/4 343/2/4 344/2/4
f 328/2/4 344/2/4 345/2/4
f 328/2/4 345/2/4 346/2/4
f 328/2/4 346/2/4 347/2/4
f 328/2/4 347/2/4 348/2/4
f 328/2/4 348/2/4 349/2/4
f 328/2/4 349/2/4 350/2/4
f 328/2/4 350/2/4 351/2/4
f 328/2/4 351/2/4 352/2/4
f 328/2/4 352/2/4 353/2/4
f 328/2/4 353/2/4 354/2/4
f 328/2/4 354/2/4 355/2/4
f 328/2/4 355/2/4 356/2/4
f 328/2/4 356/2/4 357/2/4
f 328/2/4 357/2/4 358/2/4
f 328/2/4 358/2/4 360/2/4
f 359/2/4 360/2/4 361/2/4
f 360/2/4 358/2/4 362/2/4
f 361/2/4 360/2/4 362/2/4
f 363/2/4 364/2/4 366/2/4
f 366/2/4 364/2/4 367/2/4
f 364/1/4 365/1/4 368/1/4
f 367/2/4 364/2/4 368/2/4
f 368/1/4 365/1/4 369/1/4
f 367/2/4 368/2/4 370/2/4
f 367/2/4 370/2/4 372/2/4
f 370/1/4 371/1/4 372/1/4
f 372/1/4 371/1/4 373/1/4
f 367/2/4 372/2/4 374/2/4
f 367/2/4 374/2/4 376/2/4
f 374/1/4 375/1/4 376/1/4
f 376/1/4 375/1/4 377/1/4
f 367/2/4 376/2/4 378/2/4
f 367/2/4 378/2/4 380/2/4
f 378/1/4 379/1/4 380/1/4
f 380/1/4 379/1/4 381/1/4
f 367/2/4 380/2/4 382/2/4
f 367/2/4 382/2/4 384/2/4
f 382/1/4 383/1/4 384/1/4
f 384/1/4 383/1/4 385/1/4
f 367/2/4 384/2/4 386/2/4
f 367/2/4 386/2/4 388/2/4
f 386/1/4 387/1/4 388/1/4
f 388/1/4 387/1/4 389/1/4
f 367/2/4 388/2/4 390/2/4
f 367/2/4 390/2/4 392/2/4
f 390/1/4 391/1/4 392/1/4
f 392/1/4 391/1/4 393/1/4
f 367/2/4 392/2/4 394/2/4
f 367/2/4 394/2/4 396/2/4
f 394/1/4 395/1/4 396/1/4
f 396/1/4 395/1/4 397/1/4
f 367/2/4 396/2/4 398/2/4
f 367/2/4 398/2/4 400/2/4
f 398/1/4 399/1/4 400/1/4
f 400/1/4 399/1/4 401/1/4
f 367/2/4 400/2/4 402/2/4
f 367/2/4 402/2/4 404/2/4
f 402/1/4 403/1/4 404/1/4
f 404/1/4 403/1/4 405/1/4
f 367/2/4 404/2/4 406/2/4
f 367/2/4 406/2/4 408/2/4
f 406/1/4 407/1/4 408/1/4
f 408/1/4 407/1/4 409/1/4
f 367/2/4 408/2/4 410/2/4
f 367/2/4 410/2/4 412/2/4
f 410/1/4 411/1/4 412/1/4
f 412/1/4 411/1/4 413/1/4
f 367/2/4 412/2/4 414/2/4
f 367/2/4 414/2/4 416/2/4
f 414/1/4 415/1/4 416/1/4
f 416/1/4 415/1/4 417/1/4
f 367/2/4 416/2/4 418/2/4
f 367/2/4 418/2/4 420/2/4
f 418/1/4 419/1/4 420/1/4
f 420/1/4 419/1/4 421/1/4
f 367/2/4 420/2/4 422/2/4
f 367/2/4 422/2/4 424/2/4
f 422/1/4 423/1/4 424/1/4
f 424/1/4 423/1/4 425/1/4
f 367/2/4 424/2/4 426/2/4
f 367/2/4 426/2/4 429/2/4
f 428/2/4 429/2/4 430/2/4
f 426/1/4 427/1/4 431/1/4
f 430/2/4 429/2/4 431/2/4
f 429/2/4 426/2/4 431/2/4
f 431/1/4 427/1/4 432/1/4
f 437/2/5 434/2/5 433/2/5
f 438/2/5 434/2/5 437/2/5
f 439/2/5 436/2/5 435/2/5
f 440/2/5 436/2/5 439/2/5
f 443/2/5 442/2/5 441/2/5
f 444/2/5 442/2/5 443/2/5
f 447/2/5 446/2/5 445/2/5
f 448/2/5 446/2/5 447/2/5
f 481/1/5 450/1/5 449/1/5
f 482/1/5 450/1/5 481/1/5
f 483/1/5 452/1/5 451/1/5
f 484/1/5 452/1/5 483/1/5
f 485/1/5 454/1/5 453/1/5
f 486/1/5 454/1/5 485/1/5
f 487/1/5 456/1/5 455/1/5
f 488/1/5 456/1/5 487/1/5
f 489/1/5 458/1/5 457/1/5
f 490/1/5 458/1/5 489/1/5
f 491/1/5 460/1/5 459/1/5
f 492/1/5 460/1/5 491/1/5
f 493/1/5 462/1/5 461/1/5
f 494/1/5 462/1/5 493/1/5
f 495/1/5 464/1/5 463/1/5
f 496/1/5 464/1/5 495/1/5
f 497/1/5 466/1/5 465/1/5
f 498/1/5 466/1/5 497/1/5
f 499/1/5 468/1/5 467/1/5
f 500/1/5 468/1/5 499/1/5
f 501/1/5 470/1/5 469/1/5
f 502/1/5 470/1/5 501/1/5
f 503/1/5 472/1/5 471/1/5
f 504/1/5 472/1/5 503/1/5
f 505/1/5 474/1/5 473/1/5
f 506/1/5 474/1/5 505/1/5
f 507/1/5 476/1/5 475/1/5
f 508/1/5 476/1/5 507/1/5
f 509/1/5 478/1/5 477/1/5
f 510/1/5 478/1/5 509/1/5
f 511/1/5 480/1/5 479/1/5
f 512/1/5 480/1/5 511/1/5
f 513/2/6 514/2/6 517/2/6
f 517/2/6 514/2/6 518/2/6
f 515/2/6 516/2/6 519/2/6
f 519/2/6 516/2/6 520/2/6
f 521/2/6 522/2/6 551/2/6
f 551/2/6 522/2/6 552/2/6
f 523/2/6 524/2/6 553/2/6
f 553/2/6 524/2/6 554/2/6
f 525/2/6 526/2/6 555/2/6
f 555/2/6 526/2/6 556/2/6
f 527/2/6 528/2/6 557/2/6
f 557/2/6 528/2/6 558/2/6
f 529/2/6 530/2/6 559/2/6
f 559/2/6 530/2/6 560/2/6
f 531/2/6 532/2/6 561/2/6
f 561/2/6 532/2/6 562/2/6
f 533/2/6 534/2/6 563/2/6
f 563/2/6 534/2/6 564/2/6
f 535/2/6 536/2/6 565/2/6
f 565/2/6 536/2/6 566/2/6
f 537/2/6 538/2/6 567/2/6
f 567/2/6 538/2/6 568/2/6
f 539/2/6 540/2/6 569/2/6
f 569/2/6 540/2/6 570/2/6
f 541/2/6 542/2/6 571/2/6
f 571/2/6 542/2/6 572/2/6
f 543/2/6 544/2/6 573/2/6
f 573/2/6 544/2/6 574/2/6
f 545/2/6 546/2/6 575/2/6
f 575/2/6 546/2/6 576/2/6
f 547/2/6 548/2/6 577/2/6
f 577/2/6 548/2/6 578/2/6
f 549/2/6 550/2/6 579/2/6
f 579/2/6 550/2/6 580/2/6
f 581/2/6 582/2/6 611/2/6
f 611/2/6 582/2/6 612/2/6
f 583/2/6 584/2/6 613/2/6
f 613/2/6 584/2/6 614/2/6
f 585/2/6 586/2/6 615/2/6
f 615/2/6 586/2/6 616/2/6
f 587/2/6 588/2/6 617/2/6
f 617/2/6 588/2/6 618/2/6
f 589/2/6 590/2/6 619/2/6
f 619/2/6 590/2/6 620/2/6
f 591/2/6 592/2/6 621/2/6
f 621/2/6 592/2/6 622/2/6
f 593/2/6 594/2/6 623/2/6
f 623/2/6 594/2/6 624/2/6
f 595/2/6 596/2/6 625/2/6
f 625/2/6 596/2/6 626/2/6
f 597/2/6 598/2/6 627/2/6
f 627/2/6 598/2/6 628/2/6
f 599/2/6 600/2/6 629/2/6
f 629/2/6 600/2/6 630/2/6
f 601/2/6 602/2/6 631/2/6
f 631/2/6 602/2/6 632/2/6
f 603/2/6 604/2/6 633/2/6
f 633/2/6 604/2/6 634/2/6
f 605/2/6 606/2/6 635/2/6
f 635/2/6 606/2/6 636/2/6
f 607/2/6 608/2/6 637/2/6
f 637/2/6 608/2/6 638/2/6
f 609/2/6 610/2/6 639/2/6
f 639/2/6 610/2/6 640/2/6
f 641/1/6 642/1/6 673/1/6
f 673/1/6 642/1/6 674/1/6
f 643/1/6 644/1/6 675/1/6
f 675/1/6 644/1/6 676/1/6
f 645/1/6 646/1/6 677/1/6
f 677/1/6 646/1/6 678/1/6
f 647/1/6 648/1/6 679/1/6
f 679/1/6 648/1/6 680/1/6
f 649/1/6 650/1/6 681/1/6
f 681/1/6 650/1/6 682/1/6
f 651/1/6 652/1/6 683/1/6
f 683/1/6 652/1/6 684/1/6
f 653/1/6 654/1/6 685/1/6
f 685/1/6 654/1/6 686/1/6
f 655/1/6 656/1/6 687/1/6
f 687/1/6 656/1/6 688/1/6
f 657/1/6 658/1/6 689/1/6
f 689/1/6 658/1/6 690/1/6
f 659/1/6 660/1/6 691/1/6
f 691/1/6 660/1/6 692/1/6
f 661/1/6 662/1/6 693/1/6
f 693/1/6 662/1/6 694/1/6
f 663/1/6 664/1/6 695/1/6
f 695/1/6 664/1/6 696/1/6
f 665/1/6 666/1/6 697/1/6
f 697/1/6 666/1/6 698/1/6
f 667/1/6 668/1/6 699/1/6
f 699/1/6 668/1/6 700/1/6
f 669/1/6 670/1/6 701/1/6
f 701/1/6 670/1/6 702/1/6
f 671/1/6 672/1/6 703/1/6
f 703/1/6 672/1/6 704/1/6
