# MagicaVoxel @ Ephtracy

# material
mtllib Cafeateria full.mtl
usemtl palette

# normals
vn -1 0 0
vn 1 0 0
vn 0 0 1
vn 0 0 -1
vn 0 -1 0
vn 0 1 0

# texcoords
vt 0.958984 0.5
vt 0.970703 0.5
vt 0.982422 0.5

# verts
v -18 0 2
v -18 0 1
v -18 0 -8
v -18 0 -9
v -18 1 1
v -18 1 -8
v -18 10 9
v -18 10 2
v -18 12 9
v -18 12 2
v -18 14 1
v -18 14 -9
v -18 20 5
v -18 20 4
v -18 21 5
v -18 21 4
v -18 21 3
v -18 22 4
v -18 22 3
v -18 22 2
v -18 23 3
v -18 23 2
v -18 23 1
v -16 11 8
v -16 11 2
v -16 12 8
v -16 12 2
v -14 11 8
v -14 11 2
v -14 12 8
v -14 12 2
v -12 11 8
v -12 11 2
v -12 12 8
v -12 12 2
v -11 13 1
v -11 13 -8
v -11 14 1
v -11 14 -8
v -10 11 8
v -10 11 2
v -10 12 8
v -10 12 2
v -8 11 8
v -8 11 2
v -8 12 8
v -8 12 2
v -6 11 8
v -6 11 2
v -6 12 8
v -6 12 2
v -4 11 8
v -4 11 2
v -4 12 8
v -4 12 2
v -4 13 1
v -4 13 -8
v -4 14 1
v -4 14 -8
v -2 11 8
v -2 11 2
v -2 12 8
v -2 12 2
v 0 11 8
v 0 11 2
v 0 12 8
v 0 12 2
v 2 11 8
v 2 11 2
v 2 12 8
v 2 12 2
v 3 13 1
v 3 13 -8
v 3 14 2
v 3 14 1
v 3 14 -8
v 3 22 2
v 3 22 1
v 4 11 8
v 4 11 2
v 4 12 8
v 4 12 2
v 6 11 8
v 6 11 2
v 6 12 8
v 6 12 2
v 8 11 8
v 8 11 2
v 8 12 8
v 8 12 2
v 10 11 8
v 10 11 2
v 10 12 8
v 10 12 2
v 10 13 1
v 10 13 -8
v 10 14 1
v 10 14 -8
v 12 11 8
v 12 11 2
v 12 12 8
v 12 12 2
v 14 11 8
v 14 11 2
v 14 12 8
v 14 12 2
v 16 11 8
v 16 11 2
v 16 12 8
v 16 12 2
v 17 0 2
v 17 0 1
v 17 0 -8
v 17 0 -9
v 17 1 2
v 17 1 1
v 17 1 -8
v 17 1 -9
v 17 2 1
v 17 2 -9
v 17 12 1
v 17 12 -9
v 17 13 1
v 17 13 -8
v 17 14 2
v 17 14 1
v 17 14 -8
v 17 22 2
v 17 22 1
v -17 0 2
v -17 0 1
v -17 0 -8
v -17 0 -9
v -17 1 2
v -17 1 1
v -17 1 -8
v -17 1 -9
v -17 2 1
v -17 2 -9
v -17 11 8
v -17 11 2
v -17 12 8
v -17 12 2
v -17 12 1
v -17 12 -9
v -17 13 1
v -17 13 -8
v -17 14 2
v -17 14 1
v -17 14 -8
v -17 22 2
v -17 22 1
v -15 11 8
v -15 11 2
v -15 12 8
v -15 12 2
v -13 11 8
v -13 11 2
v -13 12 8
v -13 12 2
v -11 11 8
v -11 11 2
v -11 12 8
v -11 12 2
v -10 13 1
v -10 13 -8
v -10 14 1
v -10 14 -8
v -9 11 8
v -9 11 2
v -9 12 8
v -9 12 2
v -7 11 8
v -7 11 2
v -7 12 8
v -7 12 2
v -5 11 8
v -5 11 2
v -5 12 8
v -5 12 2
v -3 11 8
v -3 11 2
v -3 12 8
v -3 12 2
v -3 13 1
v -3 13 -8
v -3 14 1
v -3 14 -8
v -1 11 8
v -1 11 2
v -1 12 8
v -1 12 2
v 1 11 8
v 1 11 2
v 1 12 8
v 1 12 2
v 3 11 8
v 3 11 2
v 3 12 8
v 3 12 2
v 4 13 1
v 4 13 -8
v 4 14 2
v 4 14 1
v 4 14 -8
v 4 22 2
v 4 22 1
v 5 11 8
v 5 11 2
v 5 12 8
v 5 12 2
v 7 11 8
v 7 11 2
v 7 12 8
v 7 12 2
v 9 11 8
v 9 11 2
v 9 12 8
v 9 12 2
v 11 11 8
v 11 11 2
v 11 12 8
v 11 12 2
v 11 13 1
v 11 13 -8
v 11 14 1
v 11 14 -8
v 13 11 8
v 13 11 2
v 13 12 8
v 13 12 2
v 15 11 8
v 15 11 2
v 15 12 8
v 15 12 2
v 18 0 2
v 18 0 1
v 18 0 -8
v 18 0 -9
v 18 1 1
v 18 1 -8
v 18 10 9
v 18 10 2
v 18 12 9
v 18 12 2
v 18 14 1
v 18 14 -9
v 18 20 5
v 18 20 4
v 18 21 5
v 18 21 4
v 18 21 3
v 18 22 4
v 18 22 3
v 18 22 2
v 18 23 3
v 18 23 2
v 18 23 1
v -18 10 9
v -18 12 9
v 18 10 9
v 18 12 9
v -18 20 5
v -18 21 5
v 18 20 5
v 18 21 5
v -18 21 4
v -18 22 4
v 18 21 4
v 18 22 4
v -18 22 3
v -18 23 3
v 18 22 3
v 18 23 3
v -18 0 2
v -18 10 2
v -18 12 2
v -18 22 2
v -17 0 2
v -17 1 2
v -17 11 2
v -17 12 2
v -17 14 2
v -17 22 2
v -16 11 2
v -16 12 2
v -15 11 2
v -15 12 2
v -14 11 2
v -14 12 2
v -13 11 2
v -13 12 2
v -12 11 2
v -12 12 2
v -11 11 2
v -11 12 2
v -10 11 2
v -10 12 2
v -9 11 2
v -9 12 2
v -8 11 2
v -8 12 2
v -7 11 2
v -7 12 2
v -6 11 2
v -6 12 2
v -5 11 2
v -5 12 2
v -4 11 2
v -4 12 2
v -3 11 2
v -3 12 2
v -2 11 2
v -2 12 2
v -1 11 2
v -1 12 2
v 0 11 2
v 0 12 2
v 1 11 2
v 1 12 2
v 2 11 2
v 2 12 2
v 3 11 2
v 3 12 2
v 3 14 2
v 3 22 2
v 4 11 2
v 4 12 2
v 4 14 2
v 4 22 2
v 5 11 2
v 5 12 2
v 6 11 2
v 6 12 2
v 7 11 2
v 7 12 2
v 8 11 2
v 8 12 2
v 9 11 2
v 9 12 2
v 10 11 2
v 10 12 2
v 11 11 2
v 11 12 2
v 12 11 2
v 12 12 2
v 13 11 2
v 13 12 2
v 14 11 2
v 14 12 2
v 15 11 2
v 15 12 2
v 16 11 2
v 16 12 2
v 17 0 2
v 17 1 2
v 17 12 2
v 17 14 2
v 17 22 2
v 18 0 2
v 18 10 2
v 18 12 2
v 18 22 2
v -18 0 -8
v -18 1 -8
v -17 0 -8
v -17 1 -8
v -17 13 -8
v -17 14 -8
v -11 13 -8
v -11 14 -8
v -10 13 -8
v -10 14 -8
v -4 13 -8
v -4 14 -8
v -3 13 -8
v -3 14 -8
v 3 13 -8
v 3 14 -8
v 4 13 -8
v 4 14 -8
v 10 13 -8
v 10 14 -8
v 11 13 -8
v 11 14 -8
v 17 0 -8
v 17 1 -8
v 17 13 -8
v 17 14 -8
v 18 0 -8
v 18 1 -8
v -17 11 8
v -17 12 8
v -16 11 8
v -16 12 8
v -15 11 8
v -15 12 8
v -14 11 8
v -14 12 8
v -13 11 8
v -13 12 8
v -12 11 8
v -12 12 8
v -11 11 8
v -11 12 8
v -10 11 8
v -10 12 8
v -9 11 8
v -9 12 8
v -8 11 8
v -8 12 8
v -7 11 8
v -7 12 8
v -6 11 8
v -6 12 8
v -5 11 8
v -5 12 8
v -4 11 8
v -4 12 8
v -3 11 8
v -3 12 8
v -2 11 8
v -2 12 8
v -1 11 8
v -1 12 8
v 0 11 8
v 0 12 8
v 1 11 8
v 1 12 8
v 2 11 8
v 2 12 8
v 3 11 8
v 3 12 8
v 4 11 8
v 4 12 8
v 5 11 8
v 5 12 8
v 6 11 8
v 6 12 8
v 7 11 8
v 7 12 8
v 8 11 8
v 8 12 8
v 9 11 8
v 9 12 8
v 10 11 8
v 10 12 8
v 11 11 8
v 11 12 8
v 12 11 8
v 12 12 8
v 13 11 8
v 13 12 8
v 14 11 8
v 14 12 8
v 15 11 8
v 15 12 8
v 16 11 8
v 16 12 8
v -18 20 4
v -18 21 4
v 18 20 4
v 18 21 4
v -18 21 3
v -18 22 3
v 18 21 3
v 18 22 3
v -18 0 1
v -18 1 1
v -18 14 1
v -18 23 1
v -17 0 1
v -17 1 1
v -17 2 1
v -17 12 1
v -17 13 1
v -17 14 1
v -17 22 1
v -11 13 1
v -11 14 1
v -10 13 1
v -10 14 1
v -4 13 1
v -4 14 1
v -3 13 1
v -3 14 1
v 3 13 1
v 3 14 1
v 3 22 1
v 4 13 1
v 4 14 1
v 4 22 1
v 10 13 1
v 10 14 1
v 11 13 1
v 11 14 1
v 17 0 1
v 17 1 1
v 17 2 1
v 17 12 1
v 17 13 1
v 17 14 1
v 17 22 1
v 18 0 1
v 18 1 1
v 18 14 1
v 18 23 1
v -18 0 -9
v -18 14 -9
v -17 0 -9
v -17 1 -9
v -17 2 -9
v -17 12 -9
v 17 0 -9
v 17 1 -9
v 17 2 -9
v 17 12 -9
v 18 0 -9
v 18 14 -9
v -18 0 2
v -17 0 2
v 17 0 2
v 18 0 2
v -18 0 1
v -17 0 1
v 17 0 1
v 18 0 1
v -18 0 -8
v -17 0 -8
v 17 0 -8
v 18 0 -8
v -18 0 -9
v -17 0 -9
v 17 0 -9
v 18 0 -9
v -17 1 2
v 17 1 2
v -18 1 1
v -17 1 1
v 17 1 1
v 18 1 1
v -18 1 -8
v -17 1 -8
v 17 1 -8
v 18 1 -8
v -17 1 -9
v 17 1 -9
v -18 10 9
v 18 10 9
v -18 10 2
v 18 10 2
v -17 12 1
v 17 12 1
v -17 12 -9
v 17 12 -9
v -18 20 5
v 18 20 5
v -18 20 4
v 18 20 4
v -18 21 4
v 18 21 4
v -18 21 3
v 18 21 3
v -18 22 3
v 18 22 3
v -18 22 2
v -17 22 2
v 3 22 2
v 4 22 2
v 17 22 2
v 18 22 2
v -17 22 1
v 3 22 1
v 4 22 1
v 17 22 1
v -17 2 1
v 17 2 1
v -17 2 -9
v 17 2 -9
v -17 11 8
v -16 11 8
v -15 11 8
v -14 11 8
v -13 11 8
v -12 11 8
v -11 11 8
v -10 11 8
v -9 11 8
v -8 11 8
v -7 11 8
v -6 11 8
v -5 11 8
v -4 11 8
v -3 11 8
v -2 11 8
v -1 11 8
v 0 11 8
v 1 11 8
v 2 11 8
v 3 11 8
v 4 11 8
v 5 11 8
v 6 11 8
v 7 11 8
v 8 11 8
v 9 11 8
v 10 11 8
v 11 11 8
v 12 11 8
v 13 11 8
v 14 11 8
v 15 11 8
v 16 11 8
v -17 11 2
v -16 11 2
v -15 11 2
v -14 11 2
v -13 11 2
v -12 11 2
v -11 11 2
v -10 11 2
v -9 11 2
v -8 11 2
v -7 11 2
v -6 11 2
v -5 11 2
v -4 11 2
v -3 11 2
v -2 11 2
v -1 11 2
v 0 11 2
v 1 11 2
v 2 11 2
v 3 11 2
v 4 11 2
v 5 11 2
v 6 11 2
v 7 11 2
v 8 11 2
v 9 11 2
v 10 11 2
v 11 11 2
v 12 11 2
v 13 11 2
v 14 11 2
v 15 11 2
v 16 11 2
v -18 12 9
v 18 12 9
v -17 12 8
v -16 12 8
v -15 12 8
v -14 12 8
v -13 12 8
v -12 12 8
v -11 12 8
v -10 12 8
v -9 12 8
v -8 12 8
v -7 12 8
v -6 12 8
v -5 12 8
v -4 12 8
v -3 12 8
v -2 12 8
v -1 12 8
v 0 12 8
v 1 12 8
v 2 12 8
v 3 12 8
v 4 12 8
v 5 12 8
v 6 12 8
v 7 12 8
v 8 12 8
v 9 12 8
v 10 12 8
v 11 12 8
v 12 12 8
v 13 12 8
v 14 12 8
v 15 12 8
v 16 12 8
v 17 12 8
v -18 12 2
v -17 12 2
v -16 12 2
v -15 12 2
v -14 12 2
v -13 12 2
v -12 12 2
v -11 12 2
v -10 12 2
v -9 12 2
v -8 12 2
v -7 12 2
v -6 12 2
v -5 12 2
v -4 12 2
v -3 12 2
v -2 12 2
v -1 12 2
v 0 12 2
v 1 12 2
v 2 12 2
v 3 12 2
v 4 12 2
v 5 12 2
v 6 12 2
v 7 12 2
v 8 12 2
v 9 12 2
v 10 12 2
v 11 12 2
v 12 12 2
v 13 12 2
v 14 12 2
v 15 12 2
v 16 12 2
v 17 12 2
v 18 12 2
v -17 13 1
v -11 13 1
v -10 13 1
v -4 13 1
v -3 13 1
v 3 13 1
v 4 13 1
v 10 13 1
v 11 13 1
v 17 13 1
v -17 13 -8
v -11 13 -8
v -10 13 -8
v -4 13 -8
v -3 13 -8
v 3 13 -8
v 4 13 -8
v 10 13 -8
v 11 13 -8
v 17 13 -8
v -17 14 2
v 3 14 2
v 4 14 2
v 17 14 2
v -18 14 1
v -17 14 1
v -11 14 1
v -10 14 1
v -4 14 1
v -3 14 1
v 3 14 1
v 4 14 1
v 10 14 1
v 11 14 1
v 17 14 1
v 18 14 1
v -17 14 -8
v -11 14 -8
v -10 14 -8
v -4 14 -8
v -3 14 -8
v 3 14 -8
v 4 14 -8
v 10 14 -8
v 11 14 -8
v 17 14 -8
v -18 14 -9
v 18 14 -9
v -18 21 5
v 18 21 5
v -18 21 4
v 18 21 4
v -18 22 4
v 18 22 4
v -18 22 3
v 18 22 3
v -18 23 3
v 18 23 3
v -18 23 2
v 18 23 2
v -18 23 1
v 18 23 1

# faces
f 5/2/1 2/2/1 1/2/1
f 6/2/1 4/2/1 3/2/1
f 8/2/1 5/2/1 1/2/1
f 8/2/1 6/2/1 5/2/1
f 9/2/1 8/2/1 7/2/1
f 10/2/1 6/2/1 8/2/1
f 10/2/1 8/2/1 9/2/1
f 11/2/1 6/2/1 10/2/1
f 12/2/1 4/2/1 6/2/1
f 12/2/1 6/2/1 11/2/1
f 15/1/1 14/1/1 13/1/1
f 16/1/1 14/1/1 15/1/1
f 18/1/1 17/1/1 16/1/1
f 19/1/1 17/1/1 18/1/1
f 20/2/1 11/2/1 10/2/1
f 21/1/1 20/1/1 19/1/1
f 22/2/1 11/2/1 20/2/1
f 22/1/1 20/1/1 21/1/1
f 23/2/1 11/2/1 22/2/1
f 26/3/1 25/3/1 24/3/1
f 27/3/1 25/3/1 26/3/1
f 30/3/1 29/3/1 28/3/1
f 31/3/1 29/3/1 30/3/1
f 34/3/1 33/3/1 32/3/1
f 35/3/1 33/3/1 34/3/1
f 38/2/1 37/2/1 36/2/1
f 39/2/1 37/2/1 38/2/1
f 42/3/1 41/3/1 40/3/1
f 43/3/1 41/3/1 42/3/1
f 46/3/1 45/3/1 44/3/1
f 47/3/1 45/3/1 46/3/1
f 50/3/1 49/3/1 48/3/1
f 51/3/1 49/3/1 50/3/1
f 54/3/1 53/3/1 52/3/1
f 55/3/1 53/3/1 54/3/1
f 58/2/1 57/2/1 56/2/1
f 59/2/1 57/2/1 58/2/1
f 62/3/1 61/3/1 60/3/1
f 63/3/1 61/3/1 62/3/1
f 66/3/1 65/3/1 64/3/1
f 67/3/1 65/3/1 66/3/1
f 70/3/1 69/3/1 68/3/1
f 71/3/1 69/3/1 70/3/1
f 75/2/1 73/2/1 72/2/1
f 76/2/1 73/2/1 75/2/1
f 77/2/1 75/2/1 74/2/1
f 78/2/1 75/2/1 77/2/1
f 81/3/1 80/3/1 79/3/1
f 82/3/1 80/3/1 81/3/1
f 85/3/1 84/3/1 83/3/1
f 86/3/1 84/3/1 85/3/1
f 89/3/1 88/3/1 87/3/1
f 90/3/1 88/3/1 89/3/1
f 93/3/1 92/3/1 91/3/1
f 94/3/1 92/3/1 93/3/1
f 97/2/1 96/2/1 95/2/1
f 98/2/1 96/2/1 97/2/1
f 101/3/1 100/3/1 99/3/1
f 102/3/1 100/3/1 101/3/1
f 105/3/1 104/3/1 103/3/1
f 106/3/1 104/3/1 105/3/1
f 109/3/1 108/3/1 107/3/1
f 110/3/1 108/3/1 109/3/1
f 115/2/1 112/2/1 111/2/1
f 116/2/1 112/2/1 115/2/1
f 117/2/1 114/2/1 113/2/1
f 118/2/1 114/2/1 117/2/1
f 121/2/1 120/2/1 119/2/1
f 122/2/1 120/2/1 121/2/1
f 126/2/1 124/2/1 123/2/1
f 127/2/1 124/2/1 126/2/1
f 128/2/1 126/2/1 125/2/1
f 129/2/1 126/2/1 128/2/1
f 130/2/2 131/2/2 134/2/2
f 134/2/2 131/2/2 135/2/2
f 132/2/2 133/2/2 136/2/2
f 136/2/2 133/2/2 137/2/2
f 140/2/2 141/2/2 142/2/2
f 142/2/2 141/2/2 143/2/2
f 138/2/2 139/2/2 144/2/2
f 144/2/2 139/2/2 145/2/2
f 146/2/2 147/2/2 149/2/2
f 149/2/2 147/2/2 150/2/2
f 148/2/2 149/2/2 151/2/2
f 151/2/2 149/2/2 152/2/2
f 153/3/2 154/3/2 155/3/2
f 155/3/2 154/3/2 156/3/2
f 157/3/2 158/3/2 159/3/2
f 159/3/2 158/3/2 160/3/2
f 161/3/2 162/3/2 163/3/2
f 163/3/2 162/3/2 164/3/2
f 165/2/2 166/2/2 167/2/2
f 167/2/2 166/2/2 168/2/2
f 169/3/2 170/3/2 171/3/2
f 171/3/2 170/3/2 172/3/2
f 173/3/2 174/3/2 175/3/2
f 175/3/2 174/3/2 176/3/2
f 177/3/2 178/3/2 179/3/2
f 179/3/2 178/3/2 180/3/2
f 181/3/2 182/3/2 183/3/2
f 183/3/2 182/3/2 184/3/2
f 185/2/2 186/2/2 187/2/2
f 187/2/2 186/2/2 188/2/2
f 189/3/2 190/3/2 191/3/2
f 191/3/2 190/3/2 192/3/2
f 193/3/2 194/3/2 195/3/2
f 195/3/2 194/3/2 196/3/2
f 197/3/2 198/3/2 199/3/2
f 199/3/2 198/3/2 200/3/2
f 201/2/2 202/2/2 204/2/2
f 204/2/2 202/2/2 205/2/2
f 203/2/2 204/2/2 206/2/2
f 206/2/2 204/2/2 207/2/2
f 208/3/2 209/3/2 210/3/2
f 210/3/2 209/3/2 211/3/2
f 212/3/2 213/3/2 214/3/2
f 214/3/2 213/3/2 215/3/2
f 216/3/2 217/3/2 218/3/2
f 218/3/2 217/3/2 219/3/2
f 220/3/2 221/3/2 222/3/2
f 222/3/2 221/3/2 223/3/2
f 224/2/2 225/2/2 226/2/2
f 226/2/2 225/2/2 227/2/2
f 228/3/2 229/3/2 230/3/2
f 230/3/2 229/3/2 231/3/2
f 232/3/2 233/3/2 234/3/2
f 234/3/2 233/3/2 235/3/2
f 236/2/2 237/2/2 240/2/2
f 238/2/2 239/2/2 241/2/2
f 236/2/2 240/2/2 243/2/2
f 240/2/2 241/2/2 243/2/2
f 242/2/2 243/2/2 244/2/2
f 243/2/2 241/2/2 245/2/2
f 244/2/2 243/2/2 245/2/2
f 245/2/2 241/2/2 246/2/2
f 241/2/2 239/2/2 247/2/2
f 246/2/2 241/2/2 247/2/2
f 248/1/2 249/1/2 250/1/2
f 250/1/2 249/1/2 251/1/2
f 251/1/2 252/1/2 253/1/2
f 253/1/2 252/1/2 254/1/2
f 245/2/2 246/2/2 255/2/2
f 254/1/2 255/1/2 256/1/2
f 255/2/2 246/2/2 257/2/2
f 256/1/2 255/1/2 257/1/2
f 257/2/2 246/2/2 258/2/2
f 261/2/3 260/2/3 259/2/3
f 262/2/3 260/2/3 261/2/3
f 265/1/3 264/1/3 263/1/3
f 266/1/3 264/1/3 265/1/3
f 269/1/3 268/1/3 267/1/3
f 270/1/3 268/1/3 269/1/3
f 273/1/3 272/1/3 271/1/3
f 274/1/3 272/1/3 273/1/3
f 279/2/3 276/2/3 275/2/3
f 280/2/3 276/2/3 279/2/3
f 282/2/3 278/2/3 277/2/3
f 283/2/3 278/2/3 282/2/3
f 284/2/3 278/2/3 283/2/3
f 285/2/3 282/2/3 281/2/3
f 285/2/3 283/2/3 282/2/3
f 286/2/3 283/2/3 285/2/3
f 288/2/3 283/2/3 286/2/3
f 289/2/3 288/2/3 287/2/3
f 290/2/3 283/2/3 288/2/3
f 290/2/3 288/2/3 289/2/3
f 292/2/3 283/2/3 290/2/3
f 293/2/3 292/2/3 291/2/3
f 294/2/3 283/2/3 292/2/3
f 294/2/3 292/2/3 293/2/3
f 296/2/3 283/2/3 294/2/3
f 297/2/3 296/2/3 295/2/3
f 298/2/3 283/2/3 296/2/3
f 298/2/3 296/2/3 297/2/3
f 300/2/3 283/2/3 298/2/3
f 301/2/3 300/2/3 299/2/3
f 302/2/3 283/2/3 300/2/3
f 302/2/3 300/2/3 301/2/3
f 304/2/3 283/2/3 302/2/3
f 305/2/3 304/2/3 303/2/3
f 306/2/3 283/2/3 304/2/3
f 306/2/3 304/2/3 305/2/3
f 308/2/3 283/2/3 306/2/3
f 309/2/3 308/2/3 307/2/3
f 310/2/3 283/2/3 308/2/3
f 310/2/3 308/2/3 309/2/3
f 312/2/3 283/2/3 310/2/3
f 313/2/3 312/2/3 311/2/3
f 314/2/3 283/2/3 312/2/3
f 314/2/3 312/2/3 313/2/3
f 316/2/3 283/2/3 314/2/3
f 317/2/3 316/2/3 315/2/3
f 318/2/3 283/2/3 316/2/3
f 318/2/3 316/2/3 317/2/3
f 320/2/3 283/2/3 318/2/3
f 321/2/3 320/2/3 319/2/3
f 322/2/3 283/2/3 320/2/3
f 322/2/3 320/2/3 321/2/3
f 324/2/3 283/2/3 322/2/3
f 325/2/3 283/2/3 324/2/3
f 327/2/3 324/2/3 323/2/3
f 327/2/3 326/2/3 325/2/3
f 327/2/3 325/2/3 324/2/3
f 328/2/3 326/2/3 327/2/3
f 329/2/3 326/2/3 328/2/3
f 330/2/3 326/2/3 329/2/3
f 332/2/3 329/2/3 328/2/3
f 333/2/3 332/2/3 331/2/3
f 334/2/3 329/2/3 332/2/3
f 334/2/3 332/2/3 333/2/3
f 336/2/3 329/2/3 334/2/3
f 337/2/3 336/2/3 335/2/3
f 338/2/3 329/2/3 336/2/3
f 338/2/3 336/2/3 337/2/3
f 340/2/3 329/2/3 338/2/3
f 341/2/3 340/2/3 339/2/3
f 342/2/3 329/2/3 340/2/3
f 342/2/3 340/2/3 341/2/3
f 344/2/3 329/2/3 342/2/3
f 345/2/3 344/2/3 343/2/3
f 346/2/3 329/2/3 344/2/3
f 346/2/3 344/2/3 345/2/3
f 348/2/3 329/2/3 346/2/3
f 349/2/3 348/2/3 347/2/3
f 350/2/3 329/2/3 348/2/3
f 350/2/3 348/2/3 349/2/3
f 352/2/3 329/2/3 350/2/3
f 353/2/3 352/2/3 351/2/3
f 354/2/3 329/2/3 352/2/3
f 354/2/3 352/2/3 353/2/3
f 356/2/3 276/2/3 280/2/3
f 357/2/3 329/2/3 354/2/3
f 358/2/3 329/2/3 357/2/3
f 360/2/3 356/2/3 355/2/3
f 361/2/3 276/2/3 356/2/3
f 361/2/3 356/2/3 360/2/3
f 362/2/3 359/2/3 358/2/3
f 362/2/3 358/2/3 357/2/3
f 363/2/3 359/2/3 362/2/3
f 366/2/3 365/2/3 364/2/3
f 367/2/3 365/2/3 366/2/3
f 370/2/3 369/2/3 368/2/3
f 371/2/3 369/2/3 370/2/3
f 374/2/3 373/2/3 372/2/3
f 375/2/3 373/2/3 374/2/3
f 378/2/3 377/2/3 376/2/3
f 379/2/3 377/2/3 378/2/3
f 382/2/3 381/2/3 380/2/3
f 383/2/3 381/2/3 382/2/3
f 388/2/3 385/2/3 384/2/3
f 389/2/3 385/2/3 388/2/3
f 390/2/3 387/2/3 386/2/3
f 391/2/3 387/2/3 390/2/3
f 392/2/4 393/2/4 394/2/4
f 394/2/4 393/2/4 395/2/4
f 396/2/4 397/2/4 398/2/4
f 398/2/4 397/2/4 399/2/4
f 400/2/4 401/2/4 402/2/4
f 402/2/4 401/2/4 403/2/4
f 404/2/4 405/2/4 406/2/4
f 406/2/4 405/2/4 407/2/4
f 408/2/4 409/2/4 410/2/4
f 410/2/4 409/2/4 411/2/4
f 412/2/4 413/2/4 414/2/4
f 414/2/4 413/2/4 415/2/4
f 416/2/4 417/2/4 418/2/4
f 418/2/4 417/2/4 419/2/4
f 420/2/4 421/2/4 422/2/4
f 422/2/4 421/2/4 423/2/4
f 424/2/4 425/2/4 426/2/4
f 426/2/4 425/2/4 427/2/4
f 428/2/4 429/2/4 430/2/4
f 430/2/4 429/2/4 431/2/4
f 432/2/4 433/2/4 434/2/4
f 434/2/4 433/2/4 435/2/4
f 436/2/4 437/2/4 438/2/4
f 438/2/4 437/2/4 439/2/4
f 440/2/4 441/2/4 442/2/4
f 442/2/4 441/2/4 443/2/4
f 444/2/4 445/2/4 446/2/4
f 446/2/4 445/2/4 447/2/4
f 448/2/4 449/2/4 450/2/4
f 450/2/4 449/2/4 451/2/4
f 452/2/4 453/2/4 454/2/4
f 454/2/4 453/2/4 455/2/4
f 456/2/4 457/2/4 458/2/4
f 458/2/4 457/2/4 459/2/4
f 460/1/4 461/1/4 462/1/4
f 462/1/4 461/1/4 463/1/4
f 464/1/4 465/1/4 466/1/4
f 466/1/4 465/1/4 467/1/4
f 468/2/4 469/2/4 472/2/4
f 472/2/4 469/2/4 473/2/4
f 470/2/4 471/2/4 477/2/4
f 477/2/4 471/2/4 478/2/4
f 476/2/4 477/2/4 479/2/4
f 479/2/4 477/2/4 480/2/4
f 481/2/4 482/2/4 483/2/4
f 483/2/4 482/2/4 484/2/4
f 485/2/4 486/2/4 487/2/4
f 487/2/4 486/2/4 488/2/4
f 478/2/4 471/2/4 489/2/4
f 488/2/4 489/2/4 491/2/4
f 489/2/4 471/2/4 492/2/4
f 491/2/4 489/2/4 492/2/4
f 490/2/4 491/2/4 493/2/4
f 493/2/4 491/2/4 494/2/4
f 474/2/4 475/2/4 499/2/4
f 499/2/4 475/2/4 500/2/4
f 495/2/4 496/2/4 501/2/4
f 501/2/4 496/2/4 502/2/4
f 492/2/4 471/2/4 503/2/4
f 497/2/4 498/2/4 504/2/4
f 504/2/4 498/2/4 505/2/4
f 502/2/4 503/2/4 506/2/4
f 503/2/4 471/2/4 507/2/4
f 506/2/4 503/2/4 507/2/4
f 508/2/4 509/2/4 510/2/4
f 510/2/4 509/2/4 511/2/4
f 511/2/4 509/2/4 512/2/4
f 512/2/4 509/2/4 513/2/4
f 511/2/4 512/2/4 515/2/4
f 515/2/4 512/2/4 516/2/4
f 513/2/4 509/2/4 517/2/4
f 515/2/4 516/2/4 518/2/4
f 516/2/4 517/2/4 518/2/4
f 514/2/4 515/2/4 518/2/4
f 517/2/4 509/2/4 519/2/4
f 518/2/4 517/2/4 519/2/4
f 524/2/5 521/2/5 520/2/5
f 525/2/5 521/2/5 524/2/5
f 526/2/5 523/2/5 522/2/5
f 527/2/5 523/2/5 526/2/5
f 532/2/5 529/2/5 528/2/5
f 533/2/5 529/2/5 532/2/5
f 534/2/5 531/2/5 530/2/5
f 535/2/5 531/2/5 534/2/5
f 539/2/5 537/2/5 536/2/5
f 540/2/5 537/2/5 539/2/5
f 542/2/5 539/2/5 538/2/5
f 542/2/5 541/2/5 540/2/5
f 542/2/5 540/2/5 539/2/5
f 543/2/5 541/2/5 542/2/5
f 544/2/5 541/2/5 543/2/5
f 545/2/5 541/2/5 544/2/5
f 546/2/5 544/2/5 543/2/5
f 547/2/5 544/2/5 546/2/5
f 550/2/5 549/2/5 548/2/5
f 551/2/5 549/2/5 550/2/5
f 554/2/5 553/2/5 552/2/5
f 555/2/5 553/2/5 554/2/5
f 558/1/5 557/1/5 556/1/5
f 559/1/5 557/1/5 558/1/5
f 562/1/5 561/1/5 560/1/5
f 563/1/5 561/1/5 562/1/5
f 566/1/5 565/1/5 564/1/5
f 567/1/5 565/1/5 566/1/5
f 568/1/5 565/1/5 567/1/5
f 569/1/5 565/1/5 568/1/5
f 570/1/5 565/1/5 569/1/5
f 571/1/5 565/1/5 570/1/5
f 572/2/5 568/2/5 567/2/5
f 573/2/5 568/2/5 572/2/5
f 574/2/5 570/2/5 569/2/5
f 575/2/5 570/2/5 574/2/5
f 576/2/6 577/2/6 578/2/6
f 578/2/6 577/2/6 579/2/6
f 580/2/6 581/2/6 614/2/6
f 614/2/6 581/2/6 615/2/6
f 582/2/6 583/2/6 616/2/6
f 616/2/6 583/2/6 617/2/6
f 584/2/6 585/2/6 618/2/6
f 618/2/6 585/2/6 619/2/6
f 586/2/6 587/2/6 620/2/6
f 620/2/6 587/2/6 621/2/6
f 588/2/6 589/2/6 622/2/6
f 622/2/6 589/2/6 623/2/6
f 590/2/6 591/2/6 624/2/6
f 624/2/6 591/2/6 625/2/6
f 592/2/6 593/2/6 626/2/6
f 626/2/6 593/2/6 627/2/6
f 594/2/6 595/2/6 628/2/6
f 628/2/6 595/2/6 629/2/6
f 596/2/6 597/2/6 630/2/6
f 630/2/6 597/2/6 631/2/6
f 598/2/6 599/2/6 632/2/6
f 632/2/6 599/2/6 633/2/6
f 600/2/6 601/2/6 634/2/6
f 634/2/6 601/2/6 635/2/6
f 602/2/6 603/2/6 636/2/6
f 636/2/6 603/2/6 637/2/6
f 604/2/6 605/2/6 638/2/6
f 638/2/6 605/2/6 639/2/6
f 606/2/6 607/2/6 640/2/6
f 640/2/6 607/2/6 641/2/6
f 608/2/6 609/2/6 642/2/6
f 642/2/6 609/2/6 643/2/6
f 610/2/6 611/2/6 644/2/6
f 644/2/6 611/2/6 645/2/6
f 612/2/6 613/2/6 646/2/6
f 646/2/6 613/2/6 647/2/6
f 648/2/6 649/2/6 650/2/6
f 650/2/6 649/2/6 651/2/6
f 651/2/6 649/2/6 652/2/6
f 652/2/6 649/2/6 653/2/6
f 653/2/6 649/2/6 654/2/6
f 654/2/6 649/2/6 655/2/6
f 655/2/6 649/2/6 656/2/6
f 656/2/6 649/2/6 657/2/6
f 657/2/6 649/2/6 658/2/6
f 658/2/6 649/2/6 659/2/6
f 659/2/6 649/2/6 660/2/6
f 660/2/6 649/2/6 661/2/6
f 661/2/6 649/2/6 662/2/6
f 662/2/6 649/2/6 663/2/6
f 663/2/6 649/2/6 664/2/6
f 664/2/6 649/2/6 665/2/6
f 665/2/6 649/2/6 666/2/6
f 666/2/6 649/2/6 667/2/6
f 667/2/6 649/2/6 668/2/6
f 668/2/6 649/2/6 669/2/6
f 669/2/6 649/2/6 670/2/6
f 670/2/6 649/2/6 671/2/6
f 671/2/6 649/2/6 672/2/6
f 672/2/6 649/2/6 673/2/6
f 673/2/6 649/2/6 674/2/6
f 674/2/6 649/2/6 675/2/6
f 675/2/6 649/2/6 676/2/6
f 676/2/6 649/2/6 677/2/6
f 677/2/6 649/2/6 678/2/6
f 678/2/6 649/2/6 679/2/6
f 679/2/6 649/2/6 680/2/6
f 680/2/6 649/2/6 681/2/6
f 681/2/6 649/2/6 682/2/6
f 682/2/6 649/2/6 683/2/6
f 683/2/6 649/2/6 684/2/6
f 648/2/6 650/2/6 685/2/6
f 685/2/6 650/2/6 686/2/6
f 651/3/6 652/3/6 687/3/6
f 687/3/6 652/3/6 688/3/6
f 653/3/6 654/3/6 689/3/6
f 689/3/6 654/3/6 690/3/6
f 655/3/6 656/3/6 691/3/6
f 691/3/6 656/3/6 692/3/6
f 657/3/6 658/3/6 693/3/6
f 693/3/6 658/3/6 694/3/6
f 659/3/6 660/3/6 695/3/6
f 695/3/6 660/3/6 696/3/6
f 661/3/6 662/3/6 697/3/6
f 697/3/6 662/3/6 698/3/6
f 663/3/6 664/3/6 699/3/6
f 699/3/6 664/3/6 700/3/6
f 665/3/6 666/3/6 701/3/6
f 701/3/6 666/3/6 702/3/6
f 667/3/6 668/3/6 703/3/6
f 703/3/6 668/3/6 704/3/6
f 669/3/6 670/3/6 705/3/6
f 705/3/6 670/3/6 706/3/6
f 671/3/6 672/3/6 707/3/6
f 707/3/6 672/3/6 708/3/6
f 673/3/6 674/3/6 709/3/6
f 709/3/6 674/3/6 710/3/6
f 675/3/6 676/3/6 711/3/6
f 711/3/6 676/3/6 712/3/6
f 677/3/6 678/3/6 713/3/6
f 713/3/6 678/3/6 714/3/6
f 679/3/6 680/3/6 715/3/6
f 715/3/6 680/3/6 716/3/6
f 681/3/6 682/3/6 717/3/6
f 717/3/6 682/3/6 718/3/6
f 683/3/6 684/3/6 719/3/6
f 684/2/6 649/2/6 720/2/6
f 719/3/6 684/3/6 720/3/6
f 720/2/6 649/2/6 721/2/6
f 722/2/6 723/2/6 732/2/6
f 732/2/6 723/2/6 733/2/6
f 724/2/6 725/2/6 734/2/6
f 734/2/6 725/2/6 735/2/6
f 726/2/6 727/2/6 736/2/6
f 736/2/6 727/2/6 737/2/6
f 728/2/6 729/2/6 738/2/6
f 738/2/6 729/2/6 739/2/6
f 730/2/6 731/2/6 740/2/6
f 740/2/6 731/2/6 741/2/6
f 742/2/6 743/2/6 747/2/6
f 747/2/6 743/2/6 748/2/6
f 748/2/6 743/2/6 749/2/6
f 749/2/6 743/2/6 750/2/6
f 750/2/6 743/2/6 751/2/6
f 751/2/6 743/2/6 752/2/6
f 744/2/6 745/2/6 753/2/6
f 753/2/6 745/2/6 754/2/6
f 754/2/6 745/2/6 755/2/6
f 755/2/6 745/2/6 756/2/6
f 746/2/6 747/2/6 758/2/6
f 748/2/6 749/2/6 759/2/6
f 759/2/6 749/2/6 760/2/6
f 750/2/6 751/2/6 761/2/6
f 761/2/6 751/2/6 762/2/6
f 752/2/6 753/2/6 763/2/6
f 763/2/6 753/2/6 764/2/6
f 754/2/6 755/2/6 765/2/6
f 765/2/6 755/2/6 766/2/6
f 756/2/6 757/2/6 767/2/6
f 765/2/6 766/2/6 768/2/6
f 766/2/6 767/2/6 768/2/6
f 763/2/6 764/2/6 768/2/6
f 761/2/6 762/2/6 768/2/6
f 764/2/6 765/2/6 768/2/6
f 746/2/6 758/2/6 768/2/6
f 762/2/6 763/2/6 768/2/6
f 759/2/6 760/2/6 768/2/6
f 760/2/6 761/2/6 768/2/6
f 758/2/6 759/2/6 768/2/6
f 767/2/6 757/2/6 769/2/6
f 768/2/6 767/2/6 769/2/6
f 770/1/6 771/1/6 772/1/6
f 772/1/6 771/1/6 773/1/6
f 774/1/6 775/1/6 776/1/6
f 776/1/6 775/1/6 777/1/6
f 778/1/6 779/1/6 780/1/6
f 780/1/6 779/1/6 781/1/6
f 780/2/6 781/2/6 782/2/6
f 782/2/6 781/2/6 783/2/6
