# MagicaVoxel @ Ephtracy

# material
mtllib Cell_Wall.mtl
usemtl palette

# normals
vn -1 0 0
vn 1 0 0
vn 0 0 1
vn 0 0 -1
vn 0 -1 0
vn 0 1 0

# texcoords
vt 0.505859 0.5
vt 0.958984 0.5
vt 0.962891 0.5
vt 0.978516 0.5
vt 0.982422 0.5

# verts
v -22 1 -24
v -22 1 -25
v -22 9 -24
v -22 9 -25
v -22 10 -24
v -22 10 -25
v -22 24 -24
v -22 24 -25
v 24 1 -24
v 24 1 -25
v 24 9 -24
v 24 9 -25
v 24 10 -24
v 24 10 -25
v 24 24 -24
v 24 24 -25
v -22 1 -24
v -22 9 -24
v -22 10 -24
v -22 24 -24
v -21 19 -24
v -21 20 -24
v -19 19 -24
v -19 20 -24
v -19 21 -24
v -19 23 -24
v -18 19 -24
v -18 20 -24
v -18 21 -24
v -18 23 -24
v -17 19 -24
v -17 20 -24
v -17 21 -24
v -17 23 -24
v -16 19 -24
v -16 20 -24
v -16 21 -24
v -16 23 -24
v -15 19 -24
v -15 20 -24
v -15 21 -24
v -15 22 -24
v -15 23 -24
v -14 19 -24
v -14 21 -24
v -14 22 -24
v -14 23 -24
v -13 19 -24
v -13 21 -24
v -13 22 -24
v -13 23 -24
v -12 19 -24
v -12 21 -24
v -12 22 -24
v -12 23 -24
v -10 9 -24
v -10 10 -24
v -10 22 -24
v -10 23 -24
v -4 9 -24
v -4 10 -24
v 24 1 -24
v 24 9 -24
v 24 10 -24
v 24 24 -24
v -22 1 -25
v -22 9 -25
v -22 10 -25
v -22 24 -25
v -21 19 -25
v -21 20 -25
v -19 19 -25
v -19 20 -25
v -19 21 -25
v -19 23 -25
v -18 19 -25
v -18 20 -25
v -18 21 -25
v -18 23 -25
v -17 19 -25
v -17 20 -25
v -17 21 -25
v -17 23 -25
v -16 19 -25
v -16 20 -25
v -16 21 -25
v -16 23 -25
v -15 19 -25
v -15 20 -25
v -15 21 -25
v -15 22 -25
v -15 23 -25
v -14 19 -25
v -14 21 -25
v -14 22 -25
v -14 23 -25
v -13 19 -25
v -13 21 -25
v -13 22 -25
v -13 23 -25
v -12 19 -25
v -12 21 -25
v -12 22 -25
v -12 23 -25
v -10 9 -25
v -10 10 -25
v -10 22 -25
v -10 23 -25
v -4 9 -25
v -4 10 -25
v 24 1 -25
v 24 9 -25
v 24 10 -25
v 24 24 -25
v -22 1 -24
v 24 1 -24
v -22 1 -25
v 24 1 -25
v -22 24 -24
v 24 24 -24
v -22 24 -25
v 24 24 -25

# faces
f 3/5/1 2/5/1 1/5/1
f 4/5/1 2/5/1 3/5/1
f 5/4/1 4/4/1 3/4/1
f 6/4/1 4/4/1 5/4/1
f 7/5/1 6/5/1 5/5/1
f 8/5/1 6/5/1 7/5/1
f 9/5/2 10/5/2 11/5/2
f 11/5/2 10/5/2 12/5/2
f 11/4/2 12/4/2 13/4/2
f 13/4/2 12/4/2 14/4/2
f 13/5/2 14/5/2 15/5/2
f 15/5/2 14/5/2 16/5/2
f 21/5/3 20/5/3 19/5/3
f 22/5/3 20/5/3 21/5/3
f 23/5/3 21/5/3 19/5/3
f 23/3/3 22/3/3 21/3/3
f 24/5/3 20/5/3 22/5/3
f 24/3/3 22/3/3 23/3/3
f 25/5/3 20/5/3 24/5/3
f 26/5/3 20/5/3 25/5/3
f 27/5/3 23/5/3 19/5/3
f 27/2/3 24/2/3 23/2/3
f 28/3/3 25/3/3 24/3/3
f 28/2/3 24/2/3 27/2/3
f 29/2/3 26/2/3 25/2/3
f 29/3/3 25/3/3 28/3/3
f 30/5/3 20/5/3 26/5/3
f 30/2/3 26/2/3 29/2/3
f 31/5/3 28/5/3 27/5/3
f 31/5/3 27/5/3 19/5/3
f 32/3/3 29/3/3 28/3/3
f 32/5/3 28/5/3 31/5/3
f 33/5/3 30/5/3 29/5/3
f 33/3/3 29/3/3 32/3/3
f 34/5/3 20/5/3 30/5/3
f 34/5/3 30/5/3 33/5/3
f 35/5/3 31/5/3 19/5/3
f 35/2/3 32/2/3 31/2/3
f 36/3/3 33/3/3 32/3/3
f 36/2/3 32/2/3 35/2/3
f 37/2/3 34/2/3 33/2/3
f 37/3/3 33/3/3 36/3/3
f 38/5/3 20/5/3 34/5/3
f 38/2/3 34/2/3 37/2/3
f 39/5/3 35/5/3 19/5/3
f 39/5/3 36/5/3 35/5/3
f 40/3/3 37/3/3 36/3/3
f 40/5/3 36/5/3 39/5/3
f 41/5/3 38/5/3 37/5/3
f 41/3/3 37/3/3 40/3/3
f 42/5/3 38/5/3 41/5/3
f 43/5/3 20/5/3 38/5/3
f 43/5/3 38/5/3 42/5/3
f 44/5/3 39/5/3 19/5/3
f 44/2/3 40/2/3 39/2/3
f 44/2/3 41/2/3 40/2/3
f 45/3/3 42/3/3 41/3/3
f 45/2/3 41/2/3 44/2/3
f 46/2/3 43/2/3 42/2/3
f 46/3/3 42/3/3 45/3/3
f 47/5/3 20/5/3 43/5/3
f 47/2/3 43/2/3 46/2/3
f 48/5/3 44/5/3 19/5/3
f 48/5/3 45/5/3 44/5/3
f 49/3/3 46/3/3 45/3/3
f 49/5/3 45/5/3 48/5/3
f 50/5/3 47/5/3 46/5/3
f 50/3/3 46/3/3 49/3/3
f 51/5/3 20/5/3 47/5/3
f 51/5/3 47/5/3 50/5/3
f 52/5/3 48/5/3 19/5/3
f 52/2/3 49/2/3 48/2/3
f 53/3/3 50/3/3 49/3/3
f 53/2/3 49/2/3 52/2/3
f 54/2/3 51/2/3 50/2/3
f 54/3/3 50/3/3 53/3/3
f 55/5/3 20/5/3 51/5/3
f 55/2/3 51/2/3 54/2/3
f 56/5/3 18/5/3 17/5/3
f 56/4/3 19/4/3 18/4/3
f 57/5/3 54/5/3 53/5/3
f 57/4/3 19/4/3 56/4/3
f 57/5/3 52/5/3 19/5/3
f 57/5/3 53/5/3 52/5/3
f 58/3/3 55/3/3 54/3/3
f 58/5/3 54/5/3 57/5/3
f 59/5/3 20/5/3 55/5/3
f 59/3/3 55/3/3 58/3/3
f 60/1/3 57/1/3 56/1/3
f 60/5/3 56/5/3 17/5/3
f 61/5/3 58/5/3 57/5/3
f 61/1/3 57/1/3 60/1/3
f 61/5/3 59/5/3 58/5/3
f 62/5/3 60/5/3 17/5/3
f 63/4/3 61/4/3 60/4/3
f 63/5/3 60/5/3 62/5/3
f 64/5/3 59/5/3 61/5/3
f 64/4/3 61/4/3 63/4/3
f 65/5/3 20/5/3 59/5/3
f 65/5/3 59/5/3 64/5/3
f 68/5/4 69/5/4 70/5/4
f 70/5/4 69/5/4 71/5/4
f 68/5/4 70/5/4 72/5/4
f 70/3/4 71/3/4 72/3/4
f 71/5/4 69/5/4 73/5/4
f 72/3/4 71/3/4 73/3/4
f 73/5/4 69/5/4 74/5/4
f 74/5/4 69/5/4 75/5/4
f 68/5/4 72/5/4 76/5/4
f 72/2/4 73/2/4 76/2/4
f 73/3/4 74/3/4 77/3/4
f 76/2/4 73/2/4 77/2/4
f 74/2/4 75/2/4 78/2/4
f 77/3/4 74/3/4 78/3/4
f 75/5/4 69/5/4 79/5/4
f 78/2/4 75/2/4 79/2/4
f 76/5/4 77/5/4 80/5/4
f 68/5/4 76/5/4 80/5/4
f 77/3/4 78/3/4 81/3/4
f 80/5/4 77/5/4 81/5/4
f 78/5/4 79/5/4 82/5/4
f 81/3/4 78/3/4 82/3/4
f 79/5/4 69/5/4 83/5/4
f 82/5/4 79/5/4 83/5/4
f 68/5/4 80/5/4 84/5/4
f 80/2/4 81/2/4 84/2/4
f 81/3/4 82/3/4 85/3/4
f 84/2/4 81/2/4 85/2/4
f 82/2/4 83/2/4 86/2/4
f 85/3/4 82/3/4 86/3/4
f 83/5/4 69/5/4 87/5/4
f 86/2/4 83/2/4 87/2/4
f 68/5/4 84/5/4 88/5/4
f 84/5/4 85/5/4 88/5/4
f 85/3/4 86/3/4 89/3/4
f 88/5/4 85/5/4 89/5/4
f 86/5/4 87/5/4 90/5/4
f 89/3/4 86/3/4 90/3/4
f 90/5/4 87/5/4 91/5/4
f 87/5/4 69/5/4 92/5/4
f 91/5/4 87/5/4 92/5/4
f 68/5/4 88/5/4 93/5/4
f 88/2/4 89/2/4 93/2/4
f 89/2/4 90/2/4 93/2/4
f 90/3/4 91/3/4 94/3/4
f 93/2/4 90/2/4 94/2/4
f 91/2/4 92/2/4 95/2/4
f 94/3/4 91/3/4 95/3/4
f 92/5/4 69/5/4 96/5/4
f 95/2/4 92/2/4 96/2/4
f 68/5/4 93/5/4 97/5/4
f 93/5/4 94/5/4 97/5/4
f 94/3/4 95/3/4 98/3/4
f 97/5/4 94/5/4 98/5/4
f 95/5/4 96/5/4 99/5/4
f 98/3/4 95/3/4 99/3/4
f 96/5/4 69/5/4 100/5/4
f 99/5/4 96/5/4 100/5/4
f 68/5/4 97/5/4 101/5/4
f 97/2/4 98/2/4 101/2/4
f 98/3/4 99/3/4 102/3/4
f 101/2/4 98/2/4 102/2/4
f 99/2/4 100/2/4 103/2/4
f 102/3/4 99/3/4 103/3/4
f 100/5/4 69/5/4 104/5/4
f 103/2/4 100/2/4 104/2/4
f 66/5/4 67/5/4 105/5/4
f 67/4/4 68/4/4 105/4/4
f 102/5/4 103/5/4 106/5/4
f 105/4/4 68/4/4 106/4/4
f 68/5/4 101/5/4 106/5/4
f 101/5/4 102/5/4 106/5/4
f 103/3/4 104/3/4 107/3/4
f 106/5/4 103/5/4 107/5/4
f 104/5/4 69/5/4 108/5/4
f 107/3/4 104/3/4 108/3/4
f 105/1/4 106/1/4 109/1/4
f 66/5/4 105/5/4 109/5/4
f 106/5/4 107/5/4 110/5/4
f 109/1/4 106/1/4 110/1/4
f 107/5/4 108/5/4 110/5/4
f 66/5/4 109/5/4 111/5/4
f 109/4/4 110/4/4 112/4/4
f 111/5/4 109/5/4 112/5/4
f 110/5/4 108/5/4 113/5/4
f 112/4/4 110/4/4 113/4/4
f 108/5/4 69/5/4 114/5/4
f 113/5/4 108/5/4 114/5/4
f 117/5/5 116/5/5 115/5/5
f 118/5/5 116/5/5 117/5/5
f 119/5/6 120/5/6 121/5/6
f 121/5/6 120/5/6 122/5/6
