# MagicaVoxel @ Ephtracy

# material
mtllib Cell_Floor_2.mtl
usemtl palette

# normals
vn -1 0 0
vn 1 0 0
vn 0 0 1
vn 0 0 -1
vn 0 -1 0
vn 0 1 0

# texcoords
vt 0.169922 0.5
vt 0.337891 0.5
vt 0.505859 0.5
vt 0.974609 0.5
vt 0.978516 0.5

# verts
v -22 0 -1
v -22 0 -24
v -22 1 -1
v -22 1 -24
v 24 0 -1
v 24 0 -2
v 24 0 -21
v 24 0 -22
v 24 0 -24
v 24 1 -1
v 24 1 -2
v 24 1 -21
v 24 1 -22
v 24 1 -24
v -22 0 -1
v -22 1 -1
v 13 0 -1
v 13 1 -1
v 15 0 -1
v 15 1 -1
v 19 0 -1
v 19 1 -1
v 20 0 -1
v 20 1 -1
v 22 0 -1
v 22 1 -1
v 24 0 -1
v 24 1 -1
v -22 0 -24
v -22 1 -24
v 11 0 -24
v 11 1 -24
v 12 0 -24
v 12 1 -24
v 13 0 -24
v 13 1 -24
v 15 0 -24
v 15 1 -24
v 19 0 -24
v 19 1 -24
v 20 0 -24
v 20 1 -24
v 22 0 -24
v 22 1 -24
v 24 0 -24
v 24 1 -24
v -22 0 -1
v 13 0 -1
v 15 0 -1
v 19 0 -1
v 20 0 -1
v 22 0 -1
v 24 0 -1
v -11 0 -2
v -8 0 -2
v 7 0 -2
v 8 0 -2
v 13 0 -2
v 15 0 -2
v 19 0 -2
v 20 0 -2
v 22 0 -2
v 24 0 -2
v -11 0 -3
v -10 0 -3
v -8 0 -3
v -5 0 -3
v 7 0 -3
v 8 0 -3
v -18 0 -4
v -14 0 -4
v -11 0 -4
v -10 0 -4
v -5 0 -4
v -4 0 -4
v -21 0 -5
v -18 0 -5
v -16 0 -5
v -14 0 -5
v -11 0 -5
v -10 0 -5
v -8 0 -5
v -6 0 -5
v -16 0 -6
v -14 0 -6
v -11 0 -7
v -10 0 -7
v -8 0 -7
v -6 0 -7
v 5 0 -7
v 8 0 -7
v 10 0 -7
v -16 0 -8
v -14 0 -8
v -4 0 -8
v -3 0 -8
v -11 0 -9
v -10 0 -9
v -19 0 -10
v -18 0 -10
v -17 0 -10
v -16 0 -10
v -3 0 -10
v 0 0 -10
v 3 0 -10
v 5 0 -10
v 8 0 -10
v -21 0 -12
v -19 0 -12
v -13 0 -12
v -10 0 -12
v 3 0 -12
v 6 0 -12
v -18 0 -13
v -17 0 -13
v -13 0 -13
v -11 0 -13
v 6 0 -14
v 10 0 -14
v -3 0 -15
v 0 0 -15
v 2 0 -15
v 6 0 -15
v 7 0 -15
v 10 0 -15
v -11 0 -17
v -10 0 -17
v -3 0 -17
v -1 0 -17
v 7 0 -18
v 10 0 -18
v -10 0 -19
v -3 0 -19
v -1 0 -19
v 2 0 -19
v 6 0 -19
v 9 0 -19
v 11 0 -20
v 12 0 -20
v 6 0 -21
v 9 0 -21
v 10 0 -21
v 11 0 -21
v 13 0 -21
v 14 0 -21
v 23 0 -21
v 24 0 -21
v 10 0 -22
v 11 0 -22
v 12 0 -22
v 13 0 -22
v 14 0 -22
v 15 0 -22
v 20 0 -22
v 22 0 -22
v 23 0 -22
v 24 0 -22
v 11 0 -23
v 12 0 -23
v 13 0 -23
v 14 0 -23
v 19 0 -23
v 20 0 -23
v 22 0 -23
v 23 0 -23
v -22 0 -24
v 11 0 -24
v 12 0 -24
v 13 0 -24
v 15 0 -24
v 19 0 -24
v 20 0 -24
v 22 0 -24
v 24 0 -24
v -22 1 -1
v 13 1 -1
v 15 1 -1
v 19 1 -1
v 20 1 -1
v 22 1 -1
v 24 1 -1
v -11 1 -2
v -8 1 -2
v 7 1 -2
v 8 1 -2
v 13 1 -2
v 15 1 -2
v 19 1 -2
v 20 1 -2
v 22 1 -2
v 24 1 -2
v -11 1 -3
v -10 1 -3
v -8 1 -3
v -5 1 -3
v 7 1 -3
v 8 1 -3
v -18 1 -4
v -14 1 -4
v -11 1 -4
v -10 1 -4
v -5 1 -4
v -4 1 -4
v -21 1 -5
v -18 1 -5
v -16 1 -5
v -14 1 -5
v -11 1 -5
v -10 1 -5
v -8 1 -5
v -6 1 -5
v -16 1 -6
v -14 1 -6
v -11 1 -7
v -10 1 -7
v -8 1 -7
v -6 1 -7
v 5 1 -7
v 8 1 -7
v 10 1 -7
v -16 1 -8
v -14 1 -8
v -4 1 -8
v -3 1 -8
v -11 1 -9
v -10 1 -9
v -19 1 -10
v -18 1 -10
v -17 1 -10
v -16 1 -10
v -3 1 -10
v 0 1 -10
v 3 1 -10
v 5 1 -10
v 8 1 -10
v -21 1 -12
v -19 1 -12
v -13 1 -12
v -10 1 -12
v 3 1 -12
v 6 1 -12
v -18 1 -13
v -17 1 -13
v -13 1 -13
v -11 1 -13
v 6 1 -14
v 10 1 -14
v -3 1 -15
v 0 1 -15
v 2 1 -15
v 6 1 -15
v 7 1 -15
v 10 1 -15
v -11 1 -17
v -10 1 -17
v -3 1 -17
v -1 1 -17
v 7 1 -18
v 10 1 -18
v -10 1 -19
v -3 1 -19
v -1 1 -19
v 2 1 -19
v 6 1 -19
v 9 1 -19
v 11 1 -20
v 12 1 -20
v 6 1 -21
v 9 1 -21
v 10 1 -21
v 11 1 -21
v 13 1 -21
v 14 1 -21
v 23 1 -21
v 24 1 -21
v 10 1 -22
v 11 1 -22
v 12 1 -22
v 13 1 -22
v 14 1 -22
v 15 1 -22
v 20 1 -22
v 22 1 -22
v 23 1 -22
v 24 1 -22
v 11 1 -23
v 12 1 -23
v 13 1 -23
v 14 1 -23
v 19 1 -23
v 20 1 -23
v 22 1 -23
v 23 1 -23
v -22 1 -24
v 11 1 -24
v 12 1 -24
v 13 1 -24
v 15 1 -24
v 19 1 -24
v 20 1 -24
v 22 1 -24
v 24 1 -24

# faces
f 3/4/1 2/4/1 1/4/1
f 4/4/1 2/4/1 3/4/1
f 5/5/2 6/5/2 10/5/2
f 6/4/2 7/4/2 11/4/2
f 10/5/2 6/5/2 11/5/2
f 7/1/2 8/1/2 12/1/2
f 11/4/2 7/4/2 12/4/2
f 8/5/2 9/5/2 13/5/2
f 12/1/2 8/1/2 13/1/2
f 13/5/2 9/5/2 14/5/2
f 17/4/3 16/4/3 15/4/3
f 18/4/3 16/4/3 17/4/3
f 19/5/3 18/5/3 17/5/3
f 20/5/3 18/5/3 19/5/3
f 21/4/3 20/4/3 19/4/3
f 22/4/3 20/4/3 21/4/3
f 23/5/3 22/5/3 21/5/3
f 24/5/3 22/5/3 23/5/3
f 25/3/3 24/3/3 23/3/3
f 26/3/3 24/3/3 25/3/3
f 27/5/3 26/5/3 25/5/3
f 28/5/3 26/5/3 27/5/3
f 29/4/4 30/4/4 31/4/4
f 31/4/4 30/4/4 32/4/4
f 31/5/4 32/5/4 33/5/4
f 33/5/4 32/5/4 34/5/4
f 33/4/4 34/4/4 35/4/4
f 35/4/4 34/4/4 36/4/4
f 35/5/4 36/5/4 37/5/4
f 37/5/4 36/5/4 38/5/4
f 37/4/4 38/4/4 39/4/4
f 39/4/4 38/4/4 40/4/4
f 39/5/4 40/5/4 41/5/4
f 41/5/4 40/5/4 42/5/4
f 41/3/4 42/3/4 43/3/4
f 43/3/4 42/3/4 44/3/4
f 43/5/4 44/5/4 45/5/4
f 45/5/4 44/5/4 46/5/4
f 54/4/5 48/4/5 47/4/5
f 55/4/5 48/4/5 54/4/5
f 56/4/5 48/4/5 55/4/5
f 57/4/5 48/4/5 56/4/5
f 58/5/5 49/5/5 48/5/5
f 58/4/5 48/4/5 57/4/5
f 59/4/5 50/4/5 49/4/5
f 59/5/5 49/5/5 58/5/5
f 60/5/5 51/5/5 50/5/5
f 60/4/5 50/4/5 59/4/5
f 61/3/5 52/3/5 51/3/5
f 61/5/5 51/5/5 60/5/5
f 62/5/5 53/5/5 52/5/5
f 62/3/5 52/3/5 61/3/5
f 63/5/5 53/5/5 62/5/5
f 64/4/5 54/4/5 47/4/5
f 64/5/5 55/5/5 54/5/5
f 65/5/5 55/5/5 64/5/5
f 66/4/5 56/4/5 55/4/5
f 66/5/5 55/5/5 65/5/5
f 67/4/5 56/4/5 66/4/5
f 68/5/5 57/5/5 56/5/5
f 68/4/5 56/4/5 67/4/5
f 69/4/5 61/4/5 60/4/5
f 69/5/5 57/5/5 68/5/5
f 69/4/5 58/4/5 57/4/5
f 69/4/5 59/4/5 58/4/5
f 69/4/5 60/4/5 59/4/5
f 69/4/5 62/4/5 61/4/5
f 69/4/5 63/4/5 62/4/5
f 70/4/5 64/4/5 47/4/5
f 70/4/5 65/4/5 64/4/5
f 71/4/5 65/4/5 70/4/5
f 72/4/5 65/4/5 71/4/5
f 73/5/5 67/5/5 66/5/5
f 73/4/5 65/4/5 72/4/5
f 73/5/5 66/5/5 65/5/5
f 74/4/5 68/4/5 67/4/5
f 74/5/5 67/5/5 73/5/5
f 74/4/5 69/4/5 68/4/5
f 75/4/5 69/4/5 74/4/5
f 76/4/5 70/4/5 47/4/5
f 77/5/5 71/5/5 70/5/5
f 77/4/5 70/4/5 76/4/5
f 78/5/5 71/5/5 77/5/5
f 79/4/5 72/4/5 71/4/5
f 79/5/5 71/5/5 78/5/5
f 80/5/5 73/5/5 72/5/5
f 80/4/5 72/4/5 79/4/5
f 80/5/5 74/5/5 73/5/5
f 80/5/5 75/5/5 74/5/5
f 81/5/5 75/5/5 80/5/5
f 82/5/5 75/5/5 81/5/5
f 83/5/5 75/5/5 82/5/5
f 84/4/5 79/4/5 78/4/5
f 84/5/5 78/5/5 77/5/5
f 84/5/5 77/5/5 76/5/5
f 84/4/5 80/4/5 79/4/5
f 84/4/5 81/4/5 80/4/5
f 85/4/5 81/4/5 84/4/5
f 86/4/5 81/4/5 85/4/5
f 87/5/5 82/5/5 81/5/5
f 87/4/5 81/4/5 86/4/5
f 88/4/5 83/4/5 82/4/5
f 88/5/5 82/5/5 87/5/5
f 89/5/5 75/5/5 83/5/5
f 89/4/5 83/4/5 88/4/5
f 90/4/5 69/4/5 75/4/5
f 91/4/5 63/4/5 69/4/5
f 91/4/5 69/4/5 90/4/5
f 92/4/5 63/4/5 91/4/5
f 93/5/5 84/5/5 76/5/5
f 93/5/5 85/5/5 84/5/5
f 94/4/5 86/4/5 85/4/5
f 94/5/5 85/5/5 93/5/5
f 95/5/5 88/5/5 87/5/5
f 95/5/5 87/5/5 86/5/5
f 95/4/5 90/4/5 75/4/5
f 95/5/5 75/5/5 89/5/5
f 95/5/5 89/5/5 88/5/5
f 96/4/5 90/4/5 95/4/5
f 97/4/5 86/4/5 94/4/5
f 97/4/5 94/4/5 93/4/5
f 97/5/5 96/5/5 95/5/5
f 97/5/5 95/5/5 86/5/5
f 98/5/5 96/5/5 97/5/5
f 99/5/5 93/5/5 76/5/5
f 100/5/5 93/5/5 99/5/5
f 101/5/5 93/5/5 100/5/5
f 102/4/5 97/4/5 93/4/5
f 102/5/5 93/5/5 101/5/5
f 102/4/5 98/4/5 97/4/5
f 103/4/5 90/4/5 96/4/5
f 103/5/5 96/5/5 98/5/5
f 104/4/5 90/4/5 103/4/5
f 105/4/5 90/4/5 104/4/5
f 106/5/5 91/5/5 90/5/5
f 106/4/5 90/4/5 105/4/5
f 107/2/5 92/2/5 91/2/5
f 107/5/5 91/5/5 106/5/5
f 108/4/5 76/4/5 47/4/5
f 108/5/5 99/5/5 76/5/5
f 109/4/5 100/4/5 99/4/5
f 109/5/5 99/5/5 108/5/5
f 110/4/5 98/4/5 102/4/5
f 110/4/5 102/4/5 101/4/5
f 111/5/5 103/5/5 98/5/5
f 111/4/5 98/4/5 110/4/5
f 111/5/5 104/5/5 103/5/5
f 112/4/5 105/4/5 104/4/5
f 112/2/5 106/2/5 105/2/5
f 112/2/5 107/2/5 106/2/5
f 113/2/5 107/2/5 112/2/5
f 114/4/5 100/4/5 109/4/5
f 114/4/5 109/4/5 108/4/5
f 114/5/5 101/5/5 100/5/5
f 115/4/5 110/4/5 101/4/5
f 115/5/5 101/5/5 114/5/5
f 116/5/5 111/5/5 110/5/5
f 116/4/5 110/4/5 115/4/5
f 117/5/5 111/5/5 116/5/5
f 118/2/5 107/2/5 113/2/5
f 118/4/5 113/4/5 112/4/5
f 119/4/5 63/4/5 92/4/5
f 119/2/5 107/2/5 118/2/5
f 119/2/5 92/2/5 107/2/5
f 120/5/5 111/5/5 117/5/5
f 120/5/5 104/5/5 111/5/5
f 121/4/5 118/4/5 112/4/5
f 121/5/5 104/5/5 120/5/5
f 121/4/5 119/4/5 118/4/5
f 121/4/5 112/4/5 104/4/5
f 122/4/5 119/4/5 121/4/5
f 123/4/5 119/4/5 122/4/5
f 124/4/5 119/4/5 123/4/5
f 125/4/5 63/4/5 119/4/5
f 125/4/5 119/4/5 124/4/5
f 126/5/5 120/5/5 117/5/5
f 126/4/5 116/4/5 115/4/5
f 126/4/5 115/4/5 114/4/5
f 126/4/5 117/4/5 116/4/5
f 127/5/5 120/5/5 126/5/5
f 128/4/5 122/4/5 121/4/5
f 128/5/5 120/5/5 127/5/5
f 128/4/5 121/4/5 120/4/5
f 129/4/5 122/4/5 128/4/5
f 130/4/5 124/4/5 123/4/5
f 130/5/5 125/5/5 124/5/5
f 131/4/5 63/4/5 125/4/5
f 131/5/5 125/5/5 130/5/5
f 132/4/5 127/4/5 126/4/5
f 132/5/5 128/5/5 127/5/5
f 133/3/5 129/3/5 128/3/5
f 133/5/5 128/5/5 132/5/5
f 134/4/5 122/4/5 129/4/5
f 134/3/5 129/3/5 133/3/5
f 135/5/5 123/5/5 122/5/5
f 135/4/5 122/4/5 134/4/5
f 136/4/5 130/4/5 123/4/5
f 136/5/5 123/5/5 135/5/5
f 136/4/5 131/4/5 130/4/5
f 137/4/5 131/4/5 136/4/5
f 138/4/5 63/4/5 131/4/5
f 138/4/5 131/4/5 137/4/5
f 139/4/5 63/4/5 138/4/5
f 140/4/5 133/4/5 132/4/5
f 140/4/5 135/4/5 134/4/5
f 140/4/5 134/4/5 133/4/5
f 140/5/5 137/5/5 136/5/5
f 140/4/5 136/4/5 135/4/5
f 141/4/5 138/4/5 137/4/5
f 141/5/5 137/5/5 140/5/5
f 142/4/5 138/4/5 141/4/5
f 143/2/5 139/2/5 138/2/5
f 143/4/5 138/4/5 142/4/5
f 144/4/5 63/4/5 139/4/5
f 145/4/5 63/4/5 144/4/5
f 146/4/5 63/4/5 145/4/5
f 147/4/5 63/4/5 146/4/5
f 148/4/5 142/4/5 141/4/5
f 148/4/5 141/4/5 140/4/5
f 148/2/5 143/2/5 142/2/5
f 149/2/5 139/2/5 143/2/5
f 149/2/5 143/2/5 148/2/5
f 150/4/5 144/4/5 139/4/5
f 150/2/5 139/2/5 149/2/5
f 151/2/5 145/2/5 144/2/5
f 151/4/5 144/4/5 150/4/5
f 152/4/5 146/4/5 145/4/5
f 152/2/5 145/2/5 151/2/5
f 153/4/5 146/4/5 152/4/5
f 154/4/5 146/4/5 153/4/5
f 155/4/5 146/4/5 154/4/5
f 156/1/5 147/1/5 146/1/5
f 156/4/5 146/4/5 155/4/5
f 157/1/5 147/1/5 156/1/5
f 158/2/5 151/2/5 150/2/5
f 158/4/5 149/4/5 148/4/5
f 158/2/5 150/2/5 149/2/5
f 158/2/5 152/2/5 151/2/5
f 159/2/5 152/2/5 158/2/5
f 160/2/5 152/2/5 159/2/5
f 161/5/5 153/5/5 152/5/5
f 161/2/5 152/2/5 160/2/5
f 162/4/5 154/4/5 153/4/5
f 163/3/5 155/3/5 154/3/5
f 163/4/5 154/4/5 162/4/5
f 164/1/5 156/1/5 155/1/5
f 164/3/5 155/3/5 163/3/5
f 165/5/5 157/5/5 156/5/5
f 165/1/5 156/1/5 164/1/5
f 166/4/5 148/4/5 140/4/5
f 166/4/5 132/4/5 126/4/5
f 166/4/5 114/4/5 108/4/5
f 166/4/5 140/4/5 132/4/5
f 166/4/5 126/4/5 114/4/5
f 166/4/5 158/4/5 148/4/5
f 166/4/5 108/4/5 47/4/5
f 167/5/5 159/5/5 158/5/5
f 167/4/5 158/4/5 166/4/5
f 168/4/5 160/4/5 159/4/5
f 168/5/5 159/5/5 167/5/5
f 169/5/5 161/5/5 160/5/5
f 169/4/5 160/4/5 168/4/5
f 170/5/5 153/5/5 161/5/5
f 170/5/5 161/5/5 169/5/5
f 170/4/5 162/4/5 153/4/5
f 171/5/5 163/5/5 162/5/5
f 171/4/5 162/4/5 170/4/5
f 172/3/5 164/3/5 163/3/5
f 172/5/5 163/5/5 171/5/5
f 173/5/5 165/5/5 164/5/5
f 173/3/5 164/3/5 172/3/5
f 174/5/5 157/5/5 165/5/5
f 174/5/5 165/5/5 173/5/5
f 175/4/6 176/4/6 182/4/6
f 182/4/6 176/4/6 183/4/6
f 183/4/6 176/4/6 184/4/6
f 184/4/6 176/4/6 185/4/6
f 176/5/6 177/5/6 186/5/6
f 185/4/6 176/4/6 186/4/6
f 177/4/6 178/4/6 187/4/6
f 186/5/6 177/5/6 187/5/6
f 178/5/6 179/5/6 188/5/6
f 187/4/6 178/4/6 188/4/6
f 179/3/6 180/3/6 189/3/6
f 188/5/6 179/5/6 189/5/6
f 180/5/6 181/5/6 190/5/6
f 189/3/6 180/3/6 190/3/6
f 190/5/6 181/5/6 191/5/6
f 175/4/6 182/4/6 192/4/6
f 182/5/6 183/5/6 192/5/6
f 192/5/6 183/5/6 193/5/6
f 183/4/6 184/4/6 194/4/6
f 193/5/6 183/5/6 194/5/6
f 194/4/6 184/4/6 195/4/6
f 184/5/6 185/5/6 196/5/6
f 195/4/6 184/4/6 196/4/6
f 188/4/6 189/4/6 197/4/6
f 196/5/6 185/5/6 197/5/6
f 185/4/6 186/4/6 197/4/6
f 186/4/6 187/4/6 197/4/6
f 187/4/6 188/4/6 197/4/6
f 189/4/6 190/4/6 197/4/6
f 190/4/6 191/4/6 197/4/6
f 175/4/6 192/4/6 198/4/6
f 192/4/6 193/4/6 198/4/6
f 198/4/6 193/4/6 199/4/6
f 199/4/6 193/4/6 200/4/6
f 194/5/6 195/5/6 201/5/6
f 200/4/6 193/4/6 201/4/6
f 193/5/6 194/5/6 201/5/6
f 195/4/6 196/4/6 202/4/6
f 201/5/6 195/5/6 202/5/6
f 196/4/6 197/4/6 202/4/6
f 202/4/6 197/4/6 203/4/6
f 175/4/6 198/4/6 204/4/6
f 198/5/6 199/5/6 205/5/6
f 204/4/6 198/4/6 205/4/6
f 205/5/6 199/5/6 206/5/6
f 199/4/6 200/4/6 207/4/6
f 206/5/6 199/5/6 207/5/6
f 200/5/6 201/5/6 208/5/6
f 207/4/6 200/4/6 208/4/6
f 201/5/6 202/5/6 208/5/6
f 202/5/6 203/5/6 208/5/6
f 208/5/6 203/5/6 209/5/6
f 209/5/6 203/5/6 210/5/6
f 210/5/6 203/5/6 211/5/6
f 206/4/6 207/4/6 212/4/6
f 205/5/6 206/5/6 212/5/6
f 204/5/6 205/5/6 212/5/6
f 207/4/6 208/4/6 212/4/6
f 208/4/6 209/4/6 212/4/6
f 212/4/6 209/4/6 213/4/6
f 213/4/6 209/4/6 214/4/6
f 209/5/6 210/5/6 215/5/6
f 214/4/6 209/4/6 215/4/6
f 210/4/6 211/4/6 216/4/6
f 215/5/6 210/5/6 216/5/6
f 211/5/6 203/5/6 217/5/6
f 216/4/6 211/4/6 217/4/6
f 203/4/6 197/4/6 218/4/6
f 197/4/6 191/4/6 219/4/6
f 218/4/6 197/4/6 219/4/6
f 219/4/6 191/4/6 220/4/6
f 204/5/6 212/5/6 221/5/6
f 212/5/6 213/5/6 221/5/6
f 213/4/6 214/4/6 222/4/6
f 221/5/6 213/5/6 222/5/6
f 215/5/6 216/5/6 223/5/6
f 214/5/6 215/5/6 223/5/6
f 203/4/6 218/4/6 223/4/6
f 217/5/6 203/5/6 223/5/6
f 216/5/6 217/5/6 223/5/6
f 223/4/6 218/4/6 224/4/6
f 222/4/6 214/4/6 225/4/6
f 221/4/6 222/4/6 225/4/6
f 223/5/6 224/5/6 225/5/6
f 214/5/6 223/5/6 225/5/6
f 225/5/6 224/5/6 226/5/6
f 204/5/6 221/5/6 227/5/6
f 227/5/6 221/5/6 228/5/6
f 228/5/6 221/5/6 229/5/6
f 221/4/6 225/4/6 230/4/6
f 229/5/6 221/5/6 230/5/6
f 225/4/6 226/4/6 230/4/6
f 224/4/6 218/4/6 231/4/6
f 226/5/6 224/5/6 231/5/6
f 231/4/6 218/4/6 232/4/6
f 232/4/6 218/4/6 233/4/6
f 218/5/6 219/5/6 234/5/6
f 233/4/6 218/4/6 234/4/6
f 219/2/6 220/2/6 235/2/6
f 234/5/6 219/5/6 235/5/6
f 175/4/6 204/4/6 236/4/6
f 204/5/6 227/5/6 236/5/6
f 227/4/6 228/4/6 237/4/6
f 236/5/6 227/5/6 237/5/6
f 230/4/6 226/4/6 238/4/6
f 229/4/6 230/4/6 238/4/6
f 226/5/6 231/5/6 239/5/6
f 238/4/6 226/4/6 239/4/6
f 231/5/6 232/5/6 239/5/6
f 232/4/6 233/4/6 240/4/6
f 233/2/6 234/2/6 240/2/6
f 234/2/6 235/2/6 240/2/6
f 240/2/6 235/2/6 241/2/6
f 237/4/6 228/4/6 242/4/6
f 236/4/6 237/4/6 242/4/6
f 228/5/6 229/5/6 242/5/6
f 229/4/6 238/4/6 243/4/6
f 242/5/6 229/5/6 243/5/6
f 238/5/6 239/5/6 244/5/6
f 243/4/6 238/4/6 244/4/6
f 244/5/6 239/5/6 245/5/6
f 241/2/6 235/2/6 246/2/6
f 240/4/6 241/4/6 246/4/6
f 220/4/6 191/4/6 247/4/6
f 246/2/6 235/2/6 247/2/6
f 235/2/6 220/2/6 247/2/6
f 245/5/6 239/5/6 248/5/6
f 239/5/6 232/5/6 248/5/6
f 240/4/6 246/4/6 249/4/6
f 248/5/6 232/5/6 249/5/6
f 246/4/6 247/4/6 249/4/6
f 232/4/6 240/4/6 249/4/6
f 249/4/6 247/4/6 250/4/6
f 250/4/6 247/4/6 251/4/6
f 251/4/6 247/4/6 252/4/6
f 247/4/6 191/4/6 253/4/6
f 252/4/6 247/4/6 253/4/6
f 245/5/6 248/5/6 254/5/6
f 243/4/6 244/4/6 254/4/6
f 242/4/6 243/4/6 254/4/6
f 244/4/6 245/4/6 254/4/6
f 254/5/6 248/5/6 255/5/6
f 249/4/6 250/4/6 256/4/6
f 255/5/6 248/5/6 256/5/6
f 248/4/6 249/4/6 256/4/6
f 256/4/6 250/4/6 257/4/6
f 251/4/6 252/4/6 258/4/6
f 252/5/6 253/5/6 258/5/6
f 253/4/6 191/4/6 259/4/6
f 258/5/6 253/5/6 259/5/6
f 254/4/6 255/4/6 260/4/6
f 255/5/6 256/5/6 260/5/6
f 256/3/6 257/3/6 261/3/6
f 260/5/6 256/5/6 261/5/6
f 257/4/6 250/4/6 262/4/6
f 261/3/6 257/3/6 262/3/6
f 250/5/6 251/5/6 263/5/6
f 262/4/6 250/4/6 263/4/6
f 251/4/6 258/4/6 264/4/6
f 263/5/6 251/5/6 264/5/6
f 258/4/6 259/4/6 264/4/6
f 264/4/6 259/4/6 265/4/6
f 259/4/6 191/4/6 266/4/6
f 265/4/6 259/4/6 266/4/6
f 266/4/6 191/4/6 267/4/6
f 260/4/6 261/4/6 268/4/6
f 262/4/6 263/4/6 268/4/6
f 261/4/6 262/4/6 268/4/6
f 264/5/6 265/5/6 268/5/6
f 263/4/6 264/4/6 268/4/6
f 265/4/6 266/4/6 269/4/6
f 268/5/6 265/5/6 269/5/6
f 269/4/6 266/4/6 270/4/6
f 266/2/6 267/2/6 271/2/6
f 270/4/6 266/4/6 271/4/6
f 267/4/6 191/4/6 272/4/6
f 272/4/6 191/4/6 273/4/6
f 273/4/6 191/4/6 274/4/6
f 274/4/6 191/4/6 275/4/6
f 269/4/6 270/4/6 276/4/6
f 268/4/6 269/4/6 276/4/6
f 270/2/6 271/2/6 276/2/6
f 271/2/6 267/2/6 277/2/6
f 276/2/6 271/2/6 277/2/6
f 267/4/6 272/4/6 278/4/6
f 277/2/6 267/2/6 278/2/6
f 272/2/6 273/2/6 279/2/6
f 278/4/6 272/4/6 279/4/6
f 273/4/6 274/4/6 280/4/6
f 279/2/6 273/2/6 280/2/6
f 280/4/6 274/4/6 281/4/6
f 281/4/6 274/4/6 282/4/6
f 282/4/6 274/4/6 283/4/6
f 274/1/6 275/1/6 284/1/6
f 283/4/6 274/4/6 284/4/6
f 284/1/6 275/1/6 285/1/6
f 278/2/6 279/2/6 286/2/6
f 276/4/6 277/4/6 286/4/6
f 277/2/6 278/2/6 286/2/6
f 279/2/6 280/2/6 286/2/6
f 286/2/6 280/2/6 287/2/6
f 287/2/6 280/2/6 288/2/6
f 280/5/6 281/5/6 289/5/6
f 288/2/6 280/2/6 289/2/6
f 281/4/6 282/4/6 290/4/6
f 282/3/6 283/3/6 291/3/6
f 290/4/6 282/4/6 291/4/6
f 283/1/6 284/1/6 292/1/6
f 291/3/6 283/3/6 292/3/6
f 284/5/6 285/5/6 293/5/6
f 292/1/6 284/1/6 293/1/6
f 268/4/6 276/4/6 294/4/6
f 254/4/6 260/4/6 294/4/6
f 236/4/6 242/4/6 294/4/6
f 260/4/6 268/4/6 294/4/6
f 242/4/6 254/4/6 294/4/6
f 276/4/6 286/4/6 294/4/6
f 175/4/6 236/4/6 294/4/6
f 286/5/6 287/5/6 295/5/6
f 294/4/6 286/4/6 295/4/6
f 287/4/6 288/4/6 296/4/6
f 295/5/6 287/5/6 296/5/6
f 288/5/6 289/5/6 297/5/6
f 296/4/6 288/4/6 297/4/6
f 289/5/6 281/5/6 298/5/6
f 297/5/6 289/5/6 298/5/6
f 281/4/6 290/4/6 298/4/6
f 290/5/6 291/5/6 299/5/6
f 298/4/6 290/4/6 299/4/6
f 291/3/6 292/3/6 300/3/6
f 299/5/6 291/5/6 300/5/6
f 292/5/6 293/5/6 301/5/6
f 300/3/6 292/3/6 301/3/6
f 293/5/6 285/5/6 302/5/6
f 301/5/6 293/5/6 302/5/6
