# MagicaVoxel @ Ephtracy

# material
mtllib Cell_Block_Menu_window wall.mtl
usemtl palette

# normals
vn -1 0 0
vn 1 0 0
vn 0 0 1
vn 0 0 -1
vn 0 -1 0
vn 0 1 0

# texcoords
vt 0.337891 0.5
vt 0.505859 0.5
vt 0.978516 0.5
vt 0.982422 0.5

# verts
v 24 0 25
v 24 0 -25
v 24 7 8
v 24 7 6
v 24 9 25
v 24 9 8
v 24 9 6
v 24 9 4
v 24 9 -0
v 24 9 -2
v 24 9 -25
v 24 10 25
v 24 10 8
v 24 10 6
v 24 10 4
v 24 10 -0
v 24 10 -2
v 24 10 -25
v 24 14 18
v 24 14 9
v 24 14 -7
v 24 14 -16
v 24 15 17
v 24 15 16
v 24 15 15
v 24 15 14
v 24 15 13
v 24 15 12
v 24 15 11
v 24 15 10
v 24 15 -8
v 24 15 -9
v 24 15 -10
v 24 15 -11
v 24 15 -12
v 24 15 -13
v 24 15 -14
v 24 15 -15
v 24 16 6
v 24 16 4
v 24 16 -0
v 24 16 -2
v 24 20 17
v 24 20 16
v 24 20 15
v 24 20 14
v 24 20 13
v 24 20 12
v 24 20 11
v 24 20 10
v 24 20 -8
v 24 20 -9
v 24 20 -10
v 24 20 -11
v 24 20 -12
v 24 20 -13
v 24 20 -14
v 24 20 -15
v 24 21 18
v 24 21 9
v 24 21 -7
v 24 21 -16
v 24 24 25
v 24 24 -25
v 25 0 25
v 25 0 -25
v 25 7 8
v 25 7 6
v 25 9 25
v 25 9 8
v 25 9 6
v 25 9 4
v 25 9 -0
v 25 9 -2
v 25 9 -25
v 25 10 25
v 25 10 8
v 25 10 6
v 25 10 4
v 25 10 -0
v 25 10 -2
v 25 10 -25
v 25 14 18
v 25 14 9
v 25 14 -7
v 25 14 -16
v 25 15 17
v 25 15 16
v 25 15 15
v 25 15 14
v 25 15 13
v 25 15 12
v 25 15 11
v 25 15 10
v 25 15 -8
v 25 15 -9
v 25 15 -10
v 25 15 -11
v 25 15 -12
v 25 15 -13
v 25 15 -14
v 25 15 -15
v 25 16 6
v 25 16 4
v 25 16 -0
v 25 16 -2
v 25 20 17
v 25 20 16
v 25 20 15
v 25 20 14
v 25 20 13
v 25 20 12
v 25 20 11
v 25 20 10
v 25 20 -8
v 25 20 -9
v 25 20 -10
v 25 20 -11
v 25 20 -12
v 25 20 -13
v 25 20 -14
v 25 20 -15
v 25 21 18
v 25 21 9
v 25 21 -7
v 25 21 -16
v 25 24 25
v 25 24 -25
v 24 0 25
v 24 9 25
v 24 10 25
v 24 24 25
v 25 0 25
v 25 9 25
v 25 10 25
v 25 24 25
v 24 15 16
v 24 20 16
v 25 15 16
v 25 20 16
v 24 15 14
v 24 20 14
v 25 15 14
v 25 20 14
v 24 15 12
v 24 20 12
v 25 15 12
v 25 20 12
v 24 15 10
v 24 20 10
v 25 15 10
v 25 20 10
v 24 15 -9
v 24 20 -9
v 25 15 -9
v 25 20 -9
v 24 15 -11
v 24 20 -11
v 25 15 -11
v 25 20 -11
v 24 15 -13
v 24 20 -13
v 25 15 -13
v 25 20 -13
v 24 15 -15
v 24 20 -15
v 25 15 -15
v 25 20 -15
v 24 15 17
v 24 20 17
v 25 15 17
v 25 20 17
v 24 15 15
v 24 20 15
v 25 15 15
v 25 20 15
v 24 15 13
v 24 20 13
v 25 15 13
v 25 20 13
v 24 15 11
v 24 20 11
v 25 15 11
v 25 20 11
v 24 15 -8
v 24 20 -8
v 25 15 -8
v 25 20 -8
v 24 15 -10
v 24 20 -10
v 25 15 -10
v 25 20 -10
v 24 15 -12
v 24 20 -12
v 25 15 -12
v 25 20 -12
v 24 15 -14
v 24 20 -14
v 25 15 -14
v 25 20 -14
v 24 0 -25
v 24 9 -25
v 24 10 -25
v 24 24 -25
v 25 0 -25
v 25 9 -25
v 25 10 -25
v 25 24 -25
v 24 0 25
v 25 0 25
v 24 0 -25
v 25 0 -25
v 24 20 17
v 25 20 17
v 24 20 16
v 25 20 16
v 24 20 15
v 25 20 15
v 24 20 14
v 25 20 14
v 24 20 13
v 25 20 13
v 24 20 12
v 25 20 12
v 24 20 11
v 25 20 11
v 24 20 10
v 25 20 10
v 24 20 -8
v 25 20 -8
v 24 20 -9
v 25 20 -9
v 24 20 -10
v 25 20 -10
v 24 20 -11
v 25 20 -11
v 24 20 -12
v 25 20 -12
v 24 20 -13
v 25 20 -13
v 24 20 -14
v 25 20 -14
v 24 20 -15
v 25 20 -15
v 24 15 17
v 25 15 17
v 24 15 16
v 25 15 16
v 24 15 15
v 25 15 15
v 24 15 14
v 25 15 14
v 24 15 13
v 25 15 13
v 24 15 12
v 25 15 12
v 24 15 11
v 25 15 11
v 24 15 10
v 25 15 10
v 24 15 -8
v 25 15 -8
v 24 15 -9
v 25 15 -9
v 24 15 -10
v 25 15 -10
v 24 15 -11
v 25 15 -11
v 24 15 -12
v 25 15 -12
v 24 15 -13
v 25 15 -13
v 24 15 -14
v 25 15 -14
v 24 15 -15
v 25 15 -15
v 24 24 25
v 25 24 25
v 24 24 -25
v 25 24 -25

# faces
f 3/4/1 2/4/1 1/4/1
f 4/4/1 2/4/1 3/4/1
f 5/4/1 3/4/1 1/4/1
f 6/2/1 4/2/1 3/2/1
f 6/4/1 3/4/1 5/4/1
f 7/4/1 2/4/1 4/4/1
f 7/2/1 4/2/1 6/2/1
f 8/4/1 2/4/1 7/4/1
f 9/4/1 2/4/1 8/4/1
f 10/4/1 2/4/1 9/4/1
f 11/4/1 2/4/1 10/4/1
f 12/3/1 6/3/1 5/3/1
f 13/2/1 7/2/1 6/2/1
f 13/3/1 6/3/1 12/3/1
f 13/2/1 8/2/1 7/2/1
f 14/2/1 8/2/1 13/2/1
f 15/3/1 9/3/1 8/3/1
f 15/2/1 8/2/1 14/2/1
f 16/1/1 10/1/1 9/1/1
f 16/3/1 9/3/1 15/3/1
f 17/3/1 11/3/1 10/3/1
f 17/1/1 10/1/1 16/1/1
f 18/3/1 11/3/1 17/3/1
f 19/4/1 14/4/1 13/4/1
f 19/4/1 13/4/1 12/4/1
f 20/4/1 14/4/1 19/4/1
f 21/4/1 18/4/1 17/4/1
f 22/4/1 18/4/1 21/4/1
f 23/3/1 20/3/1 19/3/1
f 24/3/1 20/3/1 23/3/1
f 25/3/1 20/3/1 24/3/1
f 26/3/1 20/3/1 25/3/1
f 27/3/1 20/3/1 26/3/1
f 28/3/1 20/3/1 27/3/1
f 29/3/1 20/3/1 28/3/1
f 30/3/1 20/3/1 29/3/1
f 31/3/1 22/3/1 21/3/1
f 32/3/1 22/3/1 31/3/1
f 33/3/1 22/3/1 32/3/1
f 34/3/1 22/3/1 33/3/1
f 35/3/1 22/3/1 34/3/1
f 36/3/1 22/3/1 35/3/1
f 37/3/1 22/3/1 36/3/1
f 38/3/1 22/3/1 37/3/1
f 39/2/1 15/2/1 14/2/1
f 39/4/1 14/4/1 20/4/1
f 40/4/1 16/4/1 15/4/1
f 40/2/1 15/2/1 39/2/1
f 41/1/1 17/1/1 16/1/1
f 41/4/1 16/4/1 40/4/1
f 42/4/1 21/4/1 17/4/1
f 42/1/1 17/1/1 41/1/1
f 43/3/1 23/3/1 19/3/1
f 44/4/1 25/4/1 24/4/1
f 45/4/1 25/4/1 44/4/1
f 46/4/1 27/4/1 26/4/1
f 47/4/1 27/4/1 46/4/1
f 48/4/1 29/4/1 28/4/1
f 49/4/1 29/4/1 48/4/1
f 50/3/1 20/3/1 30/3/1
f 51/3/1 31/3/1 21/3/1
f 52/4/1 33/4/1 32/4/1
f 53/4/1 33/4/1 52/4/1
f 54/4/1 35/4/1 34/4/1
f 55/4/1 35/4/1 54/4/1
f 56/4/1 37/4/1 36/4/1
f 57/4/1 37/4/1 56/4/1
f 58/3/1 22/3/1 38/3/1
f 59/4/1 19/4/1 12/4/1
f 59/3/1 49/3/1 48/3/1
f 59/3/1 43/3/1 19/3/1
f 59/3/1 45/3/1 44/3/1
f 59/3/1 50/3/1 49/3/1
f 59/3/1 47/3/1 46/3/1
f 59/3/1 44/3/1 43/3/1
f 59/3/1 46/3/1 45/3/1
f 59/3/1 48/3/1 47/3/1
f 60/4/1 39/4/1 20/4/1
f 60/3/1 50/3/1 59/3/1
f 60/4/1 40/4/1 39/4/1
f 60/3/1 20/3/1 50/3/1
f 60/4/1 41/4/1 40/4/1
f 60/4/1 42/4/1 41/4/1
f 61/3/1 57/3/1 56/3/1
f 61/4/1 42/4/1 60/4/1
f 61/3/1 55/3/1 54/3/1
f 61/3/1 52/3/1 51/3/1
f 61/3/1 58/3/1 57/3/1
f 61/4/1 21/4/1 42/4/1
f 61/3/1 53/3/1 52/3/1
f 61/3/1 51/3/1 21/3/1
f 61/3/1 54/3/1 53/3/1
f 61/3/1 56/3/1 55/3/1
f 62/4/1 18/4/1 22/4/1
f 62/3/1 58/3/1 61/3/1
f 62/3/1 22/3/1 58/3/1
f 63/4/1 59/4/1 12/4/1
f 63/4/1 60/4/1 59/4/1
f 63/4/1 62/4/1 61/4/1
f 63/4/1 61/4/1 60/4/1
f 64/4/1 18/4/1 62/4/1
f 64/4/1 62/4/1 63/4/1
f 65/4/2 66/4/2 67/4/2
f 67/4/2 66/4/2 68/4/2
f 65/4/2 67/4/2 69/4/2
f 67/2/2 68/2/2 70/2/2
f 69/4/2 67/4/2 70/4/2
f 68/4/2 66/4/2 71/4/2
f 70/2/2 68/2/2 71/2/2
f 71/4/2 66/4/2 72/4/2
f 72/4/2 66/4/2 73/4/2
f 73/4/2 66/4/2 74/4/2
f 74/4/2 66/4/2 75/4/2
f 69/3/2 70/3/2 76/3/2
f 70/2/2 71/2/2 77/2/2
f 76/3/2 70/3/2 77/3/2
f 71/2/2 72/2/2 77/2/2
f 77/2/2 72/2/2 78/2/2
f 72/3/2 73/3/2 79/3/2
f 78/2/2 72/2/2 79/2/2
f 73/1/2 74/1/2 80/1/2
f 79/3/2 73/3/2 80/3/2
f 74/3/2 75/3/2 81/3/2
f 80/1/2 74/1/2 81/1/2
f 81/3/2 75/3/2 82/3/2
f 77/4/2 78/4/2 83/4/2
f 76/4/2 77/4/2 83/4/2
f 83/4/2 78/4/2 84/4/2
f 81/4/2 82/4/2 85/4/2
f 85/4/2 82/4/2 86/4/2
f 83/3/2 84/3/2 87/3/2
f 87/3/2 84/3/2 88/3/2
f 88/3/2 84/3/2 89/3/2
f 89/3/2 84/3/2 90/3/2
f 90/3/2 84/3/2 91/3/2
f 91/3/2 84/3/2 92/3/2
f 92/3/2 84/3/2 93/3/2
f 93/3/2 84/3/2 94/3/2
f 85/3/2 86/3/2 95/3/2
f 95/3/2 86/3/2 96/3/2
f 96/3/2 86/3/2 97/3/2
f 97/3/2 86/3/2 98/3/2
f 98/3/2 86/3/2 99/3/2
f 99/3/2 86/3/2 100/3/2
f 100/3/2 86/3/2 101/3/2
f 101/3/2 86/3/2 102/3/2
f 78/2/2 79/2/2 103/2/2
f 84/4/2 78/4/2 103/4/2
f 79/4/2 80/4/2 104/4/2
f 103/2/2 79/2/2 104/2/2
f 80/1/2 81/1/2 105/1/2
f 104/4/2 80/4/2 105/4/2
f 81/4/2 85/4/2 106/4/2
f 105/1/2 81/1/2 106/1/2
f 83/3/2 87/3/2 107/3/2
f 88/4/2 89/4/2 108/4/2
f 108/4/2 89/4/2 109/4/2
f 90/4/2 91/4/2 110/4/2
f 110/4/2 91/4/2 111/4/2
f 92/4/2 93/4/2 112/4/2
f 112/4/2 93/4/2 113/4/2
f 94/3/2 84/3/2 114/3/2
f 85/3/2 95/3/2 115/3/2
f 96/4/2 97/4/2 116/4/2
f 116/4/2 97/4/2 117/4/2
f 98/4/2 99/4/2 118/4/2
f 118/4/2 99/4/2 119/4/2
f 100/4/2 101/4/2 120/4/2
f 120/4/2 101/4/2 121/4/2
f 102/3/2 86/3/2 122/3/2
f 76/4/2 83/4/2 123/4/2
f 112/3/2 113/3/2 123/3/2
f 83/3/2 107/3/2 123/3/2
f 108/3/2 109/3/2 123/3/2
f 113/3/2 114/3/2 123/3/2
f 110/3/2 111/3/2 123/3/2
f 107/3/2 108/3/2 123/3/2
f 109/3/2 110/3/2 123/3/2
f 111/3/2 112/3/2 123/3/2
f 84/4/2 103/4/2 124/4/2
f 123/3/2 114/3/2 124/3/2
f 103/4/2 104/4/2 124/4/2
f 114/3/2 84/3/2 124/3/2
f 104/4/2 105/4/2 124/4/2
f 105/4/2 106/4/2 124/4/2
f 120/3/2 121/3/2 125/3/2
f 124/4/2 106/4/2 125/4/2
f 118/3/2 119/3/2 125/3/2
f 115/3/2 116/3/2 125/3/2
f 121/3/2 122/3/2 125/3/2
f 106/4/2 85/4/2 125/4/2
f 116/3/2 117/3/2 125/3/2
f 85/3/2 115/3/2 125/3/2
f 117/3/2 118/3/2 125/3/2
f 119/3/2 120/3/2 125/3/2
f 86/4/2 82/4/2 126/4/2
f 125/3/2 122/3/2 126/3/2
f 122/3/2 86/3/2 126/3/2
f 76/4/2 123/4/2 127/4/2
f 123/4/2 124/4/2 127/4/2
f 125/4/2 126/4/2 127/4/2
f 124/4/2 125/4/2 127/4/2
f 126/4/2 82/4/2 128/4/2
f 127/4/2 126/4/2 128/4/2
f 133/4/3 130/4/3 129/4/3
f 134/3/3 131/3/3 130/3/3
f 134/4/3 130/4/3 133/4/3
f 135/4/3 132/4/3 131/4/3
f 135/3/3 131/3/3 134/3/3
f 136/4/3 132/4/3 135/4/3
f 139/4/3 138/4/3 137/4/3
f 140/4/3 138/4/3 139/4/3
f 143/4/3 142/4/3 141/4/3
f 144/4/3 142/4/3 143/4/3
f 147/4/3 146/4/3 145/4/3
f 148/4/3 146/4/3 147/4/3
f 151/3/3 150/3/3 149/3/3
f 152/3/3 150/3/3 151/3/3
f 155/4/3 154/4/3 153/4/3
f 156/4/3 154/4/3 155/4/3
f 159/4/3 158/4/3 157/4/3
f 160/4/3 158/4/3 159/4/3
f 163/4/3 162/4/3 161/4/3
f 164/4/3 162/4/3 163/4/3
f 167/3/3 166/3/3 165/3/3
f 168/3/3 166/3/3 167/3/3
f 169/3/4 170/3/4 171/3/4
f 171/3/4 170/3/4 172/3/4
f 173/4/4 174/4/4 175/4/4
f 175/4/4 174/4/4 176/4/4
f 177/4/4 178/4/4 179/4/4
f 179/4/4 178/4/4 180/4/4
f 181/4/4 182/4/4 183/4/4
f 183/4/4 182/4/4 184/4/4
f 185/3/4 186/3/4 187/3/4
f 187/3/4 186/3/4 188/3/4
f 189/4/4 190/4/4 191/4/4
f 191/4/4 190/4/4 192/4/4
f 193/4/4 194/4/4 195/4/4
f 195/4/4 194/4/4 196/4/4
f 197/4/4 198/4/4 199/4/4
f 199/4/4 198/4/4 200/4/4
f 201/4/4 202/4/4 205/4/4
f 202/3/4 203/3/4 206/3/4
f 205/4/4 202/4/4 206/4/4
f 203/4/4 204/4/4 207/4/4
f 206/3/4 203/3/4 207/3/4
f 207/4/4 204/4/4 208/4/4
f 211/4/5 210/4/5 209/4/5
f 212/4/5 210/4/5 211/4/5
f 215/3/5 214/3/5 213/3/5
f 216/3/5 214/3/5 215/3/5
f 219/3/5 218/3/5 217/3/5
f 220/3/5 218/3/5 219/3/5
f 223/3/5 222/3/5 221/3/5
f 224/3/5 222/3/5 223/3/5
f 227/3/5 226/3/5 225/3/5
f 228/3/5 226/3/5 227/3/5
f 231/3/5 230/3/5 229/3/5
f 232/3/5 230/3/5 231/3/5
f 235/3/5 234/3/5 233/3/5
f 236/3/5 234/3/5 235/3/5
f 239/3/5 238/3/5 237/3/5
f 240/3/5 238/3/5 239/3/5
f 243/3/5 242/3/5 241/3/5
f 244/3/5 242/3/5 243/3/5
f 245/3/6 246/3/6 247/3/6
f 247/3/6 246/3/6 248/3/6
f 249/3/6 250/3/6 251/3/6
f 251/3/6 250/3/6 252/3/6
f 253/3/6 254/3/6 255/3/6
f 255/3/6 254/3/6 256/3/6
f 257/3/6 258/3/6 259/3/6
f 259/3/6 258/3/6 260/3/6
f 261/3/6 262/3/6 263/3/6
f 263/3/6 262/3/6 264/3/6
f 265/3/6 266/3/6 267/3/6
f 267/3/6 266/3/6 268/3/6
f 269/3/6 270/3/6 271/3/6
f 271/3/6 270/3/6 272/3/6
f 273/3/6 274/3/6 275/3/6
f 275/3/6 274/3/6 276/3/6
f 277/4/6 278/4/6 279/4/6
f 279/4/6 278/4/6 280/4/6
