# MagicaVoxel @ Ephtracy

# material
mtllib Cell_Wall_3.mtl
usemtl palette

# normals
vn -1 0 0
vn 1 0 0
vn 0 0 1
vn 0 0 -1
vn 0 -1 0
vn 0 1 0

# texcoords
vt 0.337891 0.5
vt 0.505859 0.5
vt 0.970703 0.5
vt 0.978516 0.5
vt 0.982422 0.5

# verts
v -22 0 -24
v -22 0 -25
v -22 9 -24
v -22 9 -25
v -22 10 -24
v -22 10 -25
v -22 24 -24
v -22 24 -25
v 24 0 -24
v 24 0 -25
v 24 9 -24
v 24 9 -25
v 24 10 -24
v 24 10 -25
v 24 24 -24
v 24 24 -25
v -22 0 -24
v -22 9 -24
v -22 10 -24
v -22 24 -24
v -14 2 -24
v -14 3 -24
v -14 4 -24
v -13 2 -24
v -13 3 -24
v -13 4 -24
v -13 5 -24
v -11 3 -24
v -11 4 -24
v -11 5 -24
v -11 6 -24
v -10 9 -24
v -10 10 -24
v -9 4 -24
v -9 5 -24
v -9 6 -24
v -9 7 -24
v -8 5 -24
v -8 6 -24
v -8 17 -24
v -8 18 -24
v -7 6 -24
v -7 7 -24
v -7 8 -24
v -7 15 -24
v -7 17 -24
v -7 18 -24
v -6 6 -24
v -6 7 -24
v -6 13 -24
v -6 15 -24
v -6 17 -24
v -6 18 -24
v -5 7 -24
v -5 8 -24
v -5 9 -24
v -5 11 -24
v -5 13 -24
v -5 15 -24
v -5 17 -24
v -4 7 -24
v -4 8 -24
v -4 9 -24
v -4 10 -24
v -4 11 -24
v -4 13 -24
v -4 15 -24
v -3 7 -24
v -3 8 -24
v -3 10 -24
v -3 11 -24
v -3 13 -24
v -2 5 -24
v -2 7 -24
v -2 9 -24
v -2 10 -24
v -2 11 -24
v -2 12 -24
v -1 4 -24
v -1 5 -24
v -1 7 -24
v -1 9 -24
v -1 10 -24
v -1 11 -24
v -1 12 -24
v -1 13 -24
v 0 4 -24
v 0 5 -24
v 0 7 -24
v 0 11 -24
v 0 12 -24
v 0 13 -24
v 0 14 -24
v 1 13 -24
v 1 14 -24
v 1 15 -24
v 2 12 -24
v 2 13 -24
v 2 14 -24
v 2 15 -24
v 2 16 -24
v 3 13 -24
v 3 14 -24
v 3 15 -24
v 4 14 -24
v 4 15 -24
v 4 16 -24
v 4 17 -24
v 5 15 -24
v 5 16 -24
v 5 17 -24
v 5 18 -24
v 6 16 -24
v 6 17 -24
v 6 18 -24
v 6 19 -24
v 7 17 -24
v 7 18 -24
v 7 19 -24
v 7 20 -24
v 8 19 -24
v 8 20 -24
v 9 18 -24
v 9 19 -24
v 9 20 -24
v 10 19 -24
v 10 20 -24
v 10 21 -24
v 11 20 -24
v 11 21 -24
v 11 22 -24
v 12 21 -24
v 12 22 -24
v 24 0 -24
v 24 9 -24
v 24 10 -24
v 24 24 -24
v -22 0 -25
v -22 9 -25
v -22 10 -25
v -22 24 -25
v -14 2 -25
v -14 3 -25
v -14 4 -25
v -13 2 -25
v -13 3 -25
v -13 4 -25
v -13 5 -25
v -11 3 -25
v -11 4 -25
v -11 5 -25
v -11 6 -25
v -10 9 -25
v -10 10 -25
v -9 4 -25
v -9 5 -25
v -9 6 -25
v -9 7 -25
v -8 5 -25
v -8 6 -25
v -8 17 -25
v -8 18 -25
v -7 6 -25
v -7 7 -25
v -7 8 -25
v -7 15 -25
v -7 17 -25
v -7 18 -25
v -6 6 -25
v -6 7 -25
v -6 13 -25
v -6 15 -25
v -6 17 -25
v -6 18 -25
v -5 7 -25
v -5 8 -25
v -5 9 -25
v -5 11 -25
v -5 13 -25
v -5 15 -25
v -5 17 -25
v -4 7 -25
v -4 8 -25
v -4 9 -25
v -4 10 -25
v -4 11 -25
v -4 13 -25
v -4 15 -25
v -3 7 -25
v -3 8 -25
v -3 10 -25
v -3 11 -25
v -3 13 -25
v -2 5 -25
v -2 7 -25
v -2 9 -25
v -2 10 -25
v -2 11 -25
v -2 12 -25
v -1 4 -25
v -1 5 -25
v -1 7 -25
v -1 9 -25
v -1 10 -25
v -1 11 -25
v -1 12 -25
v -1 13 -25
v 0 4 -25
v 0 5 -25
v 0 7 -25
v 0 11 -25
v 0 12 -25
v 0 13 -25
v 0 14 -25
v 1 13 -25
v 1 14 -25
v 1 15 -25
v 2 12 -25
v 2 13 -25
v 2 14 -25
v 2 15 -25
v 2 16 -25
v 3 13 -25
v 3 14 -25
v 3 15 -25
v 4 14 -25
v 4 15 -25
v 4 16 -25
v 4 17 -25
v 5 15 -25
v 5 16 -25
v 5 17 -25
v 5 18 -25
v 6 16 -25
v 6 17 -25
v 6 18 -25
v 6 19 -25
v 7 17 -25
v 7 18 -25
v 7 19 -25
v 7 20 -25
v 8 19 -25
v 8 20 -25
v 9 18 -25
v 9 19 -25
v 9 20 -25
v 10 19 -25
v 10 20 -25
v 10 21 -25
v 11 20 -25
v 11 21 -25
v 11 22 -25
v 12 21 -25
v 12 22 -25
v 24 0 -25
v 24 9 -25
v 24 10 -25
v 24 24 -25
v -22 0 -24
v 24 0 -24
v -22 0 -25
v 24 0 -25
v -22 24 -24
v 24 24 -24
v -22 24 -25
v 24 24 -25

# faces
f 3/5/1 2/5/1 1/5/1
f 4/5/1 2/5/1 3/5/1
f 5/4/1 4/4/1 3/4/1
f 6/4/1 4/4/1 5/4/1
f 7/5/1 6/5/1 5/5/1
f 8/5/1 6/5/1 7/5/1
f 9/5/2 10/5/2 11/5/2
f 11/5/2 10/5/2 12/5/2
f 11/4/2 12/4/2 13/4/2
f 13/4/2 12/4/2 14/4/2
f 13/5/2 14/5/2 15/5/2
f 15/5/2 14/5/2 16/5/2
f 21/5/3 18/5/3 17/5/3
f 22/5/3 18/5/3 21/5/3
f 23/5/3 18/5/3 22/5/3
f 24/5/3 21/5/3 17/5/3
f 24/3/3 22/3/3 21/3/3
f 25/1/3 23/1/3 22/1/3
f 25/3/3 22/3/3 24/3/3
f 26/5/3 18/5/3 23/5/3
f 26/1/3 23/1/3 25/1/3
f 27/5/3 18/5/3 26/5/3
f 28/5/3 25/5/3 24/5/3
f 28/3/3 26/3/3 25/3/3
f 29/1/3 27/1/3 26/1/3
f 29/3/3 26/3/3 28/3/3
f 30/5/3 18/5/3 27/5/3
f 30/1/3 27/1/3 29/1/3
f 31/5/3 18/5/3 30/5/3
f 32/4/3 19/4/3 18/4/3
f 32/5/3 18/5/3 31/5/3
f 33/5/3 20/5/3 19/5/3
f 33/4/3 19/4/3 32/4/3
f 34/5/3 29/5/3 28/5/3
f 34/3/3 30/3/3 29/3/3
f 35/1/3 31/1/3 30/1/3
f 35/3/3 30/3/3 34/3/3
f 36/5/3 32/5/3 31/5/3
f 36/1/3 31/1/3 35/1/3
f 37/5/3 32/5/3 36/5/3
f 38/5/3 35/5/3 34/5/3
f 38/3/3 36/3/3 35/3/3
f 39/1/3 37/1/3 36/1/3
f 39/3/3 36/3/3 38/3/3
f 40/5/3 20/5/3 33/5/3
f 41/5/3 20/5/3 40/5/3
f 42/1/3 37/1/3 39/1/3
f 42/5/3 39/5/3 38/5/3
f 43/5/3 32/5/3 37/5/3
f 43/1/3 37/1/3 42/1/3
f 44/5/3 32/5/3 43/5/3
f 45/5/3 40/5/3 33/5/3
f 46/3/3 41/3/3 40/3/3
f 46/5/3 40/5/3 45/5/3
f 47/5/3 20/5/3 41/5/3
f 47/3/3 41/3/3 46/3/3
f 48/5/3 42/5/3 38/5/3
f 48/3/3 43/3/3 42/3/3
f 49/1/3 44/1/3 43/1/3
f 49/3/3 43/3/3 48/3/3
f 50/5/3 45/5/3 33/5/3
f 51/3/3 46/3/3 45/3/3
f 51/5/3 45/5/3 50/5/3
f 52/1/3 47/1/3 46/1/3
f 52/3/3 46/3/3 51/3/3
f 53/5/3 20/5/3 47/5/3
f 53/1/3 47/1/3 52/1/3
f 54/1/3 44/1/3 49/1/3
f 54/5/3 49/5/3 48/5/3
f 55/5/3 32/5/3 44/5/3
f 55/1/3 44/1/3 54/1/3
f 56/2/3 33/2/3 32/2/3
f 56/5/3 32/5/3 55/5/3
f 57/5/3 50/5/3 33/5/3
f 58/3/3 51/3/3 50/3/3
f 58/5/3 50/5/3 57/5/3
f 59/1/3 52/1/3 51/1/3
f 59/3/3 51/3/3 58/3/3
f 60/5/3 53/5/3 52/5/3
f 60/1/3 52/1/3 59/1/3
f 61/3/3 55/3/3 54/3/3
f 61/5/3 54/5/3 48/5/3
f 62/1/3 56/1/3 55/1/3
f 62/3/3 55/3/3 61/3/3
f 63/2/3 33/2/3 56/2/3
f 63/1/3 56/1/3 62/1/3
f 64/5/3 57/5/3 33/5/3
f 64/2/3 33/2/3 63/2/3
f 65/3/3 58/3/3 57/3/3
f 65/5/3 57/5/3 64/5/3
f 66/1/3 59/1/3 58/1/3
f 66/3/3 58/3/3 65/3/3
f 67/5/3 60/5/3 59/5/3
f 67/1/3 59/1/3 66/1/3
f 68/5/3 62/5/3 61/5/3
f 68/5/3 61/5/3 48/5/3
f 69/3/3 64/3/3 63/3/3
f 69/5/3 62/5/3 68/5/3
f 69/3/3 63/3/3 62/3/3
f 69/3/3 65/3/3 64/3/3
f 70/3/3 65/3/3 69/3/3
f 71/1/3 66/1/3 65/1/3
f 71/3/3 65/3/3 70/3/3
f 72/5/3 67/5/3 66/5/3
f 72/1/3 66/1/3 71/1/3
f 73/5/3 68/5/3 48/5/3
f 73/5/3 38/5/3 34/5/3
f 73/5/3 48/5/3 38/5/3
f 74/3/3 70/3/3 69/3/3
f 74/5/3 68/5/3 73/5/3
f 74/3/3 69/3/3 68/3/3
f 75/3/3 70/3/3 74/3/3
f 76/1/3 71/1/3 70/1/3
f 76/3/3 70/3/3 75/3/3
f 77/5/3 72/5/3 71/5/3
f 77/1/3 71/1/3 76/1/3
f 78/5/3 72/5/3 77/5/3
f 79/5/3 34/5/3 28/5/3
f 79/5/3 73/5/3 34/5/3
f 80/3/3 74/3/3 73/3/3
f 80/5/3 73/5/3 79/5/3
f 81/1/3 75/1/3 74/1/3
f 81/3/3 74/3/3 80/3/3
f 82/4/3 76/4/3 75/4/3
f 82/1/3 75/1/3 81/1/3
f 83/3/3 77/3/3 76/3/3
f 83/4/3 76/4/3 82/4/3
f 84/1/3 78/1/3 77/1/3
f 84/3/3 77/3/3 83/3/3
f 85/5/3 72/5/3 78/5/3
f 85/1/3 78/1/3 84/1/3
f 86/5/3 67/5/3 72/5/3
f 86/5/3 72/5/3 85/5/3
f 87/3/3 80/3/3 79/3/3
f 87/5/3 79/5/3 28/5/3
f 88/1/3 81/1/3 80/1/3
f 88/3/3 80/3/3 87/3/3
f 89/5/3 82/5/3 81/5/3
f 89/1/3 81/1/3 88/1/3
f 90/3/3 85/3/3 84/3/3
f 90/5/3 84/5/3 83/5/3
f 91/1/3 86/1/3 85/1/3
f 91/3/3 85/3/3 90/3/3
f 92/5/3 67/5/3 86/5/3
f 92/1/3 86/1/3 91/1/3
f 93/5/3 67/5/3 92/5/3
f 94/3/3 92/3/3 91/3/3
f 94/1/3 93/1/3 92/1/3
f 95/5/3 67/5/3 93/5/3
f 95/1/3 93/1/3 94/1/3
f 96/5/3 60/5/3 67/5/3
f 96/5/3 67/5/3 95/5/3
f 97/5/3 91/5/3 90/5/3
f 97/3/3 94/3/3 91/3/3
f 98/5/3 95/5/3 94/5/3
f 98/3/3 94/3/3 97/3/3
f 99/1/3 96/1/3 95/1/3
f 99/5/3 95/5/3 98/5/3
f 100/5/3 60/5/3 96/5/3
f 100/1/3 96/1/3 99/1/3
f 101/5/3 60/5/3 100/5/3
f 102/3/3 99/3/3 98/3/3
f 102/5/3 98/5/3 97/5/3
f 103/5/3 100/5/3 99/5/3
f 103/3/3 99/3/3 102/3/3
f 104/1/3 101/1/3 100/1/3
f 104/5/3 100/5/3 103/5/3
f 105/5/3 103/5/3 102/5/3
f 105/3/3 104/3/3 103/3/3
f 106/1/3 101/1/3 104/1/3
f 106/3/3 104/3/3 105/3/3
f 107/5/3 60/5/3 101/5/3
f 107/1/3 101/1/3 106/1/3
f 108/5/3 53/5/3 60/5/3
f 108/5/3 60/5/3 107/5/3
f 109/3/3 107/3/3 106/3/3
f 109/5/3 106/5/3 105/5/3
f 110/1/3 108/1/3 107/1/3
f 110/3/3 107/3/3 109/3/3
f 111/5/3 53/5/3 108/5/3
f 111/1/3 108/1/3 110/1/3
f 112/5/3 20/5/3 53/5/3
f 112/5/3 53/5/3 111/5/3
f 113/5/3 110/5/3 109/5/3
f 113/3/3 111/3/3 110/3/3
f 114/1/3 112/1/3 111/1/3
f 114/3/3 111/3/3 113/3/3
f 115/5/3 20/5/3 112/5/3
f 115/1/3 112/1/3 114/1/3
f 116/5/3 20/5/3 115/5/3
f 117/5/3 114/5/3 113/5/3
f 117/3/3 115/3/3 114/3/3
f 118/1/3 116/1/3 115/1/3
f 118/3/3 115/3/3 117/3/3
f 119/5/3 20/5/3 116/5/3
f 119/1/3 116/1/3 118/1/3
f 120/5/3 20/5/3 119/5/3
f 121/3/3 119/3/3 118/3/3
f 121/1/3 120/1/3 119/1/3
f 122/5/3 20/5/3 120/5/3
f 122/1/3 120/1/3 121/1/3
f 123/5/3 118/5/3 117/5/3
f 123/3/3 121/3/3 118/3/3
f 124/5/3 122/5/3 121/5/3
f 124/3/3 121/3/3 123/3/3
f 125/5/3 20/5/3 122/5/3
f 125/5/3 122/5/3 124/5/3
f 126/5/3 124/5/3 123/5/3
f 126/3/3 125/3/3 124/3/3
f 127/5/3 20/5/3 125/5/3
f 127/3/3 125/3/3 126/3/3
f 128/5/3 20/5/3 127/5/3
f 129/5/3 127/5/3 126/5/3
f 129/3/3 128/3/3 127/3/3
f 130/5/3 20/5/3 128/5/3
f 130/3/3 128/3/3 129/3/3
f 131/5/3 20/5/3 130/5/3
f 132/5/3 130/5/3 129/5/3
f 132/3/3 131/3/3 130/3/3
f 133/5/3 20/5/3 131/5/3
f 133/3/3 131/3/3 132/3/3
f 134/5/3 89/5/3 88/5/3
f 134/5/3 24/5/3 17/5/3
f 134/5/3 28/5/3 24/5/3
f 134/5/3 87/5/3 28/5/3
f 134/5/3 88/5/3 87/5/3
f 135/5/3 82/5/3 89/5/3
f 135/5/3 89/5/3 134/5/3
f 135/4/3 83/4/3 82/4/3
f 136/5/3 97/5/3 90/5/3
f 136/4/3 83/4/3 135/4/3
f 136/5/3 133/5/3 132/5/3
f 136/5/3 102/5/3 97/5/3
f 136/5/3 105/5/3 102/5/3
f 136/5/3 123/5/3 117/5/3
f 136/5/3 90/5/3 83/5/3
f 136/5/3 109/5/3 105/5/3
f 136/5/3 117/5/3 113/5/3
f 136/5/3 113/5/3 109/5/3
f 136/5/3 129/5/3 126/5/3
f 136/5/3 126/5/3 123/5/3
f 136/5/3 132/5/3 129/5/3
f 137/5/3 20/5/3 133/5/3
f 137/5/3 133/5/3 136/5/3
f 138/5/4 139/5/4 142/5/4
f 142/5/4 139/5/4 143/5/4
f 143/5/4 139/5/4 144/5/4
f 138/5/4 142/5/4 145/5/4
f 142/3/4 143/3/4 145/3/4
f 143/1/4 144/1/4 146/1/4
f 145/3/4 143/3/4 146/3/4
f 144/5/4 139/5/4 147/5/4
f 146/1/4 144/1/4 147/1/4
f 147/5/4 139/5/4 148/5/4
f 145/5/4 146/5/4 149/5/4
f 146/3/4 147/3/4 149/3/4
f 147/1/4 148/1/4 150/1/4
f 149/3/4 147/3/4 150/3/4
f 148/5/4 139/5/4 151/5/4
f 150/1/4 148/1/4 151/1/4
f 151/5/4 139/5/4 152/5/4
f 139/4/4 140/4/4 153/4/4
f 152/5/4 139/5/4 153/5/4
f 140/5/4 141/5/4 154/5/4
f 153/4/4 140/4/4 154/4/4
f 149/5/4 150/5/4 155/5/4
f 150/3/4 151/3/4 155/3/4
f 151/1/4 152/1/4 156/1/4
f 155/3/4 151/3/4 156/3/4
f 152/5/4 153/5/4 157/5/4
f 156/1/4 152/1/4 157/1/4
f 157/5/4 153/5/4 158/5/4
f 155/5/4 156/5/4 159/5/4
f 156/3/4 157/3/4 159/3/4
f 157/1/4 158/1/4 160/1/4
f 159/3/4 157/3/4 160/3/4
f 154/5/4 141/5/4 161/5/4
f 161/5/4 141/5/4 162/5/4
f 160/1/4 158/1/4 163/1/4
f 159/5/4 160/5/4 163/5/4
f 158/5/4 153/5/4 164/5/4
f 163/1/4 158/1/4 164/1/4
f 164/5/4 153/5/4 165/5/4
f 154/5/4 161/5/4 166/5/4
f 161/3/4 162/3/4 167/3/4
f 166/5/4 161/5/4 167/5/4
f 162/5/4 141/5/4 168/5/4
f 167/3/4 162/3/4 168/3/4
f 159/5/4 163/5/4 169/5/4
f 163/3/4 164/3/4 169/3/4
f 164/1/4 165/1/4 170/1/4
f 169/3/4 164/3/4 170/3/4
f 154/5/4 166/5/4 171/5/4
f 166/3/4 167/3/4 172/3/4
f 171/5/4 166/5/4 172/5/4
f 167/1/4 168/1/4 173/1/4
f 172/3/4 167/3/4 173/3/4
f 168/5/4 141/5/4 174/5/4
f 173/1/4 168/1/4 174/1/4
f 170/1/4 165/1/4 175/1/4
f 169/5/4 170/5/4 175/5/4
f 165/5/4 153/5/4 176/5/4
f 175/1/4 165/1/4 176/1/4
f 153/2/4 154/2/4 177/2/4
f 176/5/4 153/5/4 177/5/4
f 154/5/4 171/5/4 178/5/4
f 171/3/4 172/3/4 179/3/4
f 178/5/4 171/5/4 179/5/4
f 172/1/4 173/1/4 180/1/4
f 179/3/4 172/3/4 180/3/4
f 173/5/4 174/5/4 181/5/4
f 180/1/4 173/1/4 181/1/4
f 175/3/4 176/3/4 182/3/4
f 169/5/4 175/5/4 182/5/4
f 176/1/4 177/1/4 183/1/4
f 182/3/4 176/3/4 183/3/4
f 177/2/4 154/2/4 184/2/4
f 183/1/4 177/1/4 184/1/4
f 154/5/4 178/5/4 185/5/4
f 184/2/4 154/2/4 185/2/4
f 178/3/4 179/3/4 186/3/4
f 185/5/4 178/5/4 186/5/4
f 179/1/4 180/1/4 187/1/4
f 186/3/4 179/3/4 187/3/4
f 180/5/4 181/5/4 188/5/4
f 187/1/4 180/1/4 188/1/4
f 182/5/4 183/5/4 189/5/4
f 169/5/4 182/5/4 189/5/4
f 184/3/4 185/3/4 190/3/4
f 189/5/4 183/5/4 190/5/4
f 183/3/4 184/3/4 190/3/4
f 185/3/4 186/3/4 190/3/4
f 190/3/4 186/3/4 191/3/4
f 186/1/4 187/1/4 192/1/4
f 191/3/4 186/3/4 192/3/4
f 187/5/4 188/5/4 193/5/4
f 192/1/4 187/1/4 193/1/4
f 169/5/4 189/5/4 194/5/4
f 155/5/4 159/5/4 194/5/4
f 159/5/4 169/5/4 194/5/4
f 190/3/4 191/3/4 195/3/4
f 194/5/4 189/5/4 195/5/4
f 189/3/4 190/3/4 195/3/4
f 195/3/4 191/3/4 196/3/4
f 191/1/4 192/1/4 197/1/4
f 196/3/4 191/3/4 197/3/4
f 192/5/4 193/5/4 198/5/4
f 197/1/4 192/1/4 198/1/4
f 198/5/4 193/5/4 199/5/4
f 149/5/4 155/5/4 200/5/4
f 155/5/4 194/5/4 200/5/4
f 194/3/4 195/3/4 201/3/4
f 200/5/4 194/5/4 201/5/4
f 195/1/4 196/1/4 202/1/4
f 201/3/4 195/3/4 202/3/4
f 196/4/4 197/4/4 203/4/4
f 202/1/4 196/1/4 203/1/4
f 197/3/4 198/3/4 204/3/4
f 203/4/4 197/4/4 204/4/4
f 198/1/4 199/1/4 205/1/4
f 204/3/4 198/3/4 205/3/4
f 199/5/4 193/5/4 206/5/4
f 205/1/4 199/1/4 206/1/4
f 193/5/4 188/5/4 207/5/4
f 206/5/4 193/5/4 207/5/4
f 200/3/4 201/3/4 208/3/4
f 149/5/4 200/5/4 208/5/4
f 201/1/4 202/1/4 209/1/4
f 208/3/4 201/3/4 209/3/4
f 202/5/4 203/5/4 210/5/4
f 209/1/4 202/1/4 210/1/4
f 205/3/4 206/3/4 211/3/4
f 204/5/4 205/5/4 211/5/4
f 206/1/4 207/1/4 212/1/4
f 211/3/4 206/3/4 212/3/4
f 207/5/4 188/5/4 213/5/4
f 212/1/4 207/1/4 213/1/4
f 213/5/4 188/5/4 214/5/4
f 212/3/4 213/3/4 215/3/4
f 213/1/4 214/1/4 215/1/4
f 214/5/4 188/5/4 216/5/4
f 215/1/4 214/1/4 216/1/4
f 188/5/4 181/5/4 217/5/4
f 216/5/4 188/5/4 217/5/4
f 211/5/4 212/5/4 218/5/4
f 212/3/4 215/3/4 218/3/4
f 215/5/4 216/5/4 219/5/4
f 218/3/4 215/3/4 219/3/4
f 216/1/4 217/1/4 220/1/4
f 219/5/4 216/5/4 220/5/4
f 217/5/4 181/5/4 221/5/4
f 220/1/4 217/1/4 221/1/4
f 221/5/4 181/5/4 222/5/4
f 219/3/4 220/3/4 223/3/4
f 218/5/4 219/5/4 223/5/4
f 220/5/4 221/5/4 224/5/4
f 223/3/4 220/3/4 224/3/4
f 221/1/4 222/1/4 225/1/4
f 224/5/4 221/5/4 225/5/4
f 223/5/4 224/5/4 226/5/4
f 224/3/4 225/3/4 226/3/4
f 225/1/4 222/1/4 227/1/4
f 226/3/4 225/3/4 227/3/4
f 222/5/4 181/5/4 228/5/4
f 227/1/4 222/1/4 228/1/4
f 181/5/4 174/5/4 229/5/4
f 228/5/4 181/5/4 229/5/4
f 227/3/4 228/3/4 230/3/4
f 226/5/4 227/5/4 230/5/4
f 228/1/4 229/1/4 231/1/4
f 230/3/4 228/3/4 231/3/4
f 229/5/4 174/5/4 232/5/4
f 231/1/4 229/1/4 232/1/4
f 174/5/4 141/5/4 233/5/4
f 232/5/4 174/5/4 233/5/4
f 230/5/4 231/5/4 234/5/4
f 231/3/4 232/3/4 234/3/4
f 232/1/4 233/1/4 235/1/4
f 234/3/4 232/3/4 235/3/4
f 233/5/4 141/5/4 236/5/4
f 235/1/4 233/1/4 236/1/4
f 236/5/4 141/5/4 237/5/4
f 234/5/4 235/5/4 238/5/4
f 235/3/4 236/3/4 238/3/4
f 236/1/4 237/1/4 239/1/4
f 238/3/4 236/3/4 239/3/4
f 237/5/4 141/5/4 240/5/4
f 239/1/4 237/1/4 240/1/4
f 240/5/4 141/5/4 241/5/4
f 239/3/4 240/3/4 242/3/4
f 240/1/4 241/1/4 242/1/4
f 241/5/4 141/5/4 243/5/4
f 242/1/4 241/1/4 243/1/4
f 238/5/4 239/5/4 244/5/4
f 239/3/4 242/3/4 244/3/4
f 242/5/4 243/5/4 245/5/4
f 244/3/4 242/3/4 245/3/4
f 243/5/4 141/5/4 246/5/4
f 245/5/4 243/5/4 246/5/4
f 244/5/4 245/5/4 247/5/4
f 245/3/4 246/3/4 247/3/4
f 246/5/4 141/5/4 248/5/4
f 247/3/4 246/3/4 248/3/4
f 248/5/4 141/5/4 249/5/4
f 247/5/4 248/5/4 250/5/4
f 248/3/4 249/3/4 250/3/4
f 249/5/4 141/5/4 251/5/4
f 250/3/4 249/3/4 251/3/4
f 251/5/4 141/5/4 252/5/4
f 250/5/4 251/5/4 253/5/4
f 251/3/4 252/3/4 253/3/4
f 252/5/4 141/5/4 254/5/4
f 253/3/4 252/3/4 254/3/4
f 209/5/4 210/5/4 255/5/4
f 138/5/4 145/5/4 255/5/4
f 145/5/4 149/5/4 255/5/4
f 149/5/4 208/5/4 255/5/4
f 208/5/4 209/5/4 255/5/4
f 210/5/4 203/5/4 256/5/4
f 255/5/4 210/5/4 256/5/4
f 203/4/4 204/4/4 256/4/4
f 211/5/4 218/5/4 257/5/4
f 256/4/4 204/4/4 257/4/4
f 253/5/4 254/5/4 257/5/4
f 218/5/4 223/5/4 257/5/4
f 223/5/4 226/5/4 257/5/4
f 238/5/4 244/5/4 257/5/4
f 204/5/4 211/5/4 257/5/4
f 226/5/4 230/5/4 257/5/4
f 234/5/4 238/5/4 257/5/4
f 230/5/4 234/5/4 257/5/4
f 247/5/4 250/5/4 257/5/4
f 244/5/4 247/5/4 257/5/4
f 250/5/4 253/5/4 257/5/4
f 254/5/4 141/5/4 258/5/4
f 257/5/4 254/5/4 258/5/4
f 261/5/5 260/5/5 259/5/5
f 262/5/5 260/5/5 261/5/5
f 263/5/6 264/5/6 265/5/6
f 265/5/6 264/5/6 266/5/6
