# MagicaVoxel @ Ephtracy

# material
mtllib Cell_Block_Menu_reg wall.mtl
usemtl palette

# normals
vn -1 0 0
vn 1 0 0
vn 0 0 1
vn 0 0 -1
vn 0 -1 0
vn 0 1 0

# texcoords
vt 0.169922 0.5
vt 0.337891 0.5
vt 0.505859 0.5
vt 0.978516 0.5
vt 0.982422 0.5

# verts
v -22 0 -24
v -22 0 -25
v -22 9 -24
v -22 9 -25
v -22 10 -24
v -22 10 -25
v -22 24 -24
v -22 24 -25
v 24 0 -24
v 24 0 -25
v 24 9 -24
v 24 9 -25
v 24 10 -24
v 24 10 -25
v 24 24 -24
v 24 24 -25
v -22 0 -24
v -22 9 -24
v -22 10 -24
v -22 24 -24
v -11 10 -24
v -11 13 -24
v -10 5 -24
v -10 9 -24
v -10 10 -24
v -10 11 -24
v -10 13 -24
v -10 17 -24
v -9 14 -24
v -9 17 -24
v -8 5 -24
v -8 6 -24
v -8 11 -24
v -8 12 -24
v -8 13 -24
v -8 14 -24
v -8 17 -24
v -7 11 -24
v -7 12 -24
v -7 13 -24
v -5 13 -24
v -5 14 -24
v -5 17 -24
v -4 6 -24
v -4 9 -24
v -4 10 -24
v -4 13 -24
v 24 0 -24
v 24 9 -24
v 24 10 -24
v 24 24 -24
v -22 0 -25
v -22 9 -25
v -22 10 -25
v -22 24 -25
v -11 10 -25
v -11 13 -25
v -10 5 -25
v -10 9 -25
v -10 10 -25
v -10 11 -25
v -10 13 -25
v -10 17 -25
v -9 14 -25
v -9 17 -25
v -8 5 -25
v -8 6 -25
v -8 11 -25
v -8 12 -25
v -8 13 -25
v -8 14 -25
v -8 17 -25
v -7 11 -25
v -7 12 -25
v -7 13 -25
v -5 13 -25
v -5 14 -25
v -5 17 -25
v -4 6 -25
v -4 9 -25
v -4 10 -25
v -4 13 -25
v 24 0 -25
v 24 9 -25
v 24 10 -25
v 24 24 -25
v -22 0 -24
v 24 0 -24
v -22 0 -25
v 24 0 -25
v -22 24 -24
v 24 24 -24
v -22 24 -25
v 24 24 -25

# faces
f 3/5/1 2/5/1 1/5/1
f 4/5/1 2/5/1 3/5/1
f 5/4/1 4/4/1 3/4/1
f 6/4/1 4/4/1 5/4/1
f 7/5/1 6/5/1 5/5/1
f 8/5/1 6/5/1 7/5/1
f 9/5/2 10/5/2 11/5/2
f 11/5/2 10/5/2 12/5/2
f 11/4/2 12/4/2 13/4/2
f 13/4/2 12/4/2 14/4/2
f 13/5/2 14/5/2 15/5/2
f 15/5/2 14/5/2 16/5/2
f 21/4/3 19/4/3 18/4/3
f 21/5/3 20/5/3 19/5/3
f 22/5/3 20/5/3 21/5/3
f 23/5/3 18/5/3 17/5/3
f 24/4/3 21/4/3 18/4/3
f 24/5/3 18/5/3 23/5/3
f 25/1/3 22/1/3 21/1/3
f 25/4/3 21/4/3 24/4/3
f 26/1/3 22/1/3 25/1/3
f 27/5/3 20/5/3 22/5/3
f 27/1/3 22/1/3 26/1/3
f 28/5/3 20/5/3 27/5/3
f 29/2/3 28/2/3 27/2/3
f 30/5/3 20/5/3 28/5/3
f 30/2/3 28/2/3 29/2/3
f 31/3/3 26/3/3 25/3/3
f 31/5/3 23/5/3 17/5/3
f 31/3/3 24/3/3 23/3/3
f 31/3/3 25/3/3 24/3/3
f 32/3/3 26/3/3 31/3/3
f 33/1/3 27/1/3 26/1/3
f 33/3/3 26/3/3 32/3/3
f 34/1/3 27/1/3 33/1/3
f 35/2/3 29/2/3 27/2/3
f 35/1/3 27/1/3 34/1/3
f 36/5/3 30/5/3 29/5/3
f 36/2/3 29/2/3 35/2/3
f 37/5/3 20/5/3 30/5/3
f 37/5/3 30/5/3 36/5/3
f 38/5/3 34/5/3 33/5/3
f 38/3/3 33/3/3 32/3/3
f 39/1/3 36/1/3 35/1/3
f 39/5/3 34/5/3 38/5/3
f 39/1/3 35/1/3 34/1/3
f 40/1/3 36/1/3 39/1/3
f 41/3/3 39/3/3 38/3/3
f 41/1/3 36/1/3 40/1/3
f 41/3/3 40/3/3 39/3/3
f 42/2/3 37/2/3 36/2/3
f 42/1/3 36/1/3 41/1/3
f 43/5/3 20/5/3 37/5/3
f 43/2/3 37/2/3 42/2/3
f 44/3/3 38/3/3 32/3/3
f 44/3/3 41/3/3 38/3/3
f 44/5/3 32/5/3 31/5/3
f 45/3/3 41/3/3 44/3/3
f 46/3/3 41/3/3 45/3/3
f 47/5/3 43/5/3 42/5/3
f 47/3/3 41/3/3 46/3/3
f 47/5/3 42/5/3 41/5/3
f 48/5/3 45/5/3 44/5/3
f 48/5/3 31/5/3 17/5/3
f 48/5/3 44/5/3 31/5/3
f 49/4/3 46/4/3 45/4/3
f 49/5/3 45/5/3 48/5/3
f 50/5/3 47/5/3 46/5/3
f 50/4/3 46/4/3 49/4/3
f 51/5/3 20/5/3 43/5/3
f 51/5/3 47/5/3 50/5/3
f 51/5/3 43/5/3 47/5/3
f 53/4/4 54/4/4 56/4/4
f 54/5/4 55/5/4 56/5/4
f 56/5/4 55/5/4 57/5/4
f 52/5/4 53/5/4 58/5/4
f 53/4/4 56/4/4 59/4/4
f 58/5/4 53/5/4 59/5/4
f 56/1/4 57/1/4 60/1/4
f 59/4/4 56/4/4 60/4/4
f 60/1/4 57/1/4 61/1/4
f 57/5/4 55/5/4 62/5/4
f 61/1/4 57/1/4 62/1/4
f 62/5/4 55/5/4 63/5/4
f 62/2/4 63/2/4 64/2/4
f 63/5/4 55/5/4 65/5/4
f 64/2/4 63/2/4 65/2/4
f 60/3/4 61/3/4 66/3/4
f 52/5/4 58/5/4 66/5/4
f 58/3/4 59/3/4 66/3/4
f 59/3/4 60/3/4 66/3/4
f 66/3/4 61/3/4 67/3/4
f 61/1/4 62/1/4 68/1/4
f 67/3/4 61/3/4 68/3/4
f 68/1/4 62/1/4 69/1/4
f 62/2/4 64/2/4 70/2/4
f 69/1/4 62/1/4 70/1/4
f 64/5/4 65/5/4 71/5/4
f 70/2/4 64/2/4 71/2/4
f 65/5/4 55/5/4 72/5/4
f 71/5/4 65/5/4 72/5/4
f 68/5/4 69/5/4 73/5/4
f 67/3/4 68/3/4 73/3/4
f 70/1/4 71/1/4 74/1/4
f 73/5/4 69/5/4 74/5/4
f 69/1/4 70/1/4 74/1/4
f 74/1/4 71/1/4 75/1/4
f 73/3/4 74/3/4 76/3/4
f 75/1/4 71/1/4 76/1/4
f 74/3/4 75/3/4 76/3/4
f 71/2/4 72/2/4 77/2/4
f 76/1/4 71/1/4 77/1/4
f 72/5/4 55/5/4 78/5/4
f 77/2/4 72/2/4 78/2/4
f 67/3/4 73/3/4 79/3/4
f 73/3/4 76/3/4 79/3/4
f 66/5/4 67/5/4 79/5/4
f 79/3/4 76/3/4 80/3/4
f 80/3/4 76/3/4 81/3/4
f 77/5/4 78/5/4 82/5/4
f 81/3/4 76/3/4 82/3/4
f 76/5/4 77/5/4 82/5/4
f 79/5/4 80/5/4 83/5/4
f 52/5/4 66/5/4 83/5/4
f 66/5/4 79/5/4 83/5/4
f 80/4/4 81/4/4 84/4/4
f 83/5/4 80/5/4 84/5/4
f 81/5/4 82/5/4 85/5/4
f 84/4/4 81/4/4 85/4/4
f 78/5/4 55/5/4 86/5/4
f 85/5/4 82/5/4 86/5/4
f 82/5/4 78/5/4 86/5/4
f 89/5/5 88/5/5 87/5/5
f 90/5/5 88/5/5 89/5/5
f 91/5/6 92/5/6 93/5/6
f 93/5/6 92/5/6 94/5/6
