# MagicaVoxel @ Ephtracy

# material
mtllib Cell_Wall_2.mtl
usemtl palette

# normals
vn -1 0 0
vn 1 0 0
vn 0 0 1
vn 0 0 -1
vn 0 -1 0
vn 0 1 0

# texcoords
vt 0.337891 0.5
vt 0.970703 0.5
vt 0.982422 0.5

# verts
v -22 1 -0
v -22 1 -1
v -22 24 -0
v -22 24 -1
v 24 1 -0
v 24 1 -1
v 24 24 -0
v 24 24 -1
v -22 1 -0
v -22 24 -0
v -13 13 -0
v -13 14 -0
v -13 15 -0
v -12 13 -0
v -12 14 -0
v -12 15 -0
v -12 16 -0
v -11 19 -0
v -11 20 -0
v -10 14 -0
v -10 15 -0
v -10 16 -0
v -10 18 -0
v -10 19 -0
v -10 20 -0
v -9 16 -0
v -9 18 -0
v -9 19 -0
v -9 20 -0
v -8 16 -0
v -8 18 -0
v -8 19 -0
v -7 5 -0
v -7 9 -0
v -7 14 -0
v -7 15 -0
v -7 16 -0
v -7 18 -0
v -6 5 -0
v -6 9 -0
v -6 10 -0
v -6 12 -0
v -6 13 -0
v -6 14 -0
v -6 15 -0
v -6 16 -0
v -5 5 -0
v -5 10 -0
v -5 12 -0
v -5 13 -0
v -5 15 -0
v -5 16 -0
v -5 18 -0
v -4 10 -0
v -4 12 -0
v -4 13 -0
v -4 15 -0
v -4 16 -0
v -4 18 -0
v -4 20 -0
v -3 9 -0
v -3 10 -0
v -3 11 -0
v -3 12 -0
v -3 13 -0
v -3 15 -0
v -3 18 -0
v -3 20 -0
v -2 8 -0
v -2 9 -0
v -2 10 -0
v -2 11 -0
v -2 12 -0
v -2 18 -0
v -2 20 -0
v -1 7 -0
v -1 8 -0
v -1 9 -0
v -1 11 -0
v 0 7 -0
v 0 8 -0
v 0 9 -0
v 1 7 -0
v 1 8 -0
v 24 1 -0
v 24 24 -0
v -22 1 -1
v -22 24 -1
v -13 13 -1
v -13 14 -1
v -13 15 -1
v -12 13 -1
v -12 14 -1
v -12 15 -1
v -12 16 -1
v -11 19 -1
v -11 20 -1
v -10 14 -1
v -10 15 -1
v -10 16 -1
v -10 18 -1
v -10 19 -1
v -10 20 -1
v -9 16 -1
v -9 18 -1
v -9 19 -1
v -9 20 -1
v -8 16 -1
v -8 18 -1
v -8 19 -1
v -7 5 -1
v -7 9 -1
v -7 14 -1
v -7 15 -1
v -7 16 -1
v -7 18 -1
v -6 5 -1
v -6 9 -1
v -6 10 -1
v -6 12 -1
v -6 13 -1
v -6 14 -1
v -6 15 -1
v -6 16 -1
v -5 5 -1
v -5 10 -1
v -5 12 -1
v -5 13 -1
v -5 15 -1
v -5 16 -1
v -5 18 -1
v -4 10 -1
v -4 12 -1
v -4 13 -1
v -4 15 -1
v -4 16 -1
v -4 18 -1
v -4 20 -1
v -3 9 -1
v -3 10 -1
v -3 11 -1
v -3 12 -1
v -3 13 -1
v -3 15 -1
v -3 18 -1
v -3 20 -1
v -2 8 -1
v -2 9 -1
v -2 10 -1
v -2 11 -1
v -2 12 -1
v -2 18 -1
v -2 20 -1
v -1 7 -1
v -1 8 -1
v -1 9 -1
v -1 11 -1
v 0 7 -1
v 0 8 -1
v 0 9 -1
v 1 7 -1
v 1 8 -1
v 24 1 -1
v 24 24 -1
v -22 1 -0
v 24 1 -0
v -22 1 -1
v 24 1 -1
v -22 24 -0
v 24 24 -0
v -22 24 -1
v 24 24 -1

# faces
f 3/3/1 2/3/1 1/3/1
f 4/3/1 2/3/1 3/3/1
f 5/3/2 6/3/2 7/3/2
f 7/3/2 6/3/2 8/3/2
f 11/3/3 10/3/3 9/3/3
f 12/3/3 10/3/3 11/3/3
f 13/3/3 10/3/3 12/3/3
f 14/3/3 11/3/3 9/3/3
f 14/2/3 12/2/3 11/2/3
f 15/1/3 13/1/3 12/1/3
f 15/2/3 12/2/3 14/2/3
f 16/3/3 10/3/3 13/3/3
f 16/1/3 13/1/3 15/1/3
f 17/3/3 10/3/3 16/3/3
f 18/3/3 10/3/3 17/3/3
f 19/3/3 10/3/3 18/3/3
f 20/3/3 15/3/3 14/3/3
f 20/2/3 16/2/3 15/2/3
f 21/1/3 17/1/3 16/1/3
f 21/2/3 16/2/3 20/2/3
f 22/3/3 18/3/3 17/3/3
f 22/1/3 17/1/3 21/1/3
f 23/3/3 18/3/3 22/3/3
f 24/2/3 19/2/3 18/2/3
f 24/3/3 18/3/3 23/3/3
f 25/3/3 10/3/3 19/3/3
f 25/2/3 19/2/3 24/2/3
f 26/3/3 23/3/3 22/3/3
f 26/2/3 22/2/3 21/2/3
f 27/2/3 24/2/3 23/2/3
f 27/3/3 23/3/3 26/3/3
f 28/1/3 25/1/3 24/1/3
f 28/2/3 24/2/3 27/2/3
f 29/3/3 10/3/3 25/3/3
f 29/1/3 25/1/3 28/1/3
f 30/2/3 26/2/3 21/2/3
f 30/2/3 27/2/3 26/2/3
f 31/1/3 28/1/3 27/1/3
f 31/2/3 27/2/3 30/2/3
f 32/3/3 29/3/3 28/3/3
f 32/1/3 28/1/3 31/1/3
f 33/3/3 14/3/3 9/3/3
f 33/3/3 20/3/3 14/3/3
f 33/3/3 21/3/3 20/3/3
f 34/3/3 21/3/3 33/3/3
f 35/3/3 21/3/3 34/3/3
f 36/2/3 30/2/3 21/2/3
f 36/3/3 21/3/3 35/3/3
f 37/1/3 31/1/3 30/1/3
f 37/2/3 30/2/3 36/2/3
f 38/3/3 32/3/3 31/3/3
f 38/1/3 31/1/3 37/1/3
f 39/3/3 33/3/3 9/3/3
f 39/2/3 34/2/3 33/2/3
f 40/3/3 35/3/3 34/3/3
f 40/2/3 34/2/3 39/2/3
f 41/3/3 35/3/3 40/3/3
f 42/3/3 35/3/3 41/3/3
f 43/3/3 35/3/3 42/3/3
f 44/2/3 36/2/3 35/2/3
f 44/3/3 35/3/3 43/3/3
f 45/1/3 37/1/3 36/1/3
f 45/2/3 36/2/3 44/2/3
f 46/3/3 38/3/3 37/3/3
f 46/1/3 37/1/3 45/1/3
f 47/3/3 39/3/3 9/3/3
f 47/1/3 40/1/3 39/1/3
f 47/1/3 41/1/3 40/1/3
f 48/2/3 42/2/3 41/2/3
f 48/1/3 41/1/3 47/1/3
f 49/3/3 43/3/3 42/3/3
f 49/2/3 42/2/3 48/2/3
f 50/2/3 44/2/3 43/2/3
f 50/3/3 43/3/3 49/3/3
f 50/2/3 45/2/3 44/2/3
f 50/2/3 46/2/3 45/2/3
f 51/2/3 46/2/3 50/2/3
f 52/3/3 38/3/3 46/3/3
f 52/2/3 46/2/3 51/2/3
f 53/3/3 32/3/3 38/3/3
f 53/3/3 38/3/3 52/3/3
f 54/1/3 49/1/3 48/1/3
f 54/3/3 48/3/3 47/3/3
f 55/2/3 50/2/3 49/2/3
f 55/1/3 49/1/3 54/1/3
f 56/1/3 51/1/3 50/1/3
f 56/2/3 50/2/3 55/2/3
f 57/3/3 52/3/3 51/3/3
f 57/1/3 51/1/3 56/1/3
f 58/2/3 53/2/3 52/2/3
f 58/3/3 52/3/3 57/3/3
f 59/3/3 32/3/3 53/3/3
f 59/2/3 53/2/3 58/2/3
f 60/3/3 10/3/3 29/3/3
f 60/3/3 32/3/3 59/3/3
f 60/3/3 29/3/3 32/3/3
f 61/3/3 54/3/3 47/3/3
f 62/2/3 55/2/3 54/2/3
f 62/3/3 54/3/3 61/3/3
f 63/2/3 55/2/3 62/2/3
f 64/1/3 56/1/3 55/1/3
f 64/2/3 55/2/3 63/2/3
f 65/3/3 57/3/3 56/3/3
f 65/1/3 56/1/3 64/1/3
f 66/1/3 59/1/3 58/1/3
f 66/3/3 57/3/3 65/3/3
f 66/1/3 58/1/3 57/1/3
f 67/2/3 60/2/3 59/2/3
f 67/1/3 59/1/3 66/1/3
f 68/3/3 10/3/3 60/3/3
f 68/2/3 60/2/3 67/2/3
f 69/3/3 61/3/3 47/3/3
f 70/2/3 62/2/3 61/2/3
f 70/3/3 61/3/3 69/3/3
f 71/3/3 63/3/3 62/3/3
f 71/2/3 62/2/3 70/2/3
f 72/1/3 64/1/3 63/1/3
f 72/3/3 63/3/3 71/3/3
f 73/3/3 65/3/3 64/3/3
f 73/1/3 64/1/3 72/1/3
f 73/3/3 67/3/3 66/3/3
f 73/3/3 66/3/3 65/3/3
f 74/1/3 68/1/3 67/1/3
f 74/3/3 67/3/3 73/3/3
f 75/3/3 10/3/3 68/3/3
f 75/1/3 68/1/3 74/1/3
f 76/3/3 69/3/3 47/3/3
f 77/2/3 70/2/3 69/2/3
f 77/3/3 69/3/3 76/3/3
f 78/1/3 72/1/3 71/1/3
f 78/2/3 70/2/3 77/2/3
f 78/1/3 71/1/3 70/1/3
f 79/3/3 73/3/3 72/3/3
f 79/1/3 72/1/3 78/1/3
f 79/3/3 74/3/3 73/3/3
f 79/3/3 75/3/3 74/3/3
f 80/2/3 77/2/3 76/2/3
f 80/3/3 76/3/3 47/3/3
f 81/1/3 78/1/3 77/1/3
f 81/2/3 77/2/3 80/2/3
f 82/3/3 79/3/3 78/3/3
f 82/1/3 78/1/3 81/1/3
f 83/3/3 80/3/3 47/3/3
f 83/1/3 81/1/3 80/1/3
f 84/3/3 82/3/3 81/3/3
f 84/1/3 81/1/3 83/1/3
f 85/3/3 47/3/3 9/3/3
f 85/3/3 83/3/3 47/3/3
f 85/3/3 84/3/3 83/3/3
f 86/3/3 75/3/3 79/3/3
f 86/3/3 84/3/3 85/3/3
f 86/3/3 79/3/3 82/3/3
f 86/3/3 10/3/3 75/3/3
f 86/3/3 82/3/3 84/3/3
f 87/3/4 88/3/4 89/3/4
f 89/3/4 88/3/4 90/3/4
f 90/3/4 88/3/4 91/3/4
f 87/3/4 89/3/4 92/3/4
f 89/2/4 90/2/4 92/2/4
f 90/1/4 91/1/4 93/1/4
f 92/2/4 90/2/4 93/2/4
f 91/3/4 88/3/4 94/3/4
f 93/1/4 91/1/4 94/1/4
f 94/3/4 88/3/4 95/3/4
f 95/3/4 88/3/4 96/3/4
f 96/3/4 88/3/4 97/3/4
f 92/3/4 93/3/4 98/3/4
f 93/2/4 94/2/4 98/2/4
f 94/1/4 95/1/4 99/1/4
f 98/2/4 94/2/4 99/2/4
f 95/3/4 96/3/4 100/3/4
f 99/1/4 95/1/4 100/1/4
f 100/3/4 96/3/4 101/3/4
f 96/2/4 97/2/4 102/2/4
f 101/3/4 96/3/4 102/3/4
f 97/3/4 88/3/4 103/3/4
f 102/2/4 97/2/4 103/2/4
f 100/3/4 101/3/4 104/3/4
f 99/2/4 100/2/4 104/2/4
f 101/2/4 102/2/4 105/2/4
f 104/3/4 101/3/4 105/3/4
f 102/1/4 103/1/4 106/1/4
f 105/2/4 102/2/4 106/2/4
f 103/3/4 88/3/4 107/3/4
f 106/1/4 103/1/4 107/1/4
f 99/2/4 104/2/4 108/2/4
f 104/2/4 105/2/4 108/2/4
f 105/1/4 106/1/4 109/1/4
f 108/2/4 105/2/4 109/2/4
f 106/3/4 107/3/4 110/3/4
f 109/1/4 106/1/4 110/1/4
f 87/3/4 92/3/4 111/3/4
f 92/3/4 98/3/4 111/3/4
f 98/3/4 99/3/4 111/3/4
f 111/3/4 99/3/4 112/3/4
f 112/3/4 99/3/4 113/3/4
f 99/2/4 108/2/4 114/2/4
f 113/3/4 99/3/4 114/3/4
f 108/1/4 109/1/4 115/1/4
f 114/2/4 108/2/4 115/2/4
f 109/3/4 110/3/4 116/3/4
f 115/1/4 109/1/4 116/1/4
f 87/3/4 111/3/4 117/3/4
f 111/2/4 112/2/4 117/2/4
f 112/3/4 113/3/4 118/3/4
f 117/2/4 112/2/4 118/2/4
f 118/3/4 113/3/4 119/3/4
f 119/3/4 113/3/4 120/3/4
f 120/3/4 113/3/4 121/3/4
f 113/2/4 114/2/4 122/2/4
f 121/3/4 113/3/4 122/3/4
f 114/1/4 115/1/4 123/1/4
f 122/2/4 114/2/4 123/2/4
f 115/3/4 116/3/4 124/3/4
f 123/1/4 115/1/4 124/1/4
f 87/3/4 117/3/4 125/3/4
f 117/1/4 118/1/4 125/1/4
f 118/1/4 119/1/4 125/1/4
f 119/2/4 120/2/4 126/2/4
f 125/1/4 119/1/4 126/1/4
f 120/3/4 121/3/4 127/3/4
f 126/2/4 120/2/4 127/2/4
f 121/2/4 122/2/4 128/2/4
f 127/3/4 121/3/4 128/3/4
f 122/2/4 123/2/4 128/2/4
f 123/2/4 124/2/4 128/2/4
f 128/2/4 124/2/4 129/2/4
f 124/3/4 116/3/4 130/3/4
f 129/2/4 124/2/4 130/2/4
f 116/3/4 110/3/4 131/3/4
f 130/3/4 116/3/4 131/3/4
f 126/1/4 127/1/4 132/1/4
f 125/3/4 126/3/4 132/3/4
f 127/2/4 128/2/4 133/2/4
f 132/1/4 127/1/4 133/1/4
f 128/1/4 129/1/4 134/1/4
f 133/2/4 128/2/4 134/2/4
f 129/3/4 130/3/4 135/3/4
f 134/1/4 129/1/4 135/1/4
f 130/2/4 131/2/4 136/2/4
f 135/3/4 130/3/4 136/3/4
f 131/3/4 110/3/4 137/3/4
f 136/2/4 131/2/4 137/2/4
f 107/3/4 88/3/4 138/3/4
f 137/3/4 110/3/4 138/3/4
f 110/3/4 107/3/4 138/3/4
f 125/3/4 132/3/4 139/3/4
f 132/2/4 133/2/4 140/2/4
f 139/3/4 132/3/4 140/3/4
f 140/2/4 133/2/4 141/2/4
f 133/1/4 134/1/4 142/1/4
f 141/2/4 133/2/4 142/2/4
f 134/3/4 135/3/4 143/3/4
f 142/1/4 134/1/4 143/1/4
f 136/1/4 137/1/4 144/1/4
f 143/3/4 135/3/4 144/3/4
f 135/1/4 136/1/4 144/1/4
f 137/2/4 138/2/4 145/2/4
f 144/1/4 137/1/4 145/1/4
f 138/3/4 88/3/4 146/3/4
f 145/2/4 138/2/4 146/2/4
f 125/3/4 139/3/4 147/3/4
f 139/2/4 140/2/4 148/2/4
f 147/3/4 139/3/4 148/3/4
f 140/3/4 141/3/4 149/3/4
f 148/2/4 140/2/4 149/2/4
f 141/1/4 142/1/4 150/1/4
f 149/3/4 141/3/4 150/3/4
f 142/3/4 143/3/4 151/3/4
f 150/1/4 142/1/4 151/1/4
f 144/3/4 145/3/4 151/3/4
f 143/3/4 144/3/4 151/3/4
f 145/1/4 146/1/4 152/1/4
f 151/3/4 145/3/4 152/3/4
f 146/3/4 88/3/4 153/3/4
f 152/1/4 146/1/4 153/1/4
f 125/3/4 147/3/4 154/3/4
f 147/2/4 148/2/4 155/2/4
f 154/3/4 147/3/4 155/3/4
f 149/1/4 150/1/4 156/1/4
f 155/2/4 148/2/4 156/2/4
f 148/1/4 149/1/4 156/1/4
f 150/3/4 151/3/4 157/3/4
f 156/1/4 150/1/4 157/1/4
f 151/3/4 152/3/4 157/3/4
f 152/3/4 153/3/4 157/3/4
f 154/2/4 155/2/4 158/2/4
f 125/3/4 154/3/4 158/3/4
f 155/1/4 156/1/4 159/1/4
f 158/2/4 155/2/4 159/2/4
f 156/3/4 157/3/4 160/3/4
f 159/1/4 156/1/4 160/1/4
f 125/3/4 158/3/4 161/3/4
f 158/1/4 159/1/4 161/1/4
f 159/3/4 160/3/4 162/3/4
f 161/1/4 159/1/4 162/1/4
f 87/3/4 125/3/4 163/3/4
f 125/3/4 161/3/4 163/3/4
f 161/3/4 162/3/4 163/3/4
f 157/3/4 153/3/4 164/3/4
f 163/3/4 162/3/4 164/3/4
f 160/3/4 157/3/4 164/3/4
f 153/3/4 88/3/4 164/3/4
f 162/3/4 160/3/4 164/3/4
f 167/3/5 166/3/5 165/3/5
f 168/3/5 166/3/5 167/3/5
f 169/3/6 170/3/6 171/3/6
f 171/3/6 170/3/6 172/3/6
