# MagicaVoxel @ Ephtracy

# material
mtllib HHB Cart.mtl
usemtl palette

# normals
vn -1 0 0
vn 1 0 0
vn 0 0 1
vn 0 0 -1
vn 0 -1 0
vn 0 1 0

# texcoords
vt 0.681641 0.5
vt 0.935547 0.5
vt 0.970703 0.5
vt 0.974609 0.5

# verts
v -8 0 -2
v -8 0 -3
v -8 0 -4
v -8 0 -5
v -8 1 -2
v -8 1 -3
v -8 1 -4
v -8 1 -5
v -7 0 6
v -7 0 5
v -7 0 1
v -7 0 -2
v -7 1 6
v -7 1 5
v -7 1 1
v -7 1 -2
v -6 0 7
v -6 0 6
v -6 0 5
v -6 0 4
v -6 0 2
v -6 0 1
v -6 1 7
v -6 1 6
v -6 1 5
v -6 1 4
v -6 1 2
v -6 1 1
v -5 0 6
v -5 0 5
v -5 0 -3
v -5 0 -4
v -5 1 6
v -5 1 5
v -5 1 -3
v -5 1 -4
v -4 0 1
v -4 0 -0
v -4 0 -1
v -4 0 -2
v -4 1 1
v -4 1 -0
v -4 1 -1
v -4 1 -2
v -2 0 1
v -2 0 -0
v -2 0 -1
v -2 0 -2
v -2 1 1
v -2 1 -0
v -2 1 -1
v -2 1 -2
v -1 0 -3
v -1 0 -4
v -1 1 -3
v -1 1 -4
v 1 0 7
v 1 0 6
v 1 0 5
v 1 0 4
v 1 0 3
v 1 0 2
v 1 0 1
v 1 0 -0
v 1 0 -1
v 1 0 -2
v 1 1 7
v 1 1 6
v 1 1 5
v 1 1 4
v 1 1 3
v 1 1 2
v 1 1 1
v 1 1 -0
v 1 1 -1
v 1 1 -2
v 2 0 6
v 2 0 5
v 2 0 4
v 2 0 3
v 2 0 -3
v 2 0 -4
v 2 1 6
v 2 1 5
v 2 1 4
v 2 1 3
v 2 1 -3
v 2 1 -4
v 3 0 -5
v 3 0 -6
v 3 1 -5
v 3 1 -6
v 4 0 -6
v 4 0 -7
v 4 1 -6
v 4 1 -7
v 5 0 -5
v 5 0 -6
v 5 1 -5
v 5 1 -6
v -7 0 -3
v -7 0 -4
v -7 1 -3
v -7 1 -4
v -6 0 6
v -6 0 5
v -6 0 1
v -6 0 -0
v -6 0 -1
v -6 0 -2
v -6 1 6
v -6 1 5
v -6 1 1
v -6 1 -0
v -6 1 -1
v -6 1 -2
v -5 0 7
v -5 0 6
v -5 0 5
v -5 0 4
v -5 1 7
v -5 1 6
v -5 1 5
v -5 1 4
v -4 0 -3
v -4 0 -4
v -4 1 -3
v -4 1 -4
v -3 0 1
v -3 0 -0
v -3 0 -1
v -3 0 -2
v -3 1 1
v -3 1 -0
v -3 1 -1
v -3 1 -2
v -1 0 1
v -1 0 -0
v -1 0 -1
v -1 0 -2
v -1 1 1
v -1 1 -0
v -1 1 -1
v -1 1 -2
v 0 0 -3
v 0 0 -4
v 0 1 -3
v 0 1 -4
v 1 0 6
v 1 0 5
v 1 0 2
v 1 0 1
v 1 1 6
v 1 1 5
v 1 1 2
v 1 1 1
v 2 0 7
v 2 0 6
v 2 0 5
v 2 0 4
v 2 0 3
v 2 0 2
v 2 0 1
v 2 0 -2
v 2 1 7
v 2 1 6
v 2 1 5
v 2 1 4
v 2 1 3
v 2 1 2
v 2 1 1
v 2 1 -2
v 3 0 6
v 3 0 5
v 3 0 4
v 3 0 3
v 3 0 -2
v 3 0 -3
v 3 0 -4
v 3 0 -5
v 3 1 6
v 3 1 5
v 3 1 4
v 3 1 3
v 3 1 -2
v 3 1 -3
v 3 1 -4
v 3 1 -5
v 4 0 -5
v 4 0 -6
v 4 1 -5
v 4 1 -6
v 7 0 -5
v 7 0 -7
v 7 1 -5
v 7 1 -7
v -6 0 7
v -6 1 7
v -5 0 7
v -5 1 7
v 1 0 7
v 1 1 7
v 2 0 7
v 2 1 7
v -7 0 6
v -7 1 6
v -6 0 6
v -6 1 6
v -5 0 6
v -5 1 6
v -4 0 6
v -4 1 6
v 0 0 6
v 0 1 6
v 1 0 6
v 1 1 6
v 2 0 6
v 2 1 6
v 3 0 6
v 3 1 6
v -6 0 5
v -6 1 5
v -5 0 5
v -5 1 5
v 1 0 5
v 1 1 5
v 2 0 5
v 2 1 5
v 2 0 4
v 2 1 4
v 3 0 4
v 3 1 4
v 1 0 3
v 1 1 3
v 2 0 3
v 2 1 3
v -6 0 2
v -6 1 2
v 1 0 2
v 1 1 2
v -7 0 1
v -7 1 1
v -6 0 1
v -6 1 1
v 1 0 1
v 1 1 1
v 2 0 1
v 2 1 1
v -6 0 -0
v -6 1 -0
v -4 0 -0
v -4 1 -0
v -3 0 -0
v -3 1 -0
v -2 0 -0
v -2 1 -0
v -1 0 -0
v -1 1 -0
v 1 0 -0
v 1 1 -0
v -8 0 -2
v -8 1 -2
v -7 0 -2
v -7 1 -2
v -6 0 -2
v -6 1 -2
v -4 0 -2
v -4 1 -2
v -3 0 -2
v -3 1 -2
v -2 0 -2
v -2 1 -2
v -1 0 -2
v -1 1 -2
v 1 0 -2
v 1 1 -2
v 2 0 -2
v 2 1 -2
v 3 0 -2
v 3 1 -2
v -7 0 -4
v -7 1 -4
v -5 0 -4
v -5 1 -4
v -4 0 -4
v -4 1 -4
v -1 0 -4
v -1 1 -4
v 0 0 -4
v 0 1 -4
v 2 0 -4
v 2 1 -4
v 3 0 -5
v 3 1 -5
v 4 0 -5
v 4 1 -5
v 5 0 -5
v 5 1 -5
v 7 0 -5
v 7 1 -5
v 4 0 -6
v 4 1 -6
v 5 0 -6
v 5 1 -6
v -6 0 6
v -6 1 6
v -5 0 6
v -5 1 6
v 1 0 6
v 1 1 6
v 2 0 6
v 2 1 6
v -7 0 5
v -7 1 5
v -6 0 5
v -6 1 5
v -5 0 5
v -5 1 5
v -4 0 5
v -4 1 5
v 0 0 5
v 0 1 5
v 1 0 5
v 1 1 5
v 2 0 5
v 2 1 5
v 3 0 5
v 3 1 5
v -6 0 4
v -6 1 4
v -5 0 4
v -5 1 4
v 1 0 4
v 1 1 4
v 2 0 4
v 2 1 4
v 2 0 3
v 2 1 3
v 3 0 3
v 3 1 3
v 1 0 2
v 1 1 2
v 2 0 2
v 2 1 2
v -6 0 1
v -6 1 1
v -4 0 1
v -4 1 1
v -3 0 1
v -3 1 1
v -2 0 1
v -2 1 1
v -1 0 1
v -1 1 1
v 1 0 1
v 1 1 1
v -6 0 -1
v -6 1 -1
v -4 0 -1
v -4 1 -1
v -3 0 -1
v -3 1 -1
v -2 0 -1
v -2 1 -1
v -1 0 -1
v -1 1 -1
v 1 0 -1
v 1 1 -1
v -7 0 -3
v -7 1 -3
v -5 0 -3
v -5 1 -3
v -4 0 -3
v -4 1 -3
v -1 0 -3
v -1 1 -3
v 0 0 -3
v 0 1 -3
v 2 0 -3
v 2 1 -3
v -8 0 -5
v -8 1 -5
v 3 0 -5
v 3 1 -5
v 3 0 -6
v 3 1 -6
v 4 0 -6
v 4 1 -6
v 4 0 -7
v 4 1 -7
v 5 0 -7
v 5 1 -7
v 6 0 -7
v 6 1 -7
v 7 0 -7
v 7 1 -7
v -6 0 7
v -5 0 7
v 1 0 7
v 2 0 7
v -7 0 6
v -6 0 6
v -5 0 6
v -4 0 6
v 0 0 6
v 1 0 6
v 2 0 6
v 3 0 6
v -7 0 5
v -6 0 5
v -5 0 5
v -4 0 5
v 0 0 5
v 1 0 5
v 2 0 5
v 3 0 5
v -6 0 4
v -5 0 4
v 1 0 4
v 2 0 4
v 3 0 4
v 1 0 3
v 2 0 3
v 3 0 3
v -6 0 2
v 1 0 2
v 2 0 2
v -7 0 1
v -6 0 1
v -4 0 1
v -3 0 1
v -2 0 1
v -1 0 1
v 1 0 1
v 2 0 1
v -6 0 -0
v -4 0 -0
v -3 0 -0
v -2 0 -0
v -1 0 -0
v 1 0 -0
v -6 0 -1
v -4 0 -1
v -3 0 -1
v -2 0 -1
v -1 0 -1
v 1 0 -1
v -8 0 -2
v -7 0 -2
v -6 0 -2
v -4 0 -2
v -3 0 -2
v -2 0 -2
v -1 0 -2
v 1 0 -2
v 2 0 -2
v 3 0 -2
v -8 0 -3
v -7 0 -3
v -5 0 -3
v -4 0 -3
v -1 0 -3
v 0 0 -3
v 2 0 -3
v 3 0 -3
v -8 0 -4
v -7 0 -4
v -5 0 -4
v -4 0 -4
v -1 0 -4
v 0 0 -4
v 2 0 -4
v 3 0 -4
v -8 0 -5
v 3 0 -5
v 4 0 -5
v 5 0 -5
v 7 0 -5
v 3 0 -6
v 4 0 -6
v 5 0 -6
v 6 0 -6
v 4 0 -7
v 5 0 -7
v 6 0 -7
v 7 0 -7
v -6 1 7
v -5 1 7
v 1 1 7
v 2 1 7
v -7 1 6
v -6 1 6
v -5 1 6
v -4 1 6
v 0 1 6
v 1 1 6
v 2 1 6
v 3 1 6
v -7 1 5
v -6 1 5
v -5 1 5
v -4 1 5
v 0 1 5
v 1 1 5
v 2 1 5
v 3 1 5
v -6 1 4
v -5 1 4
v 1 1 4
v 2 1 4
v 3 1 4
v 1 1 3
v 2 1 3
v 3 1 3
v -6 1 2
v 1 1 2
v 2 1 2
v -7 1 1
v -6 1 1
v -4 1 1
v -3 1 1
v -2 1 1
v -1 1 1
v 1 1 1
v 2 1 1
v -6 1 -0
v -4 1 -0
v -3 1 -0
v -2 1 -0
v -1 1 -0
v 1 1 -0
v -6 1 -1
v -4 1 -1
v -3 1 -1
v -2 1 -1
v -1 1 -1
v 1 1 -1
v -8 1 -2
v -7 1 -2
v -6 1 -2
v -4 1 -2
v -3 1 -2
v -2 1 -2
v -1 1 -2
v 1 1 -2
v 2 1 -2
v 3 1 -2
v -8 1 -3
v -7 1 -3
v -5 1 -3
v -4 1 -3
v -1 1 -3
v 0 1 -3
v 2 1 -3
v 3 1 -3
v -8 1 -4
v -7 1 -4
v -5 1 -4
v -4 1 -4
v -1 1 -4
v 0 1 -4
v 2 1 -4
v 3 1 -4
v -8 1 -5
v 3 1 -5
v 4 1 -5
v 5 1 -5
v 7 1 -5
v 3 1 -6
v 4 1 -6
v 5 1 -6
v 6 1 -6
v 4 1 -7
v 5 1 -7
v 6 1 -7
v 7 1 -7

# faces
f 5/3/1 2/3/1 1/3/1
f 6/4/1 3/4/1 2/4/1
f 6/3/1 2/3/1 5/3/1
f 7/3/1 4/3/1 3/3/1
f 7/4/1 3/4/1 6/4/1
f 8/3/1 4/3/1 7/3/1
f 13/1/1 10/1/1 9/1/1
f 14/1/1 10/1/1 13/1/1
f 15/3/1 12/3/1 11/3/1
f 16/3/1 12/3/1 15/3/1
f 23/2/1 18/2/1 17/2/1
f 24/2/1 18/2/1 23/2/1
f 25/1/1 20/1/1 19/1/1
f 26/1/1 20/1/1 25/1/1
f 27/4/1 22/4/1 21/4/1
f 28/4/1 22/4/1 27/4/1
f 33/2/1 30/2/1 29/2/1
f 34/2/1 30/2/1 33/2/1
f 35/4/1 32/4/1 31/4/1
f 36/4/1 32/4/1 35/4/1
f 41/3/1 38/3/1 37/3/1
f 42/3/1 38/3/1 41/3/1
f 43/3/1 40/3/1 39/3/1
f 44/3/1 40/3/1 43/3/1
f 49/3/1 46/3/1 45/3/1
f 50/3/1 46/3/1 49/3/1
f 51/3/1 48/3/1 47/3/1
f 52/3/1 48/3/1 51/3/1
f 55/4/1 54/4/1 53/4/1
f 56/4/1 54/4/1 55/4/1
f 67/2/1 58/2/1 57/2/1
f 68/2/1 58/2/1 67/2/1
f 69/1/1 60/1/1 59/1/1
f 70/1/1 60/1/1 69/1/1
f 71/3/1 62/3/1 61/3/1
f 72/3/1 62/3/1 71/3/1
f 73/3/1 64/3/1 63/3/1
f 74/3/1 64/3/1 73/3/1
f 75/3/1 66/3/1 65/3/1
f 76/3/1 66/3/1 75/3/1
f 83/2/1 78/2/1 77/2/1
f 84/2/1 78/2/1 83/2/1
f 85/3/1 80/3/1 79/3/1
f 86/3/1 80/3/1 85/3/1
f 87/4/1 82/4/1 81/4/1
f 88/4/1 82/4/1 87/4/1
f 91/3/1 90/3/1 89/3/1
f 92/3/1 90/3/1 91/3/1
f 95/3/1 94/3/1 93/3/1
f 96/3/1 94/3/1 95/3/1
f 99/2/1 98/2/1 97/2/1
f 100/2/1 98/2/1 99/2/1
f 101/4/2 102/4/2 103/4/2
f 103/4/2 102/4/2 104/4/2
f 105/1/2 106/1/2 111/1/2
f 111/1/2 106/1/2 112/1/2
f 107/3/2 108/3/2 113/3/2
f 113/3/2 108/3/2 114/3/2
f 109/3/2 110/3/2 115/3/2
f 115/3/2 110/3/2 116/3/2
f 117/2/2 118/2/2 121/2/2
f 121/2/2 118/2/2 122/2/2
f 119/1/2 120/1/2 123/1/2
f 123/1/2 120/1/2 124/1/2
f 125/4/2 126/4/2 127/4/2
f 127/4/2 126/4/2 128/4/2
f 129/3/2 130/3/2 133/3/2
f 133/3/2 130/3/2 134/3/2
f 131/3/2 132/3/2 135/3/2
f 135/3/2 132/3/2 136/3/2
f 137/3/2 138/3/2 141/3/2
f 141/3/2 138/3/2 142/3/2
f 139/3/2 140/3/2 143/3/2
f 143/3/2 140/3/2 144/3/2
f 145/4/2 146/4/2 147/4/2
f 147/4/2 146/4/2 148/4/2
f 149/1/2 150/1/2 153/1/2
f 153/1/2 150/1/2 154/1/2
f 151/4/2 152/4/2 155/4/2
f 155/4/2 152/4/2 156/4/2
f 157/2/2 158/2/2 165/2/2
f 165/2/2 158/2/2 166/2/2
f 159/1/2 160/1/2 167/1/2
f 167/1/2 160/1/2 168/1/2
f 161/3/2 162/3/2 169/3/2
f 169/3/2 162/3/2 170/3/2
f 163/3/2 164/3/2 171/3/2
f 171/3/2 164/3/2 172/3/2
f 173/2/2 174/2/2 181/2/2
f 181/2/2 174/2/2 182/2/2
f 175/3/2 176/3/2 183/3/2
f 183/3/2 176/3/2 184/3/2
f 177/3/2 178/3/2 185/3/2
f 178/4/2 179/4/2 186/4/2
f 185/3/2 178/3/2 186/3/2
f 179/3/2 180/3/2 187/3/2
f 186/4/2 179/4/2 187/4/2
f 187/3/2 180/3/2 188/3/2
f 189/3/2 190/3/2 191/3/2
f 191/3/2 190/3/2 192/3/2
f 193/2/2 194/2/2 195/2/2
f 195/2/2 194/2/2 196/2/2
f 199/2/3 198/2/3 197/2/3
f 200/2/3 198/2/3 199/2/3
f 203/2/3 202/2/3 201/2/3
f 204/2/3 202/2/3 203/2/3
f 207/1/3 206/1/3 205/1/3
f 208/1/3 206/1/3 207/1/3
f 211/2/3 210/2/3 209/2/3
f 212/2/3 210/2/3 211/2/3
f 213/3/3 212/3/3 211/3/3
f 214/3/3 212/3/3 213/3/3
f 215/1/3 214/1/3 213/1/3
f 216/1/3 214/1/3 215/1/3
f 219/2/3 218/2/3 217/2/3
f 220/2/3 218/2/3 219/2/3
f 223/1/3 222/1/3 221/1/3
f 224/1/3 222/1/3 223/1/3
f 227/1/3 226/1/3 225/1/3
f 228/1/3 226/1/3 227/1/3
f 231/3/3 230/3/3 229/3/3
f 232/3/3 230/3/3 231/3/3
f 235/3/3 234/3/3 233/3/3
f 236/3/3 234/3/3 235/3/3
f 239/4/3 238/4/3 237/4/3
f 240/4/3 238/4/3 239/4/3
f 243/3/3 242/3/3 241/3/3
f 244/3/3 242/3/3 243/3/3
f 247/3/3 246/3/3 245/3/3
f 248/3/3 246/3/3 247/3/3
f 251/3/3 250/3/3 249/3/3
f 252/3/3 250/3/3 251/3/3
f 255/3/3 254/3/3 253/3/3
f 256/3/3 254/3/3 255/3/3
f 259/3/3 258/3/3 257/3/3
f 260/3/3 258/3/3 259/3/3
f 263/3/3 262/3/3 261/3/3
f 264/3/3 262/3/3 263/3/3
f 267/3/3 266/3/3 265/3/3
f 268/3/3 266/3/3 267/3/3
f 271/3/3 270/3/3 269/3/3
f 272/3/3 270/3/3 271/3/3
f 275/3/3 274/3/3 273/3/3
f 276/3/3 274/3/3 275/3/3
f 279/3/3 278/3/3 277/3/3
f 280/3/3 278/3/3 279/3/3
f 283/3/3 282/3/3 281/3/3
f 284/3/3 282/3/3 283/3/3
f 287/3/3 286/3/3 285/3/3
f 288/3/3 286/3/3 287/3/3
f 291/3/3 290/3/3 289/3/3
f 292/3/3 290/3/3 291/3/3
f 295/3/3 294/3/3 293/3/3
f 296/3/3 294/3/3 295/3/3
f 299/2/3 298/2/3 297/2/3
f 300/2/3 298/2/3 299/2/3
f 303/3/3 302/3/3 301/3/3
f 304/3/3 302/3/3 303/3/3
f 305/2/4 306/2/4 307/2/4
f 307/2/4 306/2/4 308/2/4
f 309/2/4 310/2/4 311/2/4
f 311/2/4 310/2/4 312/2/4
f 313/1/4 314/1/4 315/1/4
f 315/1/4 314/1/4 316/1/4
f 317/2/4 318/2/4 319/2/4
f 319/2/4 318/2/4 320/2/4
f 319/3/4 320/3/4 321/3/4
f 321/3/4 320/3/4 322/3/4
f 321/1/4 322/1/4 323/1/4
f 323/1/4 322/1/4 324/1/4
f 325/2/4 326/2/4 327/2/4
f 327/2/4 326/2/4 328/2/4
f 329/1/4 330/1/4 331/1/4
f 331/1/4 330/1/4 332/1/4
f 333/1/4 334/1/4 335/1/4
f 335/1/4 334/1/4 336/1/4
f 337/3/4 338/3/4 339/3/4
f 339/3/4 338/3/4 340/3/4
f 341/3/4 342/3/4 343/3/4
f 343/3/4 342/3/4 344/3/4
f 345/4/4 346/4/4 347/4/4
f 347/4/4 346/4/4 348/4/4
f 349/4/4 350/4/4 351/4/4
f 351/4/4 350/4/4 352/4/4
f 353/4/4 354/4/4 355/4/4
f 355/4/4 354/4/4 356/4/4
f 357/3/4 358/3/4 359/3/4
f 359/3/4 358/3/4 360/3/4
f 361/3/4 362/3/4 363/3/4
f 363/3/4 362/3/4 364/3/4
f 365/3/4 366/3/4 367/3/4
f 367/3/4 366/3/4 368/3/4
f 369/3/4 370/3/4 371/3/4
f 371/3/4 370/3/4 372/3/4
f 373/3/4 374/3/4 375/3/4
f 375/3/4 374/3/4 376/3/4
f 377/3/4 378/3/4 379/3/4
f 379/3/4 378/3/4 380/3/4
f 381/3/4 382/3/4 383/3/4
f 383/3/4 382/3/4 384/3/4
f 385/3/4 386/3/4 387/3/4
f 387/3/4 386/3/4 388/3/4
f 389/3/4 390/3/4 391/3/4
f 391/3/4 390/3/4 392/3/4
f 391/1/4 392/1/4 393/1/4
f 393/1/4 392/1/4 394/1/4
f 393/2/4 394/2/4 395/2/4
f 395/2/4 394/2/4 396/2/4
f 402/2/5 398/2/5 397/2/5
f 403/2/5 398/2/5 402/2/5
f 406/2/5 400/2/5 399/2/5
f 407/2/5 400/2/5 406/2/5
f 409/1/5 402/1/5 401/1/5
f 410/1/5 402/1/5 409/1/5
f 411/2/5 404/2/5 403/2/5
f 412/3/5 405/3/5 404/3/5
f 412/2/5 404/2/5 411/2/5
f 413/1/5 406/1/5 405/1/5
f 413/3/5 405/3/5 412/3/5
f 414/1/5 406/1/5 413/1/5
f 415/2/5 408/2/5 407/2/5
f 416/2/5 408/2/5 415/2/5
f 417/1/5 411/1/5 410/1/5
f 418/1/5 411/1/5 417/1/5
f 419/1/5 415/1/5 414/1/5
f 420/1/5 415/1/5 419/1/5
f 423/3/5 421/3/5 420/3/5
f 424/3/5 421/3/5 423/3/5
f 426/3/5 423/3/5 422/3/5
f 427/3/5 423/3/5 426/3/5
f 429/4/5 426/4/5 425/4/5
f 430/4/5 426/4/5 429/4/5
f 431/4/5 426/4/5 430/4/5
f 432/4/5 426/4/5 431/4/5
f 433/4/5 426/4/5 432/4/5
f 434/4/5 426/4/5 433/4/5
f 436/3/5 429/3/5 428/3/5
f 437/3/5 431/3/5 430/3/5
f 438/3/5 431/3/5 437/3/5
f 439/3/5 433/3/5 432/3/5
f 440/3/5 433/3/5 439/3/5
f 441/3/5 435/3/5 434/3/5
f 442/3/5 440/3/5 439/3/5
f 442/3/5 441/3/5 440/3/5
f 442/3/5 438/3/5 437/3/5
f 442/3/5 436/3/5 428/3/5
f 442/3/5 439/3/5 438/3/5
f 442/3/5 437/3/5 436/3/5
f 443/3/5 441/3/5 442/3/5
f 444/3/5 441/3/5 443/3/5
f 445/3/5 441/3/5 444/3/5
f 446/3/5 441/3/5 445/3/5
f 447/3/5 435/3/5 441/3/5
f 447/3/5 441/3/5 446/3/5
f 449/3/5 442/3/5 428/3/5
f 450/3/5 442/3/5 449/3/5
f 451/3/5 444/3/5 443/3/5
f 452/3/5 444/3/5 451/3/5
f 453/3/5 446/3/5 445/3/5
f 454/3/5 446/3/5 453/3/5
f 455/3/5 435/3/5 447/3/5
f 456/3/5 435/3/5 455/3/5
f 458/3/5 456/3/5 455/3/5
f 458/3/5 457/3/5 456/3/5
f 458/3/5 455/3/5 454/3/5
f 458/3/5 452/3/5 451/3/5
f 458/3/5 453/3/5 452/3/5
f 458/3/5 450/3/5 449/3/5
f 458/3/5 451/3/5 450/3/5
f 458/3/5 454/3/5 453/3/5
f 458/3/5 449/3/5 448/3/5
f 459/3/5 457/3/5 458/3/5
f 460/3/5 457/3/5 459/3/5
f 461/3/5 457/3/5 460/3/5
f 462/3/5 457/3/5 461/3/5
f 463/3/5 457/3/5 462/3/5
f 464/3/5 457/3/5 463/3/5
f 465/3/5 457/3/5 464/3/5
f 466/4/5 459/4/5 458/4/5
f 467/4/5 459/4/5 466/4/5
f 468/4/5 461/4/5 460/4/5
f 469/4/5 461/4/5 468/4/5
f 470/4/5 463/4/5 462/4/5
f 471/4/5 463/4/5 470/4/5
f 472/4/5 465/4/5 464/4/5
f 473/4/5 465/4/5 472/4/5
f 474/3/5 471/3/5 470/3/5
f 474/3/5 467/3/5 466/3/5
f 474/3/5 473/3/5 472/3/5
f 474/3/5 472/3/5 471/3/5
f 474/3/5 469/3/5 468/3/5
f 474/3/5 470/3/5 469/3/5
f 474/3/5 468/3/5 467/3/5
f 475/3/5 473/3/5 474/3/5
f 479/3/5 476/3/5 475/3/5
f 480/3/5 476/3/5 479/3/5
f 481/2/5 478/2/5 477/2/5
f 482/2/5 478/2/5 481/2/5
f 483/3/5 481/3/5 480/3/5
f 484/1/5 482/1/5 481/1/5
f 484/3/5 481/3/5 483/3/5
f 485/2/5 478/2/5 482/2/5
f 485/1/5 482/1/5 484/1/5
f 486/2/5 478/2/5 485/2/5
f 487/2/6 488/2/6 492/2/6
f 492/2/6 488/2/6 493/2/6
f 489/2/6 490/2/6 496/2/6
f 496/2/6 490/2/6 497/2/6
f 491/1/6 492/1/6 499/1/6
f 499/1/6 492/1/6 500/1/6
f 493/2/6 494/2/6 501/2/6
f 494/3/6 495/3/6 502/3/6
f 501/2/6 494/2/6 502/2/6
f 495/1/6 496/1/6 503/1/6
f 502/3/6 495/3/6 503/3/6
f 503/1/6 496/1/6 504/1/6
f 497/2/6 498/2/6 505/2/6
f 505/2/6 498/2/6 506/2/6
f 500/1/6 501/1/6 507/1/6
f 507/1/6 501/1/6 508/1/6
f 504/1/6 505/1/6 509/1/6
f 509/1/6 505/1/6 510/1/6
f 510/3/6 511/3/6 513/3/6
f 513/3/6 511/3/6 514/3/6
f 512/3/6 513/3/6 516/3/6
f 516/3/6 513/3/6 517/3/6
f 515/4/6 516/4/6 519/4/6
f 519/4/6 516/4/6 520/4/6
f 520/4/6 516/4/6 521/4/6
f 521/4/6 516/4/6 522/4/6
f 522/4/6 516/4/6 523/4/6
f 523/4/6 516/4/6 524/4/6
f 518/3/6 519/3/6 526/3/6
f 520/3/6 521/3/6 527/3/6
f 527/3/6 521/3/6 528/3/6
f 522/3/6 523/3/6 529/3/6
f 529/3/6 523/3/6 530/3/6
f 524/3/6 525/3/6 531/3/6
f 529/3/6 530/3/6 532/3/6
f 530/3/6 531/3/6 532/3/6
f 527/3/6 528/3/6 532/3/6
f 518/3/6 526/3/6 532/3/6
f 528/3/6 529/3/6 532/3/6
f 526/3/6 527/3/6 532/3/6
f 532/3/6 531/3/6 533/3/6
f 533/3/6 531/3/6 534/3/6
f 534/3/6 531/3/6 535/3/6
f 535/3/6 531/3/6 536/3/6
f 531/3/6 525/3/6 537/3/6
f 536/3/6 531/3/6 537/3/6
f 518/3/6 532/3/6 539/3/6
f 539/3/6 532/3/6 540/3/6
f 533/3/6 534/3/6 541/3/6
f 541/3/6 534/3/6 542/3/6
f 535/3/6 536/3/6 543/3/6
f 543/3/6 536/3/6 544/3/6
f 537/3/6 525/3/6 545/3/6
f 545/3/6 525/3/6 546/3/6
f 545/3/6 546/3/6 548/3/6
f 546/3/6 547/3/6 548/3/6
f 544/3/6 545/3/6 548/3/6
f 541/3/6 542/3/6 548/3/6
f 542/3/6 543/3/6 548/3/6
f 539/3/6 540/3/6 548/3/6
f 540/3/6 541/3/6 548/3/6
f 543/3/6 544/3/6 548/3/6
f 538/3/6 539/3/6 548/3/6
f 548/3/6 547/3/6 549/3/6
f 549/3/6 547/3/6 550/3/6
f 550/3/6 547/3/6 551/3/6
f 551/3/6 547/3/6 552/3/6
f 552/3/6 547/3/6 553/3/6
f 553/3/6 547/3/6 554/3/6
f 554/3/6 547/3/6 555/3/6
f 548/4/6 549/4/6 556/4/6
f 556/4/6 549/4/6 557/4/6
f 550/4/6 551/4/6 558/4/6
f 558/4/6 551/4/6 559/4/6
f 552/4/6 553/4/6 560/4/6
f 560/4/6 553/4/6 561/4/6
f 554/4/6 555/4/6 562/4/6
f 562/4/6 555/4/6 563/4/6
f 560/3/6 561/3/6 564/3/6
f 556/3/6 557/3/6 564/3/6
f 562/3/6 563/3/6 564/3/6
f 561/3/6 562/3/6 564/3/6
f 558/3/6 559/3/6 564/3/6
f 559/3/6 560/3/6 564/3/6
f 557/3/6 558/3/6 564/3/6
f 564/3/6 563/3/6 565/3/6
f 565/3/6 566/3/6 569/3/6
f 569/3/6 566/3/6 570/3/6
f 567/2/6 568/2/6 571/2/6
f 571/2/6 568/2/6 572/2/6
f 570/3/6 571/3/6 573/3/6
f 571/1/6 572/1/6 574/1/6
f 573/3/6 571/3/6 574/3/6
f 572/2/6 568/2/6 575/2/6
f 574/1/6 572/1/6 575/1/6
f 575/2/6 568/2/6 576/2/6
