# MagicaVoxel @ Ephtracy

# material
mtllib HHY Chip.mtl
usemtl palette

# normals
vn -1 0 0
vn 1 0 0
vn 0 0 1
vn 0 0 -1
vn 0 -1 0
vn 0 1 0

# texcoords
vt 0.0644531 0.5
vt 0.826172 0.5
vt 0.931641 0.5

# verts
v 3 0 16
v 3 0 15
v 3 0 14
v 3 0 13
v 3 0 12
v 3 0 11
v 3 1 16
v 3 1 15
v 3 1 14
v 3 1 13
v 3 1 12
v 3 1 11
v 4 0 17
v 4 0 16
v 4 0 15
v 4 0 14
v 4 0 13
v 4 0 12
v 4 0 11
v 4 0 10
v 4 1 17
v 4 1 16
v 4 1 15
v 4 1 14
v 4 1 13
v 4 1 12
v 4 1 11
v 4 1 10
v 6 0 17
v 6 0 16
v 6 0 11
v 6 0 10
v 6 1 17
v 6 1 16
v 6 1 11
v 6 1 10
v 8 0 17
v 8 0 16
v 8 0 11
v 8 0 10
v 8 1 17
v 8 1 16
v 8 1 11
v 8 1 10
v 10 0 17
v 10 0 16
v 10 0 11
v 10 0 10
v 10 1 17
v 10 1 16
v 10 1 11
v 10 1 10
v 5 0 17
v 5 0 16
v 5 0 11
v 5 0 10
v 5 1 17
v 5 1 16
v 5 1 11
v 5 1 10
v 7 0 17
v 7 0 16
v 7 0 11
v 7 0 10
v 7 1 17
v 7 1 16
v 7 1 11
v 7 1 10
v 9 0 17
v 9 0 16
v 9 0 11
v 9 0 10
v 9 1 17
v 9 1 16
v 9 1 11
v 9 1 10
v 11 0 17
v 11 0 16
v 11 0 15
v 11 0 14
v 11 0 13
v 11 0 12
v 11 0 11
v 11 0 10
v 11 1 17
v 11 1 16
v 11 1 15
v 11 1 14
v 11 1 13
v 11 1 12
v 11 1 11
v 11 1 10
v 12 0 16
v 12 0 15
v 12 0 14
v 12 0 13
v 12 0 12
v 12 0 11
v 12 1 16
v 12 1 15
v 12 1 14
v 12 1 13
v 12 1 12
v 12 1 11
v 4 0 17
v 4 1 17
v 5 0 17
v 5 1 17
v 6 0 17
v 6 1 17
v 7 0 17
v 7 1 17
v 8 0 17
v 8 1 17
v 9 0 17
v 9 1 17
v 10 0 17
v 10 1 17
v 11 0 17
v 11 1 17
v 3 0 16
v 3 1 16
v 4 0 16
v 4 1 16
v 5 0 16
v 5 1 16
v 6 0 16
v 6 1 16
v 7 0 16
v 7 1 16
v 8 0 16
v 8 1 16
v 9 0 16
v 9 1 16
v 10 0 16
v 10 1 16
v 11 0 16
v 11 1 16
v 12 0 16
v 12 1 16
v 3 0 14
v 3 1 14
v 4 0 14
v 4 1 14
v 11 0 14
v 11 1 14
v 12 0 14
v 12 1 14
v 3 0 12
v 3 1 12
v 4 0 12
v 4 1 12
v 11 0 12
v 11 1 12
v 12 0 12
v 12 1 12
v 3 0 15
v 3 1 15
v 4 0 15
v 4 1 15
v 11 0 15
v 11 1 15
v 12 0 15
v 12 1 15
v 3 0 13
v 3 1 13
v 4 0 13
v 4 1 13
v 11 0 13
v 11 1 13
v 12 0 13
v 12 1 13
v 3 0 11
v 3 1 11
v 4 0 11
v 4 1 11
v 5 0 11
v 5 1 11
v 6 0 11
v 6 1 11
v 7 0 11
v 7 1 11
v 8 0 11
v 8 1 11
v 9 0 11
v 9 1 11
v 10 0 11
v 10 1 11
v 11 0 11
v 11 1 11
v 12 0 11
v 12 1 11
v 4 0 10
v 4 1 10
v 5 0 10
v 5 1 10
v 6 0 10
v 6 1 10
v 7 0 10
v 7 1 10
v 8 0 10
v 8 1 10
v 9 0 10
v 9 1 10
v 10 0 10
v 10 1 10
v 11 0 10
v 11 1 10
v 4 0 17
v 5 0 17
v 6 0 17
v 7 0 17
v 8 0 17
v 9 0 17
v 10 0 17
v 11 0 17
v 3 0 16
v 4 0 16
v 5 0 16
v 6 0 16
v 7 0 16
v 8 0 16
v 9 0 16
v 10 0 16
v 11 0 16
v 12 0 16
v 3 0 15
v 4 0 15
v 5 0 15
v 10 0 15
v 11 0 15
v 12 0 15
v 3 0 14
v 4 0 14
v 11 0 14
v 12 0 14
v 3 0 13
v 4 0 13
v 11 0 13
v 12 0 13
v 3 0 12
v 4 0 12
v 5 0 12
v 10 0 12
v 11 0 12
v 12 0 12
v 3 0 11
v 4 0 11
v 5 0 11
v 6 0 11
v 7 0 11
v 8 0 11
v 9 0 11
v 10 0 11
v 11 0 11
v 12 0 11
v 4 0 10
v 5 0 10
v 6 0 10
v 7 0 10
v 8 0 10
v 9 0 10
v 10 0 10
v 11 0 10
v 4 1 17
v 5 1 17
v 6 1 17
v 7 1 17
v 8 1 17
v 9 1 17
v 10 1 17
v 11 1 17
v 3 1 16
v 4 1 16
v 5 1 16
v 6 1 16
v 7 1 16
v 8 1 16
v 9 1 16
v 10 1 16
v 11 1 16
v 12 1 16
v 3 1 15
v 4 1 15
v 5 1 15
v 10 1 15
v 11 1 15
v 12 1 15
v 3 1 14
v 4 1 14
v 11 1 14
v 12 1 14
v 3 1 13
v 4 1 13
v 11 1 13
v 12 1 13
v 3 1 12
v 4 1 12
v 5 1 12
v 10 1 12
v 11 1 12
v 12 1 12
v 3 1 11
v 4 1 11
v 5 1 11
v 6 1 11
v 7 1 11
v 8 1 11
v 9 1 11
v 10 1 11
v 11 1 11
v 12 1 11
v 4 1 10
v 5 1 10
v 6 1 10
v 7 1 10
v 8 1 10
v 9 1 10
v 10 1 10
v 11 1 10

# faces
f 7/1/1 2/1/1 1/1/1
f 8/1/1 2/1/1 7/1/1
f 9/1/1 4/1/1 3/1/1
f 10/1/1 4/1/1 9/1/1
f 11/1/1 6/1/1 5/1/1
f 12/1/1 6/1/1 11/1/1
f 21/1/1 14/1/1 13/1/1
f 22/1/1 14/1/1 21/1/1
f 23/2/1 16/2/1 15/2/1
f 24/2/1 16/2/1 23/2/1
f 25/2/1 18/2/1 17/2/1
f 26/2/1 18/2/1 25/2/1
f 27/1/1 20/1/1 19/1/1
f 28/1/1 20/1/1 27/1/1
f 33/1/1 30/1/1 29/1/1
f 34/1/1 30/1/1 33/1/1
f 35/1/1 32/1/1 31/1/1
f 36/1/1 32/1/1 35/1/1
f 41/1/1 38/1/1 37/1/1
f 42/1/1 38/1/1 41/1/1
f 43/1/1 40/1/1 39/1/1
f 44/1/1 40/1/1 43/1/1
f 49/1/1 46/1/1 45/1/1
f 50/1/1 46/1/1 49/1/1
f 51/1/1 48/1/1 47/1/1
f 52/1/1 48/1/1 51/1/1
f 53/1/2 54/1/2 57/1/2
f 57/1/2 54/1/2 58/1/2
f 55/1/2 56/1/2 59/1/2
f 59/1/2 56/1/2 60/1/2
f 61/1/2 62/1/2 65/1/2
f 65/1/2 62/1/2 66/1/2
f 63/1/2 64/1/2 67/1/2
f 67/1/2 64/1/2 68/1/2
f 69/1/2 70/1/2 73/1/2
f 73/1/2 70/1/2 74/1/2
f 71/1/2 72/1/2 75/1/2
f 75/1/2 72/1/2 76/1/2
f 77/1/2 78/1/2 85/1/2
f 85/1/2 78/1/2 86/1/2
f 79/2/2 80/2/2 87/2/2
f 87/2/2 80/2/2 88/2/2
f 81/2/2 82/2/2 89/2/2
f 89/2/2 82/2/2 90/2/2
f 83/1/2 84/1/2 91/1/2
f 91/1/2 84/1/2 92/1/2
f 93/1/2 94/1/2 99/1/2
f 99/1/2 94/1/2 100/1/2
f 95/1/2 96/1/2 101/1/2
f 101/1/2 96/1/2 102/1/2
f 97/1/2 98/1/2 103/1/2
f 103/1/2 98/1/2 104/1/2
f 107/1/3 106/1/3 105/1/3
f 108/1/3 106/1/3 107/1/3
f 111/1/3 110/1/3 109/1/3
f 112/1/3 110/1/3 111/1/3
f 115/1/3 114/1/3 113/1/3
f 116/1/3 114/1/3 115/1/3
f 119/1/3 118/1/3 117/1/3
f 120/1/3 118/1/3 119/1/3
f 123/1/3 122/1/3 121/1/3
f 124/1/3 122/1/3 123/1/3
f 127/2/3 126/2/3 125/2/3
f 128/2/3 126/2/3 127/2/3
f 131/2/3 130/2/3 129/2/3
f 132/2/3 130/2/3 131/2/3
f 135/2/3 134/2/3 133/2/3
f 136/2/3 134/2/3 135/2/3
f 139/1/3 138/1/3 137/1/3
f 140/1/3 138/1/3 139/1/3
f 143/1/3 142/1/3 141/1/3
f 144/1/3 142/1/3 143/1/3
f 147/1/3 146/1/3 145/1/3
f 148/1/3 146/1/3 147/1/3
f 151/1/3 150/1/3 149/1/3
f 152/1/3 150/1/3 151/1/3
f 155/1/3 154/1/3 153/1/3
f 156/1/3 154/1/3 155/1/3
f 157/1/4 158/1/4 159/1/4
f 159/1/4 158/1/4 160/1/4
f 161/1/4 162/1/4 163/1/4
f 163/1/4 162/1/4 164/1/4
f 165/1/4 166/1/4 167/1/4
f 167/1/4 166/1/4 168/1/4
f 169/1/4 170/1/4 171/1/4
f 171/1/4 170/1/4 172/1/4
f 173/1/4 174/1/4 175/1/4
f 175/1/4 174/1/4 176/1/4
f 177/2/4 178/2/4 179/2/4
f 179/2/4 178/2/4 180/2/4
f 181/2/4 182/2/4 183/2/4
f 183/2/4 182/2/4 184/2/4
f 185/2/4 186/2/4 187/2/4
f 187/2/4 186/2/4 188/2/4
f 189/1/4 190/1/4 191/1/4
f 191/1/4 190/1/4 192/1/4
f 193/1/4 194/1/4 195/1/4
f 195/1/4 194/1/4 196/1/4
f 197/1/4 198/1/4 199/1/4
f 199/1/4 198/1/4 200/1/4
f 201/1/4 202/1/4 203/1/4
f 203/1/4 202/1/4 204/1/4
f 205/1/4 206/1/4 207/1/4
f 207/1/4 206/1/4 208/1/4
f 218/1/5 210/1/5 209/1/5
f 219/1/5 210/1/5 218/1/5
f 220/1/5 212/1/5 211/1/5
f 221/1/5 212/1/5 220/1/5
f 222/1/5 214/1/5 213/1/5
f 223/1/5 214/1/5 222/1/5
f 224/1/5 216/1/5 215/1/5
f 225/1/5 216/1/5 224/1/5
f 227/1/5 218/1/5 217/1/5
f 228/2/5 223/2/5 222/2/5
f 228/1/5 218/1/5 227/1/5
f 228/2/5 219/2/5 218/2/5
f 228/2/5 225/2/5 224/2/5
f 228/2/5 224/2/5 223/2/5
f 228/2/5 221/2/5 220/2/5
f 228/2/5 222/2/5 221/2/5
f 228/2/5 220/2/5 219/2/5
f 229/2/5 225/2/5 228/2/5
f 230/2/5 225/2/5 229/2/5
f 231/1/5 226/1/5 225/1/5
f 231/2/5 225/2/5 230/2/5
f 232/1/5 226/1/5 231/1/5
f 234/2/5 229/2/5 228/2/5
f 235/2/5 231/2/5 230/2/5
f 237/1/5 234/1/5 233/1/5
f 238/2/5 229/2/5 234/2/5
f 238/1/5 234/1/5 237/1/5
f 239/1/5 236/1/5 235/1/5
f 239/2/5 235/2/5 230/2/5
f 240/1/5 236/1/5 239/1/5
f 242/2/5 229/2/5 238/2/5
f 243/3/5 230/3/5 229/3/5
f 243/2/5 229/2/5 242/2/5
f 244/2/5 239/2/5 230/2/5
f 244/3/5 230/3/5 243/3/5
f 245/2/5 239/2/5 244/2/5
f 247/1/5 242/1/5 241/1/5
f 248/2/5 243/2/5 242/2/5
f 248/1/5 242/1/5 247/1/5
f 248/2/5 244/2/5 243/2/5
f 248/2/5 245/2/5 244/2/5
f 249/2/5 245/2/5 248/2/5
f 250/2/5 245/2/5 249/2/5
f 251/2/5 245/2/5 250/2/5
f 252/2/5 245/2/5 251/2/5
f 253/2/5 245/2/5 252/2/5
f 254/2/5 245/2/5 253/2/5
f 255/1/5 246/1/5 245/1/5
f 255/2/5 245/2/5 254/2/5
f 256/1/5 246/1/5 255/1/5
f 257/1/5 249/1/5 248/1/5
f 258/1/5 249/1/5 257/1/5
f 259/1/5 251/1/5 250/1/5
f 260/1/5 251/1/5 259/1/5
f 261/1/5 253/1/5 252/1/5
f 262/1/5 253/1/5 261/1/5
f 263/1/5 255/1/5 254/1/5
f 264/1/5 255/1/5 263/1/5
f 265/1/6 266/1/6 274/1/6
f 274/1/6 266/1/6 275/1/6
f 267/1/6 268/1/6 276/1/6
f 276/1/6 268/1/6 277/1/6
f 269/1/6 270/1/6 278/1/6
f 278/1/6 270/1/6 279/1/6
f 271/1/6 272/1/6 280/1/6
f 280/1/6 272/1/6 281/1/6
f 273/1/6 274/1/6 283/1/6
f 278/2/6 279/2/6 284/2/6
f 283/1/6 274/1/6 284/1/6
f 274/2/6 275/2/6 284/2/6
f 280/2/6 281/2/6 284/2/6
f 279/2/6 280/2/6 284/2/6
f 276/2/6 277/2/6 284/2/6
f 277/2/6 278/2/6 284/2/6
f 275/2/6 276/2/6 284/2/6
f 284/2/6 281/2/6 285/2/6
f 285/2/6 281/2/6 286/2/6
f 281/1/6 282/1/6 287/1/6
f 286/2/6 281/2/6 287/2/6
f 287/1/6 282/1/6 288/1/6
f 284/2/6 285/2/6 290/2/6
f 286/2/6 287/2/6 291/2/6
f 289/1/6 290/1/6 293/1/6
f 290/2/6 285/2/6 294/2/6
f 293/1/6 290/1/6 294/1/6
f 291/1/6 292/1/6 295/1/6
f 286/2/6 291/2/6 295/2/6
f 295/1/6 292/1/6 296/1/6
f 294/2/6 285/2/6 298/2/6
f 285/3/6 286/3/6 299/3/6
f 298/2/6 285/2/6 299/2/6
f 286/2/6 295/2/6 300/2/6
f 299/3/6 286/3/6 300/3/6
f 300/2/6 295/2/6 301/2/6
f 297/1/6 298/1/6 303/1/6
f 298/2/6 299/2/6 304/2/6
f 303/1/6 298/1/6 304/1/6
f 299/2/6 300/2/6 304/2/6
f 300/2/6 301/2/6 304/2/6
f 304/2/6 301/2/6 305/2/6
f 305/2/6 301/2/6 306/2/6
f 306/2/6 301/2/6 307/2/6
f 307/2/6 301/2/6 308/2/6
f 308/2/6 301/2/6 309/2/6
f 309/2/6 301/2/6 310/2/6
f 301/1/6 302/1/6 311/1/6
f 310/2/6 301/2/6 311/2/6
f 311/1/6 302/1/6 312/1/6
f 304/1/6 305/1/6 313/1/6
f 313/1/6 305/1/6 314/1/6
f 306/1/6 307/1/6 315/1/6
f 315/1/6 307/1/6 316/1/6
f 308/1/6 309/1/6 317/1/6
f 317/1/6 309/1/6 318/1/6
f 310/1/6 311/1/6 319/1/6
f 319/1/6 311/1/6 320/1/6
