# This file uses centimeters as units for non-parametric coordinates.

mtllib Coffee.mtl
g default
v -11.000000 0.000000 8.000000
v -11.000000 0.000000 -15.000000
v -11.000000 28.000000 8.000000
v -11.000000 28.000000 -15.000000
v -2.000000 3.000000 18.000000
v -2.000000 3.000000 8.000000
v -2.000000 4.000000 19.000000
v -2.000000 4.000000 18.000000
v -2.000000 5.000000 20.000000
v -2.000000 5.000000 19.000000
v -2.000000 7.000000 16.000000
v -2.000000 7.000000 8.000000
v -2.000000 21.000000 16.000000
v -2.000000 21.000000 8.000000
v -2.000000 23.000000 20.000000
v -2.000000 23.000000 19.000000
v -2.000000 24.000000 19.000000
v -2.000000 24.000000 18.000000
v -2.000000 25.000000 18.000000
v -2.000000 25.000000 8.000000
v 9.000000 25.000000 6.000000
v 9.000000 25.000000 -13.000000
v 9.000000 28.000000 6.000000
v 9.000000 28.000000 -13.000000
v -9.000000 25.000000 6.000000
v -9.000000 25.000000 -13.000000
v -9.000000 28.000000 6.000000
v -9.000000 28.000000 -13.000000
v 2.000000 3.000000 18.000000
v 2.000000 3.000000 8.000000
v 2.000000 4.000000 19.000000
v 2.000000 4.000000 18.000000
v 2.000000 5.000000 20.000000
v 2.000000 5.000000 19.000000
v 2.000000 7.000000 16.000000
v 2.000000 7.000000 8.000000
v 2.000000 21.000000 16.000000
v 2.000000 21.000000 8.000000
v 2.000000 23.000000 20.000000
v 2.000000 23.000000 19.000000
v 2.000000 24.000000 19.000000
v 2.000000 24.000000 18.000000
v 2.000000 25.000000 18.000000
v 2.000000 25.000000 8.000000
v 11.000000 0.000000 8.000000
v 11.000000 0.000000 -15.000000
v 11.000000 28.000000 8.000000
v 11.000000 28.000000 -15.000000
v -2.000000 5.000000 20.000000
v -2.000000 23.000000 20.000000
v 2.000000 5.000000 20.000000
v 2.000000 23.000000 20.000000
v -2.000000 4.000000 19.000000
v -2.000000 5.000000 19.000000
v -2.000000 23.000000 19.000000
v -2.000000 24.000000 19.000000
v 2.000000 4.000000 19.000000
v 2.000000 5.000000 19.000000
v 2.000000 23.000000 19.000000
v 2.000000 24.000000 19.000000
v -2.000000 3.000000 18.000000
v -2.000000 4.000000 18.000000
v -2.000000 24.000000 18.000000
v -2.000000 25.000000 18.000000
v 2.000000 3.000000 18.000000
v 2.000000 4.000000 18.000000
v 2.000000 24.000000 18.000000
v 2.000000 25.000000 18.000000
v -11.000000 0.000000 8.000000
v -11.000000 28.000000 8.000000
v -2.000000 3.000000 8.000000
v -2.000000 7.000000 8.000000
v -2.000000 21.000000 8.000000
v -2.000000 25.000000 8.000000
v 2.000000 3.000000 8.000000
v 2.000000 7.000000 8.000000
v 2.000000 21.000000 8.000000
v 2.000000 25.000000 8.000000
v 11.000000 0.000000 8.000000
v 11.000000 28.000000 8.000000
v -9.000000 25.000000 -13.000000
v -9.000000 28.000000 -13.000000
v 9.000000 25.000000 -13.000000
v 9.000000 28.000000 -13.000000
v -2.000000 7.000000 16.000000
v -2.000000 21.000000 16.000000
v 2.000000 7.000000 16.000000
v 2.000000 21.000000 16.000000
v -9.000000 25.000000 6.000000
v -9.000000 28.000000 6.000000
v 9.000000 25.000000 6.000000
v 9.000000 28.000000 6.000000
v -11.000000 0.000000 -15.000000
v -11.000000 28.000000 -15.000000
v 11.000000 0.000000 -15.000000
v 11.000000 28.000000 -15.000000
v -11.000000 0.000000 8.000000
v 11.000000 0.000000 8.000000
v -9.000000 0.000000 6.000000
v 9.000000 0.000000 6.000000
v -9.000000 0.000000 -13.000000
v 9.000000 0.000000 -13.000000
v -11.000000 0.000000 -15.000000
v 11.000000 0.000000 -15.000000
v -2.000000 3.000000 18.000000
v 2.000000 3.000000 18.000000
v -2.000000 3.000000 8.000000
v 2.000000 3.000000 8.000000
v -2.000000 4.000000 19.000000
v 2.000000 4.000000 19.000000
v -2.000000 4.000000 18.000000
v 2.000000 4.000000 18.000000
v -2.000000 5.000000 20.000000
v 2.000000 5.000000 20.000000
v -2.000000 5.000000 19.000000
v 2.000000 5.000000 19.000000
v -2.000000 21.000000 16.000000
v 2.000000 21.000000 16.000000
v -2.000000 21.000000 8.000000
v 2.000000 21.000000 8.000000
v -2.000000 7.000000 16.000000
v 2.000000 7.000000 16.000000
v -2.000000 7.000000 8.000000
v 2.000000 7.000000 8.000000
v -2.000000 23.000000 20.000000
v 2.000000 23.000000 20.000000
v -2.000000 23.000000 19.000000
v 2.000000 23.000000 19.000000
v -2.000000 24.000000 19.000000
v 2.000000 24.000000 19.000000
v -2.000000 24.000000 18.000000
v 2.000000 24.000000 18.000000
v -2.000000 25.000000 18.000000
v 2.000000 25.000000 18.000000
v -2.000000 25.000000 8.000000
v 2.000000 25.000000 8.000000
v -9.000000 25.000000 6.000000
v 9.000000 25.000000 6.000000
v -9.000000 25.000000 -13.000000
v 9.000000 25.000000 -13.000000
v -11.000000 28.000000 8.000000
v 11.000000 28.000000 8.000000
v -9.000000 28.000000 6.000000
v 9.000000 28.000000 6.000000
v -9.000000 28.000000 -13.000000
v 9.000000 28.000000 -13.000000
v -11.000000 28.000000 -15.000000
v 11.000000 28.000000 -15.000000
vt 0.958984 0.500000
vt 0.369141 0.500000
vt 0.958984 0.500000
vt 0.958984 0.500000
vt 0.958984 0.500000
vt 0.958984 0.500000
vt 0.958984 0.500000
vt 0.958984 0.500000
vt 0.958984 0.500000
vt 0.958984 0.500000
vt 0.958984 0.500000
vt 0.958984 0.500000
vt 0.958984 0.500000
vt 0.958984 0.500000
vt 0.958984 0.500000
vt 0.958984 0.500000
vt 0.958984 0.500000
vt 0.958984 0.500000
vt 0.958984 0.500000
vt 0.958984 0.500000
vt 0.958984 0.500000
vt 0.958984 0.500000
vt 0.958984 0.500000
vt 0.958984 0.500000
vt 0.958984 0.500000
vt 0.958984 0.500000
vt 0.958984 0.500000
vt 0.958984 0.500000
vt 0.958984 0.500000
vt 0.958984 0.500000
vt 0.958984 0.500000
vt 0.958984 0.500000
vt 0.958984 0.500000
vt 0.958984 0.500000
vt 0.958984 0.500000
vt 0.958984 0.500000
vt 0.958984 0.500000
vt 0.958984 0.500000
vt 0.958984 0.500000
vt 0.958984 0.500000
vt 0.958984 0.500000
vt 0.958984 0.500000
vt 0.958984 0.500000
vt 0.958984 0.500000
vt 0.958984 0.500000
vt 0.958984 0.500000
vt 0.958984 0.500000
vt 0.958984 0.500000
vt 0.958984 0.500000
vt 0.958984 0.500000
vt 0.958984 0.500000
vt 0.958984 0.500000
vt 0.958984 0.500000
vt 0.958984 0.500000
vt 0.958984 0.500000
vt 0.958984 0.500000
vt 0.958984 0.500000
vt 0.958984 0.500000
vt 0.958984 0.500000
vt 0.958984 0.500000
vt 0.958984 0.500000
vt 0.958984 0.500000
vt 0.958984 0.500000
vt 0.958984 0.500000
vt 0.958984 0.500000
vt 0.958984 0.500000
vt 0.958984 0.500000
vt 0.958984 0.500000
vt 0.958984 0.500000
vt 0.958984 0.500000
vt 0.958984 0.500000
vt 0.958984 0.500000
vt 0.958984 0.500000
vt 0.958984 0.500000
vt 0.958984 0.500000
vt 0.958984 0.500000
vt 0.958984 0.500000
vt 0.958984 0.500000
vt 0.958984 0.500000
vt 0.958984 0.500000
vt 0.958984 0.500000
vt 0.958984 0.500000
vt 0.958984 0.500000
vt 0.958984 0.500000
vt 0.958984 0.500000
vt 0.958984 0.500000
vt 0.958984 0.500000
vt 0.958984 0.500000
vt 0.958984 0.500000
vt 0.958984 0.500000
vt 0.958984 0.500000
vt 0.958984 0.500000
vt 0.958984 0.500000
vt 0.958984 0.500000
vt 0.958984 0.500000
vt 0.958984 0.500000
vt 0.958984 0.500000
vt 0.958984 0.500000
vt 0.958984 0.500000
vt 0.958984 0.500000
vt 0.958984 0.500000
vt 0.958984 0.500000
vt 0.958984 0.500000
vt 0.958984 0.500000
vt 0.958984 0.500000
vt 0.958984 0.500000
vt 0.958984 0.500000
vt 0.958984 0.500000
vt 0.958984 0.500000
vt 0.958984 0.500000
vt 0.958984 0.500000
vt 0.958984 0.500000
vt 0.958984 0.500000
vt 0.958984 0.500000
vt 0.958984 0.500000
vt 0.958984 0.500000
vt 0.958984 0.500000
vt 0.958984 0.500000
vt 0.958984 0.500000
vt 0.958984 0.500000
vt 0.958984 0.500000
vt 0.958984 0.500000
vt 0.958984 0.500000
vt 0.958984 0.500000
vt 0.958984 0.500000
vt 0.958984 0.500000
vt 0.958984 0.500000
vt 0.958984 0.500000
vt 0.958984 0.500000
vt 0.958984 0.500000
vt 0.958984 0.500000
vt 0.958984 0.500000
vt 0.958984 0.500000
vt 0.958984 0.500000
vt 0.958984 0.500000
vt 0.958984 0.500000
vt 0.958984 0.500000
vt 0.958984 0.500000
vt 0.958984 0.500000
vt 0.958984 0.500000
vt 0.958984 0.500000
vt 0.958984 0.500000
vt 0.958984 0.500000
vt 0.958984 0.500000
vt 0.958984 0.500000
vt 0.958984 0.500000
vt 0.958984 0.500000
vt 0.958984 0.500000
vt 0.958984 0.500000
vt 0.958984 0.500000
vt 0.958984 0.500000
vt 0.958984 0.500000
vt 0.958984 0.500000
vt 0.958984 0.500000
vt 0.958984 0.500000
vt 0.958984 0.500000
vt 0.958984 0.500000
vt 0.958984 0.500000
vt 0.958984 0.500000
vt 0.958984 0.500000
vt 0.958984 0.500000
vt 0.958984 0.500000
vt 0.958984 0.500000
vt 0.958984 0.500000
vt 0.958984 0.500000
vt 0.958984 0.500000
vt 0.958984 0.500000
vt 0.958984 0.500000
vt 0.958984 0.500000
vt 0.958984 0.500000
vt 0.958984 0.500000
vt 0.958984 0.500000
vt 0.958984 0.500000
vt 0.958984 0.500000
vt 0.958984 0.500000
vt 0.958984 0.500000
vt 0.958984 0.500000
vt 0.958984 0.500000
vt 0.958984 0.500000
vt 0.958984 0.500000
vt 0.958984 0.500000
vt 0.958984 0.500000
vt 0.958984 0.500000
vt 0.958984 0.500000
vt 0.958984 0.500000
vt 0.958984 0.500000
vt 0.958984 0.500000
vt 0.958984 0.500000
vt 0.958984 0.500000
vt 0.958984 0.500000
vt 0.958984 0.500000
vt 0.958984 0.500000
vt 0.958984 0.500000
vt 0.958984 0.500000
vt 0.958984 0.500000
vt 0.958984 0.500000
vt 0.958984 0.500000
vt 0.958984 0.500000
vt 0.958984 0.500000
vt 0.958984 0.500000
vt 0.958984 0.500000
vt 0.958984 0.500000
vt 0.958984 0.500000
vt 0.958984 0.500000
vt 0.958984 0.500000
vt 0.958984 0.500000
vt 0.958984 0.500000
vt 0.958984 0.500000
vt 0.958984 0.500000
vt 0.958984 0.500000
vt 0.958984 0.500000
vt 0.958984 0.500000
vt 0.958984 0.500000
vt 0.369141 0.500000
vt 0.369141 0.500000
vt 0.958984 0.500000
vt 0.958984 0.500000
vt 0.958984 0.500000
vt 0.369141 0.500000
vt 0.369141 0.500000
vt 0.958984 0.500000
vt 0.958984 0.500000
vt 0.958984 0.500000
vt 0.958984 0.500000
vt 0.958984 0.500000
vt 0.958984 0.500000
vt 0.958984 0.500000
vt 0.958984 0.500000
vt 0.958984 0.500000
vt 0.958984 0.500000
vt 0.958984 0.500000
vt 0.958984 0.500000
vt 0.958984 0.500000
vt 0.958984 0.500000
vt 0.958984 0.500000
vt 0.958984 0.500000
vt 0.958984 0.500000
vt 0.958984 0.500000
vt 0.958984 0.500000
vt 0.958984 0.500000
vt 0.958984 0.500000
vt 0.958984 0.500000
vt 0.958984 0.500000
vt 0.958984 0.500000
vt 0.958984 0.500000
vt 0.958984 0.500000
vt 0.958984 0.500000
vt 0.958984 0.500000
vt 0.958984 0.500000
vt 0.958984 0.500000
vt 0.958984 0.500000
vt 0.958984 0.500000
vt 0.958984 0.500000
vt 0.958984 0.500000
vt 0.958984 0.500000
vt 0.958984 0.500000
vt 0.958984 0.500000
vt 0.958984 0.500000
vt 0.958984 0.500000
vt 0.958984 0.500000
vt 0.958984 0.500000
vt 0.958984 0.500000
vt 0.958984 0.500000
vt 0.958984 0.500000
vt 0.958984 0.500000
vt 0.958984 0.500000
vt 0.958984 0.500000
vt 0.958984 0.500000
vt 0.958984 0.500000
vt 0.958984 0.500000
vt 0.958984 0.500000
vt 0.958984 0.500000
vt 0.958984 0.500000
vt 0.958984 0.500000
vt 0.958984 0.500000
vt 0.958984 0.500000
vt 0.958984 0.500000
vt 0.958984 0.500000
vt 0.958984 0.500000
vt 0.958984 0.500000
vt 0.369141 0.500000
vt 0.369141 0.500000
vt 0.369141 0.500000
vt 0.369141 0.500000
vt 0.369141 0.500000
vt 0.369141 0.500000
vt 0.958984 0.500000
vt 0.958984 0.500000
vt 0.958984 0.500000
vt 0.958984 0.500000
vt 0.958984 0.500000
vt 0.958984 0.500000
vt 0.958984 0.500000
vt 0.958984 0.500000
vt 0.958984 0.500000
vt 0.958984 0.500000
vt 0.958984 0.500000
vt 0.958984 0.500000
vt 0.958984 0.500000
vt 0.958984 0.500000
vt 0.958984 0.500000
vt 0.958984 0.500000
vt 0.958984 0.500000
vt 0.958984 0.500000
vt 0.958984 0.500000
vt 0.958984 0.500000
vt 0.958984 0.500000
vt 0.958984 0.500000
vt 0.958984 0.500000
vt 0.958984 0.500000
vn -1.000000 0.000000 0.000000
vn -1.000000 0.000000 0.000000
vn -1.000000 0.000000 0.000000
vn -1.000000 0.000000 0.000000
vn -1.000000 0.000000 0.000000
vn -1.000000 0.000000 0.000000
vn -1.000000 0.000000 0.000000
vn -1.000000 0.000000 0.000000
vn -1.000000 0.000000 0.000000
vn -1.000000 0.000000 0.000000
vn -1.000000 0.000000 0.000000
vn -1.000000 0.000000 0.000000
vn -1.000000 0.000000 0.000000
vn -1.000000 0.000000 0.000000
vn -1.000000 0.000000 0.000000
vn -1.000000 0.000000 0.000000
vn -1.000000 0.000000 0.000000
vn -1.000000 0.000000 0.000000
vn -1.000000 0.000000 0.000000
vn -1.000000 0.000000 0.000000
vn -1.000000 0.000000 0.000000
vn -1.000000 0.000000 0.000000
vn -1.000000 0.000000 0.000000
vn -1.000000 0.000000 0.000000
vn -1.000000 0.000000 0.000000
vn -1.000000 0.000000 0.000000
vn -1.000000 0.000000 0.000000
vn -1.000000 0.000000 0.000000
vn -1.000000 0.000000 0.000000
vn -1.000000 0.000000 0.000000
vn -1.000000 0.000000 0.000000
vn -1.000000 0.000000 0.000000
vn -1.000000 0.000000 0.000000
vn -1.000000 0.000000 0.000000
vn -1.000000 0.000000 0.000000
vn -1.000000 0.000000 0.000000
vn -1.000000 0.000000 0.000000
vn -1.000000 0.000000 0.000000
vn -1.000000 0.000000 0.000000
vn -1.000000 0.000000 0.000000
vn -1.000000 0.000000 0.000000
vn -1.000000 0.000000 0.000000
vn -1.000000 0.000000 0.000000
vn -1.000000 0.000000 0.000000
vn -1.000000 0.000000 0.000000
vn -1.000000 0.000000 0.000000
vn -1.000000 0.000000 0.000000
vn -1.000000 0.000000 0.000000
vn -1.000000 0.000000 0.000000
vn -1.000000 0.000000 0.000000
vn -1.000000 0.000000 0.000000
vn -1.000000 0.000000 0.000000
vn -1.000000 0.000000 0.000000
vn -1.000000 0.000000 0.000000
vn 1.000000 0.000000 0.000000
vn 1.000000 0.000000 0.000000
vn 1.000000 0.000000 0.000000
vn 1.000000 0.000000 0.000000
vn 1.000000 0.000000 0.000000
vn 1.000000 0.000000 0.000000
vn 1.000000 0.000000 0.000000
vn 1.000000 0.000000 0.000000
vn 1.000000 0.000000 0.000000
vn 1.000000 0.000000 0.000000
vn 1.000000 0.000000 0.000000
vn 1.000000 0.000000 0.000000
vn 1.000000 0.000000 0.000000
vn 1.000000 0.000000 0.000000
vn 1.000000 0.000000 0.000000
vn 1.000000 0.000000 0.000000
vn 1.000000 0.000000 0.000000
vn 1.000000 0.000000 0.000000
vn 1.000000 0.000000 0.000000
vn 1.000000 0.000000 0.000000
vn 1.000000 0.000000 0.000000
vn 1.000000 0.000000 0.000000
vn 1.000000 0.000000 0.000000
vn 1.000000 0.000000 0.000000
vn 1.000000 0.000000 0.000000
vn 1.000000 0.000000 0.000000
vn 1.000000 0.000000 0.000000
vn 1.000000 0.000000 0.000000
vn 1.000000 0.000000 0.000000
vn 1.000000 0.000000 0.000000
vn 1.000000 0.000000 0.000000
vn 1.000000 0.000000 0.000000
vn 1.000000 0.000000 0.000000
vn 1.000000 0.000000 0.000000
vn 1.000000 0.000000 0.000000
vn 1.000000 0.000000 0.000000
vn 1.000000 0.000000 0.000000
vn 1.000000 0.000000 0.000000
vn 1.000000 0.000000 0.000000
vn 1.000000 0.000000 0.000000
vn 1.000000 0.000000 0.000000
vn 1.000000 0.000000 0.000000
vn 1.000000 0.000000 0.000000
vn 1.000000 0.000000 0.000000
vn 1.000000 0.000000 0.000000
vn 1.000000 0.000000 0.000000
vn 1.000000 0.000000 0.000000
vn 1.000000 0.000000 0.000000
vn 1.000000 0.000000 0.000000
vn 1.000000 0.000000 0.000000
vn 1.000000 0.000000 0.000000
vn 1.000000 0.000000 0.000000
vn 1.000000 0.000000 0.000000
vn 1.000000 0.000000 0.000000
vn 0.000000 0.000000 1.000000
vn 0.000000 0.000000 1.000000
vn 0.000000 0.000000 1.000000
vn 0.000000 0.000000 1.000000
vn 0.000000 0.000000 1.000000
vn 0.000000 0.000000 1.000000
vn 0.000000 0.000000 1.000000
vn 0.000000 0.000000 1.000000
vn 0.000000 0.000000 1.000000
vn 0.000000 0.000000 1.000000
vn 0.000000 0.000000 1.000000
vn 0.000000 0.000000 1.000000
vn 0.000000 0.000000 1.000000
vn 0.000000 0.000000 1.000000
vn 0.000000 0.000000 1.000000
vn 0.000000 0.000000 1.000000
vn 0.000000 0.000000 1.000000
vn 0.000000 0.000000 1.000000
vn 0.000000 0.000000 1.000000
vn 0.000000 0.000000 1.000000
vn 0.000000 0.000000 1.000000
vn 0.000000 0.000000 1.000000
vn 0.000000 0.000000 1.000000
vn 0.000000 0.000000 1.000000
vn 0.000000 0.000000 1.000000
vn 0.000000 0.000000 1.000000
vn 0.000000 0.000000 1.000000
vn 0.000000 0.000000 1.000000
vn 0.000000 0.000000 1.000000
vn 0.000000 0.000000 1.000000
vn 0.000000 0.000000 1.000000
vn 0.000000 0.000000 1.000000
vn 0.000000 0.000000 1.000000
vn 0.000000 0.000000 1.000000
vn 0.000000 0.000000 1.000000
vn 0.000000 0.000000 1.000000
vn 0.000000 0.000000 1.000000
vn 0.000000 0.000000 1.000000
vn 0.000000 0.000000 1.000000
vn 0.000000 0.000000 1.000000
vn 0.000000 0.000000 1.000000
vn 0.000000 0.000000 1.000000
vn 0.000000 0.000000 1.000000
vn 0.000000 0.000000 1.000000
vn 0.000000 0.000000 1.000000
vn 0.000000 0.000000 1.000000
vn 0.000000 0.000000 1.000000
vn 0.000000 0.000000 1.000000
vn 0.000000 0.000000 1.000000
vn 0.000000 0.000000 1.000000
vn 0.000000 0.000000 1.000000
vn 0.000000 0.000000 1.000000
vn 0.000000 0.000000 1.000000
vn 0.000000 0.000000 1.000000
vn 0.000000 0.000000 1.000000
vn 0.000000 0.000000 1.000000
vn 0.000000 0.000000 1.000000
vn 0.000000 0.000000 1.000000
vn 0.000000 0.000000 1.000000
vn 0.000000 0.000000 1.000000
vn 0.000000 0.000000 1.000000
vn 0.000000 0.000000 1.000000
vn 0.000000 0.000000 1.000000
vn 0.000000 0.000000 1.000000
vn 0.000000 0.000000 1.000000
vn 0.000000 0.000000 1.000000
vn 0.000000 0.000000 1.000000
vn 0.000000 0.000000 1.000000
vn 0.000000 0.000000 1.000000
vn 0.000000 0.000000 1.000000
vn 0.000000 0.000000 1.000000
vn 0.000000 0.000000 1.000000
vn 0.000000 0.000000 1.000000
vn 0.000000 0.000000 1.000000
vn 0.000000 0.000000 1.000000
vn 0.000000 0.000000 1.000000
vn 0.000000 0.000000 1.000000
vn 0.000000 0.000000 1.000000
vn 0.000000 0.000000 -1.000000
vn 0.000000 0.000000 -1.000000
vn 0.000000 0.000000 -1.000000
vn 0.000000 0.000000 -1.000000
vn 0.000000 0.000000 -1.000000
vn 0.000000 0.000000 -1.000000
vn 0.000000 0.000000 -1.000000
vn 0.000000 0.000000 -1.000000
vn 0.000000 0.000000 -1.000000
vn 0.000000 0.000000 -1.000000
vn 0.000000 0.000000 -1.000000
vn 0.000000 0.000000 -1.000000
vn 0.000000 0.000000 -1.000000
vn 0.000000 0.000000 -1.000000
vn 0.000000 0.000000 -1.000000
vn 0.000000 0.000000 -1.000000
vn 0.000000 0.000000 -1.000000
vn 0.000000 0.000000 -1.000000
vn 0.000000 -1.000000 0.000000
vn 0.000000 -1.000000 0.000000
vn 0.000000 -1.000000 0.000000
vn 0.000000 -1.000000 0.000000
vn 0.000000 -1.000000 0.000000
vn 0.000000 -1.000000 0.000000
vn 0.000000 -1.000000 0.000000
vn 0.000000 -1.000000 0.000000
vn 0.000000 -1.000000 0.000000
vn 0.000000 -1.000000 0.000000
vn 0.000000 -1.000000 0.000000
vn 0.000000 -1.000000 0.000000
vn 0.000000 -1.000000 0.000000
vn 0.000000 -1.000000 0.000000
vn 0.000000 -1.000000 0.000000
vn 0.000000 -1.000000 0.000000
vn 0.000000 -1.000000 0.000000
vn 0.000000 -1.000000 0.000000
vn 0.000000 -1.000000 0.000000
vn 0.000000 -1.000000 0.000000
vn 0.000000 -1.000000 0.000000
vn 0.000000 -1.000000 0.000000
vn 0.000000 -1.000000 0.000000
vn 0.000000 -1.000000 0.000000
vn 0.000000 -1.000000 0.000000
vn 0.000000 -1.000000 0.000000
vn 0.000000 -1.000000 0.000000
vn 0.000000 -1.000000 0.000000
vn 0.000000 -1.000000 0.000000
vn 0.000000 -1.000000 0.000000
vn 0.000000 -1.000000 0.000000
vn 0.000000 -1.000000 0.000000
vn 0.000000 -1.000000 0.000000
vn 0.000000 -1.000000 0.000000
vn 0.000000 -1.000000 0.000000
vn 0.000000 -1.000000 0.000000
vn 0.000000 -1.000000 0.000000
vn 0.000000 -1.000000 0.000000
vn 0.000000 -1.000000 0.000000
vn 0.000000 -1.000000 0.000000
vn 0.000000 -1.000000 0.000000
vn 0.000000 -1.000000 0.000000
vn 0.000000 -1.000000 0.000000
vn 0.000000 -1.000000 0.000000
vn 0.000000 -1.000000 0.000000
vn 0.000000 -1.000000 0.000000
vn 0.000000 -1.000000 0.000000
vn 0.000000 -1.000000 0.000000
vn 0.000000 -1.000000 0.000000
vn 0.000000 -1.000000 0.000000
vn 0.000000 -1.000000 0.000000
vn 0.000000 -1.000000 0.000000
vn 0.000000 -1.000000 0.000000
vn 0.000000 -1.000000 0.000000
vn 0.000000 1.000000 0.000000
vn 0.000000 1.000000 0.000000
vn 0.000000 1.000000 0.000000
vn 0.000000 1.000000 0.000000
vn 0.000000 1.000000 0.000000
vn 0.000000 1.000000 0.000000
vn 0.000000 1.000000 0.000000
vn 0.000000 1.000000 0.000000
vn 0.000000 1.000000 0.000000
vn 0.000000 1.000000 0.000000
vn 0.000000 1.000000 0.000000
vn 0.000000 1.000000 0.000000
vn 0.000000 1.000000 0.000000
vn 0.000000 1.000000 0.000000
vn 0.000000 1.000000 0.000000
vn 0.000000 1.000000 0.000000
vn 0.000000 1.000000 0.000000
vn 0.000000 1.000000 0.000000
vn 0.000000 1.000000 0.000000
vn 0.000000 1.000000 0.000000
vn 0.000000 1.000000 0.000000
vn 0.000000 1.000000 0.000000
vn 0.000000 1.000000 0.000000
vn 0.000000 1.000000 0.000000
vn 0.000000 1.000000 0.000000
vn 0.000000 1.000000 0.000000
vn 0.000000 1.000000 0.000000
vn 0.000000 1.000000 0.000000
vn 0.000000 1.000000 0.000000
vn 0.000000 1.000000 0.000000
vn 0.000000 1.000000 0.000000
vn 0.000000 1.000000 0.000000
vn 0.000000 1.000000 0.000000
vn 0.000000 1.000000 0.000000
vn 0.000000 1.000000 0.000000
vn 0.000000 1.000000 0.000000
vn 0.000000 1.000000 0.000000
vn 0.000000 1.000000 0.000000
vn 0.000000 1.000000 0.000000
vn 0.000000 1.000000 0.000000
vn 0.000000 1.000000 0.000000
vn 0.000000 1.000000 0.000000
vn 0.000000 1.000000 0.000000
vn 0.000000 1.000000 0.000000
vn 0.000000 1.000000 0.000000
vn 0.000000 1.000000 0.000000
vn 0.000000 1.000000 0.000000
vn 0.000000 1.000000 0.000000
vn 0.000000 1.000000 0.000000
vn 0.000000 1.000000 0.000000
vn 0.000000 1.000000 0.000000
vn 0.000000 1.000000 0.000000
vn 0.000000 1.000000 0.000000
vn 0.000000 1.000000 0.000000
s off
g Coffee1:Mesh
usemtl Coffee1:palette
f 3/1/1 2/3/2 1/4/3
f 4/5/4 2/6/5 3/1/6
f 8/7/7 6/8/8 5/9/9
f 10/10/10 8/11/11 7/12/12
f 11/13/13 6/14/14 8/15/15
f 11/16/16 10/17/17 9/18/18
f 11/19/19 8/20/20 10/21/21
f 12/22/22 6/23/23 11/24/24
f 13/25/25 11/26/26 9/27/27
f 15/28/28 13/29/29 9/30/30
f 15/31/31 14/32/32 13/33/33
f 16/34/34 14/35/35 15/36/36
f 17/37/37 14/38/38 16/39/39
f 18/40/40 14/41/41 17/42/42
f 19/43/43 14/44/44 18/45/45
f 20/46/46 14/47/47 19/48/48
f 23/49/49 22/50/50 21/51/51
f 24/52/52 22/53/53 23/54/54
f 25/55/55 26/56/56 27/57/57
f 27/58/58 26/59/59 28/60/60
f 29/61/61 30/62/62 32/63/63
f 31/64/64 32/65/65 34/66/66
f 32/67/67 30/68/68 35/69/69
f 33/70/70 34/71/71 35/72/72
f 34/73/73 32/74/74 35/75/75
f 35/76/76 30/77/77 36/78/78
f 33/79/79 35/80/80 37/81/81
f 33/82/82 37/83/83 39/84/84
f 37/85/85 38/86/86 39/87/87
f 39/88/88 38/89/89 40/90/90
f 40/91/91 38/92/92 41/93/93
f 41/94/94 38/95/95 42/96/96
f 42/97/97 38/98/98 43/99/99
f 43/100/100 38/101/101 44/102/102
f 45/103/103 46/104/104 47/105/105
f 47/106/106 46/107/107 48/108/108
f 51/109/109 50/110/110 49/111/111
f 52/112/112 50/113/113 51/114/114
f 57/115/115 54/116/116 53/117/117
f 58/118/118 54/119/119 57/120/120
f 59/121/121 56/122/122 55/123/123
f 60/124/124 56/125/125 59/126/126
f 65/127/127 62/128/128 61/129/129
f 66/130/130 62/131/131 65/132/132
f 67/133/133 64/134/134 63/135/135
f 68/136/136 64/137/137 67/138/138
f 71/139/139 70/140/140 69/141/141
f 72/142/142 70/143/143 71/144/144
f 73/145/145 70/146/146 72/147/147
f 74/148/148 70/149/149 73/150/150
f 75/151/151 71/152/152 69/153/153
f 76/154/154 73/155/155 72/156/156
f 77/157/157 73/158/158 76/159/159
f 78/160/160 70/161/161 74/162/162
f 79/163/163 77/164/164 76/165/165
f 79/166/166 78/167/167 77/168/168
f 79/169/169 75/170/170 69/171/171
f 79/172/172 76/173/173 75/174/174
f 80/175/175 70/176/176 78/177/177
f 80/178/178 78/179/179 79/180/180
f 83/181/181 82/182/182 81/183/183
f 84/184/184 82/185/185 83/186/186
f 85/187/187 86/188/188 87/189/189
f 87/190/190 86/191/191 88/192/192
f 89/193/193 90/194/194 91/195/195
f 91/196/196 90/197/197 92/198/198
f 93/199/199 94/200/200 95/201/201
f 95/202/202 94/203/203 96/204/204
f 99/205/205 98/206/206 97/207/207
f 100/208/208 98/209/209 99/210/210
f 101/211/211 99/212/212 97/213/213
f 101/2/214 100/214/215 99/215/216
f 102/216/217 98/217/218 100/218/219
f 102/219/220 100/220/221 101/2/222
f 103/221/223 101/222/224 97/223/225
f 103/224/226 102/225/227 101/226/228
f 104/227/229 98/228/230 102/229/231
f 104/230/232 102/231/233 103/232/234
f 107/233/235 106/234/236 105/235/237
f 108/236/238 106/237/239 107/238/240
f 111/239/241 110/240/242 109/241/243
f 112/242/244 110/243/245 111/244/246
f 115/245/247 114/246/248 113/247/249
f 116/248/250 114/249/251 115/250/252
f 119/251/253 118/252/254 117/253/255
f 120/254/256 118/255/257 119/256/258
f 121/257/259 122/258/260 123/259/261
f 123/260/262 122/261/263 124/262/264
f 125/263/265 126/264/266 127/265/267
f 127/266/268 126/267/269 128/268/270
f 129/269/271 130/270/272 131/271/273
f 131/272/274 130/273/275 132/274/276
f 133/275/277 134/276/278 135/277/279
f 135/278/280 134/279/281 136/280/282
f 137/281/283 138/282/284 139/283/285
f 139/284/286 138/285/287 140/286/288
f 141/287/289 142/288/290 143/289/291
f 143/290/292 142/291/293 144/292/294
f 141/293/295 143/294/296 145/295/297
f 144/296/298 142/297/299 146/298/300
f 141/299/301 145/300/302 147/301/303
f 145/302/304 146/303/305 147/304/306
f 146/305/307 142/306/308 148/307/309
f 147/308/310 146/309/311 148/310/312
